<?xml version="1.0" standalone="no"?><!DOCTYPE svg PUBLIC "-//W3C//DTD SVG 1.1//EN" "http://www.w3.org/Graphics/SVG/1.1/DTD/svg11.dtd" ><svg xmlns="http://www.w3.org/2000/svg"><metadata></metadata><defs><font id="KaiGen Gothic SC Light:Version 1.001" horiz-adv-x="1000"><font-face font-family="KaiGen Gothic SC Light" font-weight="300" font-stretch="normal" units-per-em="1000" panose-1="2 11 1 3 2 2 3 2 2 7" ascent="880" descent="-120" x-height="7" bbox="4 -254 985 880" underline-thickness="50" underline-position="-125" unicode-range="U+0023-ff09" /><missing-glyph horiz-adv-x="1000" d="M100 880 l800 0 l0 -1000 l-800 0 l0 1000 ZM818 830 l-636 0 l318 -409 l318 409 ZM850 -29 l0 818 l-318 -409 l318 -409 ZM818 -70 l-318 409 l-318 -409 l636 0 ZM150 -29 l318 409 l-318 409 l0 -818 Z" /><glyph glyph-name="" unicode="#" d="M130 235 l-90 0 l0 45 l96 0 l23 182 l-97 0 l0 46 l101 0 l28 212 l43 0 l-27 -212 l161 0 l28 212 l43 0 l-28 -212 l90 0 l0 -46 l-94 0 l-22 -182 l94 0 l0 -45 l-101 0 l-27 -235 l-44 0 l28 235 l-161 0 l-29 -235 l-43 0 l28 235 ZM341 280 l23 182 l-162 0 l-23 -182 l162 0 Z" /><glyph glyph-name="" unicode="&amp;" d="M98 189 q0 -68 47 -111 q46 -42 113 -42 q81 0 157 73 q-125 112 -205 248 q-112 -88 -112 -168 ZM191 579 q0 -64 39 -149 q139 99 139 175 q0 91 -78 91 q-45 0 -73 -34 q-27 -33 -27 -83 ZM612 -13 q-76 24 -158 89 q-91 -89 -202 -89 q-92 0 -151 55 q-62 55 -62 144 q0 106 148 213 q-49 101 -49 179 q0 71 43 117 q44 47 112 47 q59 0 93 -38 q33 -37 33 -96 q0 -63 -53 -122 q-30 -33 -114 -97 q75 -132 199 -239 q72 92 113 234 l55 0 q-47 -159 -129 -267 q77 -58 140 -80 l-18 -50 Z" /><glyph glyph-name="" unicode="(" d="M242 -193 q-146 236 -146 501 q0 266 146 502 l36 -19 q-132 -214 -132 -483 q0 -271 132 -483 l-36 -18 Z" /><glyph glyph-name="" unicode=")" d="M37 -175 q132 212 132 483 q0 269 -132 483 l36 19 q146 -236 146 -502 q0 -265 -146 -501 l-36 18 Z" /><glyph glyph-name="" unicode="-&#x2011;" d="M45 301 l246 0 l0 -49 l-246 0 l0 49 Z" /><glyph glyph-name="" unicode="." d="M125 -13 q-21 0 -36 15 q-15 15 -15 39 q0 25 15 40 q15 15 36 15 q21 0 36 -15 q15 -15 15 -40 q0 -24 -15 -39 q-15 -15 -36 -15 Z" /><glyph glyph-name="" unicode="/" d="M339 786 l48 0 l-330 -963 l-47 0 l329 963 Z" /><glyph glyph-name="" unicode="0" d="M268 -13 q-102 0 -157 94 q-58 98 -58 286 q0 186 58 282 q55 93 157 93 q101 0 157 -93 q57 -96 57 -282 q0 -188 -57 -286 q-56 -94 -157 -94 ZM268 36 q72 0 113 83 q43 86 43 248 q0 159 -43 244 q-41 82 -113 82 q-73 0 -114 -82 q-43 -85 -43 -244 q0 -162 43 -248 q41 -83 114 -83 Z" /><glyph glyph-name="" unicode="1" d="M92 51 l165 0 l0 593 l-127 0 l0 39 q83 14 139 46 l47 0 l0 -678 l152 0 l0 -51 l-376 0 l0 51 Z" /><glyph glyph-name="" unicode="2" d="M45 36 q345 298 345 495 q0 72 -36 115 q-39 47 -113 47 q-88 0 -162 -91 l-37 35 q95 105 205 105 q94 0 149 -57 q53 -57 53 -152 q0 -196 -312 -487 q80 6 120 6 l227 0 l0 -52 l-439 0 l0 36 Z" /><glyph glyph-name="" unicode="3" d="M258 -13 q-133 0 -227 100 l33 39 q83 -89 192 -89 q71 0 116 43 q46 43 46 113 q0 164 -242 164 l0 49 q216 0 216 156 q0 59 -37 95 q-38 36 -101 37 q-90 -1 -160 -77 l-34 40 q90 85 195 86 q87 -1 141 -46 q56 -49 56 -131 q0 -135 -134 -180 l0 -5 q70 -15 113 -62 q47 -52 47 -126 q0 -93 -63 -151 q-62 -55 -157 -55 Z" /><glyph glyph-name="" unicode="4" d="M341 257 l0 269 q0 53 6 121 l-5 0 q-27 -52 -58 -101 l-198 -289 l255 0 ZM501 208 l-103 0 l0 -208 l-57 0 l0 208 l-322 0 l0 37 l322 484 l57 0 l0 -472 l103 0 l0 -49 Z" /><glyph glyph-name="" unicode="5" d="M253 -13 q-128 0 -225 95 l32 41 q82 -86 191 -86 q71 0 120 53 q50 56 50 142 q0 87 -45 137 q-45 50 -122 50 q-62 0 -129 -46 l-38 23 l25 333 l333 0 l0 -51 l-281 0 l-21 -245 q58 35 122 35 q96 0 153 -56 q63 -62 63 -178 q0 -113 -70 -183 q-66 -64 -158 -64 Z" /><glyph glyph-name="" unicode="6" d="M294 36 q59 0 99 52 q39 53 39 132 q0 182 -148 182 q-90 0 -167 -104 q15 -262 177 -262 ZM441 634 q-47 58 -119 58 q-90 0 -143 -75 q-61 -86 -63 -263 q77 95 176 95 q94 0 146 -58 q52 -60 52 -171 q0 -101 -59 -168 q-57 -65 -138 -65 q-108 0 -170 92 q-64 94 -64 265 q0 206 80 309 q68 89 182 89 q92 0 155 -70 l-35 -38 Z" /><glyph glyph-name="" unicode="7" d="M205 0 q17 406 212 678 l-369 0 l0 51 l440 0 l0 -35 q-123 -161 -171 -325 q-40 -138 -49 -369 l-63 0 Z" /><glyph glyph-name="" unicode="8" d="M271 -13 q-98 0 -162 55 q-64 55 -64 139 q0 131 139 208 l0 4 q-100 67 -100 166 q0 79 54 130 q54 50 134 50 q89 0 142 -54 q51 -53 51 -137 q0 -101 -100 -181 l0 -5 q124 -74 124 -190 q0 -79 -60 -131 q-62 -54 -158 -54 ZM322 383 q89 74 89 163 q0 62 -37 103 q-39 43 -103 43 q-57 0 -94 -38 q-37 -37 -37 -95 q0 -66 57 -112 q37 -29 125 -64 ZM271 34 q71 0 116 40 q44 39 44 99 q0 74 -65 123 q-39 29 -147 71 q-119 -71 -119 -183 q0 -64 48 -107 q49 -43 123 -43 Z" /><glyph glyph-name="" unicode="9" d="M250 327 q93 0 170 107 q-10 260 -178 260 q-59 0 -99 -53 q-39 -53 -39 -132 q0 -83 35 -130 q38 -52 111 -52 ZM96 95 q50 -58 127 -58 q84 0 135 76 q59 87 63 264 q-80 -97 -178 -97 q-92 0 -144 59 q-53 60 -53 170 q0 101 59 168 q57 65 138 65 q108 0 170 -86 q65 -90 65 -252 q0 -215 -78 -324 q-67 -93 -178 -93 q-94 0 -161 70 l35 38 Z" /><glyph glyph-name="" unicode=":" d="M125 405 q-21 0 -36 15 q-15 15 -15 39 q0 25 15 40 q15 15 36 15 q21 0 36 -15 q15 -15 15 -40 q0 -24 -15 -39 q-15 -15 -36 -15 ZM125 -13 q-21 0 -36 15 q-15 15 -15 39 q0 25 15 40 q15 15 36 15 q21 0 36 -15 q15 -15 15 -40 q0 -24 -15 -39 q-15 -15 -36 -15 Z" /><glyph glyph-name="" unicode="@" d="M433 -163 q-166 0 -269 101 q-107 105 -107 286 q0 212 134 350 q128 131 311 131 q161 0 257 -98 q94 -97 94 -257 q0 -133 -69 -216 q-61 -74 -139 -74 q-101 0 -108 84 l-2 0 q-71 -77 -136 -77 q-55 0 -90 39 q-38 41 -38 114 q0 90 55 166 q62 84 153 84 q60 0 91 -54 l2 0 l11 45 l42 0 l-40 -211 q-35 -145 65 -145 q58 0 105 63 q51 70 51 178 q0 143 -81 228 q-83 86 -227 86 q-157 0 -272 -118 q-121 -125 -121 -315 q0 -160 93 -254 q90 -92 239 -92 q100 0 184 53 l20 -39 q-94 -58 -208 -58 ZM408 112 q54 0 116 72 l34 188 q-33 53 -80 53 q-69 0 -115 -66 q-42 -61 -42 -136 q0 -111 87 -111 Z" /><glyph glyph-name="" unicode="a" d="M419 293 l-44 132 q-38 107 -80 250 l-4 0 q-31 -110 -79 -250 l-45 -132 l252 0 ZM435 245 l-284 0 l-83 -245 l-60 0 l255 729 l62 0 l255 -729 l-64 0 l-81 245 Z" /><glyph glyph-name="" unicode="b" d="M106 729 l201 0 q243 0 243 -177 q0 -125 -112 -159 l0 -5 q156 -27 156 -175 q0 -103 -74 -159 q-72 -54 -198 -54 l-216 0 l0 729 ZM288 411 q202 0 202 134 q0 72 -50 105 q-46 30 -146 30 l-128 0 l0 -269 l122 0 ZM308 50 q227 0 227 163 q0 150 -227 150 l-142 0 l0 -313 l142 0 Z" /><glyph glyph-name="" unicode="c" d="M368 -13 q-137 0 -221 102 q-87 103 -87 276 q0 173 88 276 q86 101 226 101 q117 0 192 -88 l-34 -39 q-65 73 -158 73 q-116 0 -183 -87 q-68 -86 -68 -234 q0 -150 67 -238 q67 -88 181 -88 q101 0 181 88 l34 -38 q-90 -104 -218 -104 Z" /><glyph glyph-name="" unicode="d" d="M106 729 l172 0 q165 0 251 -97 q83 -94 83 -265 q0 -172 -83 -267 q-86 -100 -250 -100 l-173 0 l0 729 ZM272 51 q139 0 211 87 q66 82 66 229 q0 147 -66 227 q-71 85 -211 85 l-106 0 l0 -628 l106 0 Z" /><glyph glyph-name="" unicode="e" d="M106 729 l403 0 l0 -51 l-343 0 l0 -266 l289 0 l0 -51 l-289 0 l0 -309 l354 0 l0 -52 l-414 0 l0 729 Z" /><glyph glyph-name="" unicode="f" d="M106 729 l402 0 l0 -51 l-342 0 l0 -281 l289 0 l0 -51 l-289 0 l0 -346 l-60 0 l0 729 Z" /><glyph glyph-name="" unicode="g" d="M376 -13 q-142 0 -228 102 q-88 103 -88 276 q0 173 91 276 q88 101 234 101 q118 0 202 -88 l-35 -39 q-68 73 -166 73 q-121 0 -192 -87 q-71 -86 -71 -234 q0 -151 68 -238 q69 -88 191 -88 q103 0 155 52 l0 219 l-169 0 l0 51 l227 0 l0 -293 q-78 -83 -219 -83 Z" /><glyph glyph-name="" unicode="h" d="M106 729 l60 0 l0 -316 l379 0 l0 316 l59 0 l0 -729 l-59 0 l0 361 l-379 0 l0 -361 l-60 0 l0 729 Z" /><glyph glyph-name="" unicode="i" d="M106 729 l60 0 l0 -729 l-60 0 l0 729 Z" /><glyph glyph-name="" unicode="j" d="M227 -13 q-125 0 -185 109 l45 30 q50 -85 138 -85 q128 0 128 167 l0 521 l60 0 l0 -527 q0 -215 -186 -215 Z" /><glyph glyph-name="" unicode="l" d="M106 729 l60 0 l0 -677 l332 0 l0 -52 l-392 0 l0 729 Z" /><glyph glyph-name="" unicode="m" d="M106 729 l80 0 l207 -579 l4 0 l54 160 l150 419 l80 0 l0 -729 l-57 0 l0 462 q0 59 7 201 l-4 0 l-57 -163 l-153 -422 l-48 0 l-154 422 l-57 163 l-4 0 q7 -142 7 -201 l0 -462 l-55 0 l0 729 Z" /><glyph glyph-name="" unicode="n" d="M106 729 l62 0 l298 -501 l81 -147 l5 0 q-8 144 -8 216 l0 432 l57 0 l0 -729 l-62 0 l-297 502 l-82 146 l-5 0 q8 -187 8 -211 l0 -437 l-57 0 l0 729 Z" /><glyph glyph-name="" unicode="o" d="M362 -13 q-134 0 -217 103 q-85 105 -85 277 q0 171 85 274 q83 101 217 101 q135 0 218 -101 q85 -103 85 -274 q0 -172 -85 -277 q-83 -103 -218 -103 ZM362 41 q109 0 175 89 q66 89 66 237 q0 148 -66 235 q-66 86 -175 86 q-109 0 -173 -86 q-66 -87 -66 -235 q0 -148 66 -237 q65 -89 173 -89 Z" /><glyph glyph-name="" unicode="p" d="M106 729 l189 0 q266 0 266 -205 q0 -107 -70 -163 q-68 -53 -192 -53 l-133 0 l0 -308 l-60 0 l0 729 ZM287 358 q109 0 161 39 q52 40 52 127 q0 86 -54 122 q-50 33 -163 33 l-117 0 l0 -321 l121 0 Z" /><glyph glyph-name="" unicode="r" d="M166 379 l139 0 q196 0 196 155 q0 145 -196 145 l-139 0 l0 -300 ZM509 0 l-194 329 l-149 0 l0 -329 l-60 0 l0 729 l213 0 q243 0 243 -195 q0 -172 -182 -200 l197 -334 l-68 0 Z" /><glyph glyph-name="" unicode="s" d="M299 -13 q-151 0 -248 109 l37 42 q86 -97 211 -97 q80 0 128 39 q47 38 47 101 q0 60 -37 95 q-25 23 -92 53 l-109 48 q-148 66 -148 182 q0 80 62 132 q60 51 154 51 q125 0 206 -88 l-34 -39 q-71 73 -172 73 q-70 0 -112 -34 q-43 -34 -43 -90 q0 -83 124 -137 l109 -48 q74 -33 108 -69 q45 -49 45 -125 q0 -85 -64 -141 q-66 -57 -172 -57 Z" /><glyph glyph-name="" unicode="t" d="M261 678 l-229 0 l0 51 l520 0 l0 -51 l-230 0 l0 -678 l-61 0 l0 678 Z" /><glyph glyph-name="" unicode="u" d="M352 -13 q-249 0 -249 298 l0 444 l60 0 l0 -441 q0 -247 189 -247 q193 0 193 247 l0 441 l57 0 l0 -444 q0 -298 -250 -298 Z" /><glyph glyph-name="" unicode="v" d="M4 729 l64 0 l206 -663 l4 0 q18 52 39 122 l168 541 l61 0 l-237 -729 l-66 0 l-239 729 Z" /><glyph glyph-name="" unicode="w" d="M30 729 l62 0 l88 -422 q20 -92 49 -238 l4 0 q18 80 56 238 l111 422 l59 0 l112 -422 l56 -238 l5 0 q27 147 46 238 l88 422 l59 0 l-160 -729 l-68 0 l-129 487 l-38 164 l-4 0 q-6 -29 -20 -81 q-14 -56 -20 -83 l-125 -487 l-68 0 l-163 729 Z" /><glyph glyph-name="" unicode="x" d="M236 377 l-203 352 l66 0 l115 -208 l59 -101 l4 0 q10 17 28 53 l141 256 l62 0 l-203 -355 l218 -374 l-65 0 l-123 218 q-45 79 -67 116 l-4 0 q-51 -98 -61 -116 l-122 -218 l-62 0 l217 377 Z" /><glyph glyph-name="" unicode="z" d="M54 35 l412 643 l-375 0 l0 51 l449 0 l0 -35 l-411 -642 l416 0 l0 -52 l-491 0 l0 35 Z" /><glyph glyph-name="" unicode="[" d="M108 784 l181 0 l0 -36 l-136 0 l0 -880 l136 0 l0 -36 l-181 0 l0 952 Z" /><glyph glyph-name="" unicode="]" d="M26 -132 l136 0 l0 880 l-136 0 l0 36 l181 0 l0 -952 l-181 0 l0 36 Z" /><glyph glyph-name="" unicode="_" d="M13 -85 l528 0 l0 -47 l-528 0 l0 47 Z" /><glyph glyph-name="" unicode="a" d="M218 -13 q-68 0 -110 36 q-45 40 -45 111 q0 87 82 135 q79 45 258 66 q4 161 -122 161 q-87 0 -168 -61 l-26 42 q103 70 202 70 q172 0 172 -209 l0 -338 l-49 0 l-6 68 l-2 0 q-99 -81 -186 -81 ZM230 36 q78 0 173 83 l0 173 q-153 -18 -220 -56 q-62 -36 -62 -99 q0 -101 109 -101 Z" /><glyph glyph-name="" unicode="b" d="M314 -13 q-78 0 -158 67 l-2 0 l-7 -54 l-47 0 l0 795 l58 0 l0 -228 l-3 -102 q97 82 180 82 q104 0 160 -74 q54 -72 54 -198 q0 -132 -71 -212 q-66 -76 -164 -76 ZM309 38 q79 0 128 65 q50 66 50 172 q0 221 -163 221 q-73 0 -166 -85 l0 -308 q74 -65 151 -65 Z" /><glyph glyph-name="" unicode="c" d="M300 -13 q-107 0 -174 73 q-70 76 -70 206 q0 129 74 207 q70 74 173 74 q83 0 156 -65 l-33 -40 q-57 54 -122 54 q-80 0 -133 -64 q-54 -65 -54 -166 q0 -102 51 -165 q51 -64 135 -64 q73 0 139 59 l28 -40 q-79 -69 -170 -69 Z" /><glyph glyph-name="" unicode="d" d="M277 -13 q-102 0 -161 72 q-60 75 -60 207 q0 125 71 205 q67 76 165 76 q77 0 159 -65 l-4 96 l0 217 l58 0 l0 -795 l-48 0 l-7 67 l-2 0 q-80 -80 -171 -80 ZM287 38 q79 0 160 84 l0 308 q-74 66 -149 66 q-77 0 -128 -66 q-52 -66 -52 -164 q0 -105 44 -166 q45 -62 125 -62 Z" /><glyph glyph-name="" unicode="e" d="M304 -13 q-106 0 -175 74 q-73 77 -73 205 q0 125 72 205 q67 76 162 76 q97 0 151 -65 q55 -66 55 -183 q0 -22 -3 -42 l-378 0 q2 -98 56 -159 q53 -62 139 -62 q76 0 142 46 l22 -43 q-83 -52 -170 -52 ZM443 303 q0 95 -41 145 q-40 49 -111 49 q-68 0 -116 -51 q-52 -54 -60 -143 l328 0 Z" /><glyph glyph-name="" unicode="f" d="M312 744 q-33 15 -63 15 q-82 0 -82 -117 l0 -109 l121 0 l0 -49 l-121 0 l0 -484 l-58 0 l0 484 l-74 0 l0 44 l74 5 l0 112 q0 163 137 163 q39 0 80 -18 l-14 -46 Z" /><glyph glyph-name="" unicode="g" d="M275 -254 q-100 0 -160 39 q-60 40 -60 107 q0 73 80 127 l0 5 q-48 28 -48 86 q0 55 59 99 l0 4 q-68 56 -68 145 q0 82 56 136 q55 53 135 53 q37 0 71 -14 l182 0 l0 -48 l-120 0 q55 -48 55 -128 q0 -82 -55 -135 q-53 -53 -133 -53 q-48 0 -86 22 q-42 -33 -42 -74 q0 -67 100 -67 l112 0 q178 0 178 -123 q0 -73 -69 -125 q-74 -56 -187 -56 ZM269 213 q54 0 92 40 q40 41 40 105 q0 64 -39 104 q-37 38 -93 38 q-56 0 -94 -38 q-39 -40 -39 -104 q0 -64 40 -105 q38 -40 93 -40 ZM282 -210 q83 0 139 41 q52 37 52 88 q0 78 -121 78 l-109 0 q-26 0 -67 9 q-66 -46 -66 -107 q0 -49 45 -79 q46 -30 127 -30 Z" /><glyph glyph-name="" unicode="h" d="M100 795 l58 0 l-1 -344 q96 96 182 96 q162 0 162 -206 l0 -341 l-58 0 l0 333 q0 162 -117 162 q-75 0 -168 -96 l0 -399 l-58 0 l0 795 Z" /><glyph glyph-name="" unicode="i" d="M100 533 l58 0 l0 -533 l-58 0 l0 533 ZM130 658 q-21 0 -35 13 q-14 13 -14 33 q0 48 49 48 q49 0 49 -48 q0 -20 -15 -33 q-14 -13 -34 -13 Z" /><glyph glyph-name="" unicode="l" d="M171 -13 q-71 0 -71 92 l0 716 l58 0 l0 -722 q0 -36 24 -36 q8 0 19 2 l9 -46 q-20 -6 -39 -6 Z" /><glyph glyph-name="" unicode="m" d="M100 533 l48 0 l7 -81 l2 0 q86 95 168 95 q115 0 147 -108 q100 108 180 108 q160 0 160 -206 l0 -341 l-58 0 l0 333 q0 162 -115 162 q-68 0 -154 -96 l0 -399 l-58 0 l0 333 q0 162 -115 162 q-70 0 -154 -96 l0 -399 l-58 0 l0 533 Z" /><glyph glyph-name="" unicode="n" d="M100 533 l48 0 l7 -81 l2 0 q97 95 182 95 q162 0 162 -206 l0 -341 l-58 0 l0 333 q0 162 -117 162 q-75 0 -168 -96 l0 -399 l-58 0 l0 533 Z" /><glyph glyph-name="" unicode="o" d="M297 -13 q-101 0 -169 73 q-72 78 -72 206 q0 129 72 207 q68 74 169 74 q101 0 169 -74 q72 -78 72 -207 q0 -128 -72 -206 q-68 -73 -169 -73 ZM297 37 q79 0 130 64 q51 64 51 165 q0 101 -51 166 q-51 64 -130 64 q-78 0 -129 -64 q-51 -65 -51 -166 q0 -101 51 -165 q50 -64 129 -64 Z" /><glyph glyph-name="" unicode="p" d="M100 533 l48 0 l7 -65 l2 0 q103 79 178 79 q104 0 160 -74 q54 -72 54 -198 q0 -132 -71 -212 q-66 -76 -164 -76 q-73 0 -157 65 l1 -290 l-58 0 l0 771 ZM309 38 q79 0 128 65 q50 66 50 172 q0 221 -163 221 q-70 0 -166 -85 l0 -308 q77 -65 151 -65 Z" /><glyph glyph-name="" unicode="q" d="M447 -35 l4 104 q-84 -82 -174 -82 q-102 0 -161 72 q-60 75 -60 207 q0 125 71 205 q67 76 165 76 q79 0 157 -64 l2 0 l7 50 l47 0 l0 -771 l-58 0 l0 203 ZM287 38 q79 0 160 84 l0 308 q-74 66 -149 66 q-77 0 -128 -66 q-52 -66 -52 -164 q0 -105 44 -166 q45 -62 125 -62 Z" /><glyph glyph-name="" unicode="r" d="M100 533 l48 0 l7 -99 l2 0 q61 113 151 113 q31 0 54 -12 l-12 -52 q-23 9 -49 9 q-90 0 -143 -134 l0 -358 l-58 0 l0 533 Z" /><glyph glyph-name="" unicode="s" d="M231 -13 q-108 0 -196 73 l31 42 q79 -67 168 -67 q58 0 91 30 q31 27 31 71 q0 68 -129 114 q-80 28 -113 53 q-54 39 -54 100 q0 61 46 101 q48 43 129 43 q84 0 155 -57 l-30 -40 q-64 48 -127 48 q-56 0 -87 -28 q-28 -25 -28 -64 q0 -39 39 -65 q22 -16 85 -39 q88 -33 117 -54 q55 -41 55 -109 q0 -64 -47 -107 q-51 -45 -136 -45 Z" /><glyph glyph-name="" unicode="t" d="M250 -13 q-137 0 -137 165 l0 332 l-83 0 l0 44 l85 5 l7 154 l49 0 l0 -154 l153 0 l0 -49 l-153 0 l0 -336 q0 -111 89 -111 q29 0 65 15 l14 -45 q-56 -20 -89 -20 Z" /><glyph glyph-name="" unicode="u" d="M253 -13 q-161 0 -161 205 l0 341 l58 0 l0 -334 q0 -160 116 -160 q79 0 166 104 l0 390 l58 0 l0 -533 l-49 0 l-5 88 l-3 0 q-88 -101 -180 -101 Z" /><glyph glyph-name="" unicode="v" d="M13 533 l63 0 l115 -327 q32 -99 53 -154 l4 0 q35 97 53 154 l116 327 l59 0 l-196 -533 l-69 0 l-198 533 Z" /><glyph glyph-name="" unicode="w" d="M26 533 l62 0 l93 -336 l34 -145 l5 0 q8 28 38 145 l95 336 l64 0 l95 -336 q23 -90 39 -145 l4 0 l37 145 l91 336 l57 0 l-150 -533 l-75 0 l-90 321 q-8 27 -20 76 q-13 52 -20 77 l-5 0 q-22 -96 -41 -155 l-87 -319 l-70 0 l-156 533 Z" /><glyph glyph-name="" unicode="x" d="M195 279 l-165 254 l64 0 l82 -131 q25 -41 57 -88 l4 0 l132 219 l61 0 l-165 -260 l180 -273 l-65 0 l-91 141 q-26 48 -61 97 l-5 0 l-146 -238 l-62 0 l180 279 Z" /><glyph glyph-name="" unicode="y" d="M85 -240 q-33 0 -57 11 l13 49 q22 -8 43 -8 q87 0 133 135 l14 45 l-218 541 l63 0 l180 -476 l5 0 l48 150 l109 326 l59 0 l-208 -595 q-62 -178 -184 -178 Z" /><glyph glyph-name="" unicode="z" d="M32 31 l307 453 l-274 0 l0 49 l349 0 l0 -31 l-307 -452 l317 0 l0 -50 l-392 0 l0 31 Z" /><glyph glyph-name="" unicode="©" d="M411 -12 q-148 0 -249 101 q-106 104 -106 268 q0 163 106 267 q101 99 249 99 q148 0 249 -99 q106 -104 106 -267 q0 -164 -106 -268 q-101 -101 -249 -101 ZM411 23 q130 0 220 92 q93 96 93 242 q0 145 -93 239 q-90 91 -220 91 q-130 0 -220 -91 q-94 -94 -94 -239 q0 -146 94 -242 q90 -92 220 -92 ZM417 138 q-83 0 -137 58 q-58 61 -58 161 q0 93 61 152 q57 56 139 56 q74 0 134 -62 l-28 -32 q-51 48 -105 48 q-66 0 -107 -45 q-41 -45 -41 -117 q0 -80 40 -127 q39 -47 105 -47 q63 0 124 54 l24 -35 q-71 -64 -151 -64 Z" /><glyph glyph-name="" unicode="&#x2014;" d="M45 300 l796 0 l0 -45 l-796 0 l0 45 Z" /><glyph glyph-name="" unicode="&#x2191;" d="M475 729 q-81 -108 -178 -180 l-27 42 q135 104 230 254 q95 -150 230 -254 l-27 -42 q-97 72 -178 180 l0 -809 l-50 0 l0 809 Z" /><glyph glyph-name="" unicode="&#x3001;" d="M284 -48 q-106 130 -225 224 l41 37 q106 -84 229 -223 l-45 -38 Z" /><glyph glyph-name="" unicode="&#x3002;" d="M195 242 q61 0 103 -43 q43 -43 43 -104 q0 -61 -43 -104 q-42 -43 -103 -43 q-61 0 -104 43 q-43 43 -43 104 q0 61 43 104 q43 43 104 43 ZM195 -13 q45 0 77 32 q31 31 31 76 q0 44 -31 76 q-32 32 -77 32 q-45 0 -76 -32 q-32 -32 -32 -76 q0 -45 32 -76 q31 -32 76 -32 Z" /><glyph glyph-name="" unicode="&#x3042;" d="M436 169 q128 116 191 284 q-10 1 -30 1 q-85 0 -180 -35 q-1 -21 -1 -62 q0 -86 20 -188 ZM237 69 q71 0 157 64 q-25 120 -25 222 q0 28 1 43 q-84 -43 -139 -117 q-57 -75 -57 -145 q0 -67 63 -67 ZM689 488 q95 -23 150 -87 q52 -61 52 -143 q0 -111 -78 -187 q-84 -82 -245 -108 l-30 45 q133 14 215 79 q86 68 86 174 q0 66 -42 115 q-45 52 -123 70 q-85 -210 -225 -331 q10 -41 23 -83 l-48 -15 q-8 27 -18 65 q-93 -64 -175 -64 q-48 0 -77 28 q-31 31 -31 85 q0 92 75 184 q70 86 174 133 q5 91 12 159 q-26 -1 -76 -1 q-77 0 -151 6 l-2 52 q70 -12 153 -12 q54 0 81 1 l10 90 q2 30 2 40 l58 -2 q-5 -12 -10 -38 q-9 -49 -13 -88 q202 10 352 42 l1 -52 q-168 -28 -359 -36 q-7 -78 -11 -142 q91 31 176 31 q16 0 46 -2 l9 29 q6 22 7 41 l55 -14 q-3 -6 -7 -19 l-16 -45 Z" /><glyph glyph-name="" unicode="&#x3044;" d="M205 686 q-4 -35 -6 -81 q-4 -118 8 -248 q14 -136 54 -215 q40 -80 97 -80 q78 0 133 205 l42 -43 q-76 -221 -176 -221 q-70 0 -121 77 q-59 90 -79 266 q-10 91 -10 261 q0 57 -5 81 l63 -2 ZM733 656 q143 -194 171 -473 l-52 -21 q-28 292 -169 476 l50 18 Z" /><glyph glyph-name="" unicode="&#x3046;" d="M737 338 q0 70 -51 113 q-51 43 -133 43 q-96 0 -277 -51 q-22 -6 -76 -26 l-18 62 q26 2 81 14 q213 50 294 50 q102 0 166 -54 q67 -56 67 -153 q0 -154 -125 -251 q-112 -88 -309 -120 l-32 49 q188 25 295 103 q118 85 118 221 ZM307 767 q185 -42 407 -47 l-9 -51 q-231 15 -407 47 l9 51 Z" /><glyph glyph-name="" unicode="&#x3048;" d="M314 774 q174 -41 384 -55 l-8 -49 q-186 17 -385 55 l9 49 ZM709 508 l-49 -40 l-198 -192 q18 4 36 1 q63 -3 86 -73 l16 -60 q12 -43 19 -64 q18 -58 95 -58 q103 0 183 23 l-3 -57 q-79 -15 -181 -15 q-115 0 -140 84 q-5 14 -18 62 q-12 46 -18 63 q-21 55 -64 55 q-42 0 -78 -34 q-128 -118 -215 -230 l-52 36 q23 18 38 34 q343 343 445 442 l-341 -28 q-33 -2 -76 -8 l-5 59 q23 -2 78 -2 q174 6 367 30 q28 4 42 10 l33 -38 Z" /><glyph glyph-name="" unicode="&#x304a;" d="M303 37 q37 0 37 53 l-3 205 q-70 -31 -115 -75 q-47 -44 -47 -82 q0 -38 46 -71 q43 -30 82 -30 ZM384 363 q123 43 234 43 q104 0 170 -52 q64 -52 64 -134 q0 -170 -206 -219 q-42 -9 -118 -12 l-19 51 q84 0 114 7 q76 13 124 53 q55 46 55 119 q0 67 -56 105 q-51 36 -128 36 q-117 0 -233 -46 q0 -41 2 -128 q2 -74 2 -100 q0 -101 -76 -101 q-55 0 -120 46 q-71 49 -71 105 q0 55 67 116 q59 55 147 93 l0 47 q0 48 2 158 q-52 -5 -84 -5 q-62 0 -119 5 l-2 52 q67 -9 120 -9 q24 0 86 4 q3 93 3 131 q0 33 -5 60 l58 0 q-2 -21 -4 -58 q0 -41 -3 -128 q133 17 215 43 l1 -52 q-88 -23 -217 -38 q-3 -82 -3 -159 l0 -33 ZM719 677 q139 -77 216 -147 l-28 -42 q-63 64 -214 150 l26 39 Z" /><glyph glyph-name="" unicode="&#x304b;" d="M425 772 q-1 -10 -8 -45 q-14 -97 -28 -163 q106 8 127 8 q151 0 151 -156 q0 -237 -59 -354 q-37 -78 -135 -78 q-51 0 -115 15 l-8 56 q66 -21 122 -21 q68 0 94 55 q50 109 50 321 q0 67 -31 94 q-24 21 -78 21 q-25 0 -129 -8 q-81 -324 -211 -534 l-54 22 q136 182 212 507 l-148 -14 l-76 -10 l-7 59 q40 -1 78 0 q11 0 165 12 q27 122 27 218 l61 -5 ZM766 659 q97 -119 185 -345 l-49 -25 q-73 223 -183 348 l47 22 Z" /><glyph glyph-name="" unicode="&#x304c;" d="M931 680 q-43 87 -85 138 l38 17 q47 -62 86 -137 l-39 -18 ZM823 642 q-37 79 -83 139 l39 17 q44 -61 83 -138 l-39 -18 ZM408 770 q-6 -28 -8 -44 q-14 -97 -29 -163 q106 8 127 8 q151 0 151 -156 q0 -239 -58 -355 q-37 -77 -135 -77 q-58 0 -116 15 l-8 56 q69 -22 123 -22 q67 0 94 56 q49 105 49 320 q0 68 -30 94 q-25 22 -79 22 q-25 0 -129 -8 q-77 -321 -211 -534 l-53 22 q133 177 213 507 l-149 -15 q-34 -3 -77 -9 l-6 59 q39 -1 78 0 q13 0 164 12 q27 122 28 218 l61 -6 ZM748 648 q98 -119 186 -344 l-49 -25 q-73 222 -183 346 l46 23 Z" /><glyph glyph-name="" unicode="&#x304d;" d="M273 256 q-23 -61 -23 -104 q0 -135 218 -135 q141 0 233 22 l-1 -53 q-103 -19 -229 -19 q-130 0 -200 44 q-71 45 -71 131 q0 47 23 118 l50 -4 ZM851 474 q-79 -26 -178 -45 q69 -146 93 -191 l-27 -33 q-77 12 -180 25 l5 41 l138 -16 q-27 56 -77 166 q-178 -26 -447 -10 l-2 49 q229 -21 429 5 l-67 153 q-169 -17 -353 1 l-3 49 q185 -21 338 -6 q-10 20 -21 47 q-13 31 -30 61 l59 13 q12 -41 41 -115 q112 16 202 47 l10 -48 q-85 -26 -194 -43 l17 -40 q25 -57 50 -112 q96 16 186 50 l11 -48 Z" /><glyph glyph-name="" unicode="&#x304f;" d="M685 745 q-9 -7 -29 -25 l-28 -25 q-59 -53 -296 -247 q-49 -42 -48 -64 q0 -23 52 -65 q235 -187 374 -328 l-45 -40 q-8 10 -28 30 q-21 21 -29 30 q-72 79 -322 283 q-66 54 -63 93 q3 35 68 91 q310 268 299 256 q30 30 45 55 l50 -44 Z" /><glyph glyph-name="" unicode="&#x3051;" d="M244 754 q-2 -6 -13 -54 q-76 -347 -25 -569 q16 59 54 171 l33 -19 q-51 -151 -62 -205 q-5 -25 -4 -42 l3 -29 l-43 -6 q-49 155 -49 310 q0 115 40 395 q4 27 4 54 l62 -6 ZM918 525 q-73 -15 -167 -21 l0 -29 q0 -221 -22 -298 q-40 -140 -185 -222 l-49 38 q50 21 85 52 q84 69 108 176 q14 67 14 254 l0 26 q-59 -4 -133 -4 q-95 0 -165 7 l0 54 q69 -12 165 -12 q73 0 132 4 q-3 99 -6 164 q-2 22 -9 53 l64 0 q-1 -3 -3 -52 q-1 -26 3 -162 q100 8 168 26 l0 -54 Z" /><glyph glyph-name="" unicode="&#x3053;" d="M247 686 q103 -13 257 -13 q119 0 255 14 l0 -52 q-156 -12 -255 -12 q-136 0 -257 11 l0 52 ZM263 298 q-22 -66 -22 -119 q0 -63 63 -100 q67 -38 189 -38 q223 0 334 38 l1 -54 q-114 -35 -334 -35 q-142 0 -222 45 q-83 47 -83 133 q0 56 21 136 l53 -6 Z" /><glyph glyph-name="" unicode="&#x3055;" d="M269 299 q-29 -64 -29 -128 q0 -151 225 -151 q137 0 255 27 l-1 -55 q-130 -22 -255 -22 q-131 0 -203 51 q-72 50 -72 138 q0 61 27 145 l53 -5 ZM838 610 q-97 -26 -198 -42 q101 -220 137 -291 l-33 -32 q-70 16 -193 26 l6 43 q91 -9 155 -18 q-104 223 -121 264 q-193 -23 -424 -3 l-2 53 q208 -27 405 -4 q-10 25 -39 88 q-19 44 -38 76 l59 12 q32 -83 69 -169 q102 15 207 49 l10 -52 Z" /><glyph glyph-name="" unicode="&#x3057;" d="M324 768 q-6 -34 -8 -80 q-12 -345 -12 -520 q0 -154 178 -154 q220 0 364 206 l36 -44 q-159 -214 -403 -214 q-226 0 -226 210 q0 82 6 273 q5 190 5 243 q0 54 -6 80 l66 0 Z" /><glyph glyph-name="" unicode="&#x3059;" d="M480 222 q49 0 76 36 q27 36 27 101 q-18 94 -104 94 q-46 0 -79 -32 q-34 -34 -34 -86 q0 -53 33 -84 q32 -29 81 -29 ZM921 647 l-1 -50 q-69 4 -279 4 l-35 0 l1 -90 q0 -56 1 -80 q30 -48 30 -122 q0 -259 -282 -346 l-46 44 q225 53 267 217 q-37 -48 -102 -48 q-68 0 -112 42 q-46 43 -46 116 q0 67 48 116 q48 49 113 49 q47 0 81 -20 l-1 122 q-278 -4 -452 -19 l-1 53 l452 12 q0 49 -2 85 q0 27 -5 49 l61 0 q-3 -24 -3 -49 q-1 -10 -1 -36 l-1 -48 l315 -1 Z" /><glyph glyph-name="" unicode="&#x305d;" d="M273 734 q30 -3 71 -3 q178 0 313 15 q26 3 45 8 l35 -37 q-15 -8 -39 -27 q-229 -192 -331 -273 q303 32 501 32 l0 -49 q-166 7 -248 -6 q-78 -12 -139 -71 q-65 -62 -65 -135 q0 -132 181 -160 q72 -10 138 -4 l-11 -52 q-175 -7 -267 47 q-91 54 -91 163 q0 67 48 128 q40 51 93 76 q-215 -19 -389 -47 l-5 49 l86 11 q70 9 82 10 q134 95 355 291 l-146 -8 q-123 -6 -145 -8 q-55 -4 -69 -6 l-3 56 Z" /><glyph glyph-name="" unicode="&#x305f;" d="M540 475 q78 8 175 8 q102 0 170 -8 l-2 -51 q-80 11 -165 11 q-92 0 -178 -10 l0 50 ZM596 598 q-107 -24 -213 -34 q-14 -67 -32 -134 q-73 -288 -154 -451 l-59 19 q86 149 163 442 q12 43 29 119 q-63 -5 -106 -5 q-63 0 -112 4 l-1 52 q57 -8 115 -8 q52 0 115 6 q14 71 19 104 q6 43 3 70 l64 -5 q-9 -35 -15 -70 l-19 -94 q110 13 203 38 l0 -53 ZM545 239 q-15 -52 -15 -93 q0 -46 31 -69 q42 -32 151 -32 q100 0 187 19 l-2 -54 q-91 -14 -186 -14 q-230 0 -230 140 q0 40 14 108 l50 -5 Z" /><glyph glyph-name="" unicode="&#x3060;" d="M795 576 q-37 76 -83 139 l38 17 q48 -68 83 -137 l-38 -19 ZM510 459 q78 8 175 8 q102 0 170 -8 l-2 -51 q-87 12 -165 12 q-84 0 -178 -11 l0 50 ZM566 582 q-107 -24 -213 -34 q-14 -67 -32 -134 q-73 -287 -154 -451 l-59 19 q86 149 163 442 q14 49 29 119 q-63 -5 -106 -5 q-63 0 -112 4 l-1 52 q50 -7 115 -7 q45 0 115 5 q14 71 19 104 q6 43 3 70 l64 -5 q-10 -36 -15 -69 l-19 -94 q117 14 203 37 l0 -53 ZM515 223 q-15 -52 -15 -93 q0 -46 31 -69 q42 -32 151 -32 q100 0 187 19 l-2 -54 q-91 -14 -186 -14 q-230 0 -230 140 q0 40 14 108 l50 -5 ZM855 770 q52 -69 87 -137 l-39 -18 q-41 81 -85 138 l37 17 Z" /><glyph glyph-name="" unicode="&#x3061;" d="M776 623 q-182 -34 -406 -43 q-40 -190 -72 -269 q126 99 296 99 q115 0 179 -53 q61 -50 61 -134 q0 -144 -140 -207 q-132 -59 -356 -35 l-14 52 q192 -25 318 18 q141 49 141 170 q0 64 -49 103 q-52 41 -144 41 q-201 0 -304 -121 q-15 -16 -32 -47 l-48 19 q68 135 116 363 l-22 0 q-85 0 -178 10 l0 52 q83 -15 177 -15 l32 0 q7 35 13 78 q5 45 4 71 l60 -3 q-10 -35 -15 -73 q-8 -46 -13 -71 q226 9 396 47 l0 -52 Z" /><glyph glyph-name="" unicode="&#x3063;" d="M174 387 q38 8 85 23 q260 83 346 83 q100 0 165 -55 q66 -58 66 -151 q0 -140 -129 -216 q-113 -67 -309 -79 l-21 51 q177 6 282 59 q126 63 126 186 q0 68 -50 113 q-51 45 -132 45 q-83 0 -406 -114 l-23 55 Z" /><glyph glyph-name="" unicode="&#x3066;" d="M97 650 q45 1 83 5 q209 23 437 42 q153 14 259 17 l0 -52 q-136 2 -195 -17 q-108 -38 -176 -143 q-61 -95 -61 -191 q0 -143 118 -216 q93 -57 236 -62 l-18 -52 q-149 4 -256 76 q-130 88 -130 243 q0 114 64 214 q57 91 142 136 q-469 -53 -497 -59 l-6 59 Z" /><glyph glyph-name="" unicode="&#x3067;" d="M726 519 q50 -70 85 -141 l-38 -18 q-38 79 -83 143 l36 16 ZM834 559 q50 -67 88 -141 l-37 -19 q-35 74 -86 143 l35 17 ZM88 642 q46 1 84 5 l170 17 q155 16 267 25 q181 15 259 17 l0 -53 q-136 2 -195 -17 q-108 -37 -176 -142 q-61 -95 -61 -191 q0 -144 118 -217 q92 -57 235 -62 l-18 -51 q-148 3 -256 76 q-129 87 -129 242 q0 115 63 215 q57 91 142 135 q-419 -43 -496 -59 l-7 60 Z" /><glyph glyph-name="" unicode="&#x3068;" d="M780 603 q-20 -12 -62 -35 q-271 -143 -316 -173 q-153 -100 -153 -212 q0 -68 62 -107 q66 -40 188 -40 q194 0 314 32 l-1 -58 q-126 -24 -310 -24 q-141 0 -219 45 q-86 49 -86 146 q0 139 175 255 q-55 96 -147 310 l52 22 q62 -168 137 -304 q58 35 155 86 q109 56 124 65 q44 27 58 39 l29 -47 Z" /><glyph glyph-name="" unicode="&#x3069;" d="M739 578 q-33 -20 -61 -34 q-267 -145 -291 -161 q-153 -100 -153 -212 q0 -68 62 -106 q66 -40 188 -40 q198 0 314 31 l0 -58 q-138 -24 -311 -24 q-141 0 -219 45 q-86 50 -86 147 q0 139 175 254 q-55 96 -147 310 l52 22 q60 -164 138 -304 q8 5 255 139 q45 27 57 38 l27 -47 ZM762 762 q53 -77 83 -139 l-38 -18 q-39 81 -83 140 l38 17 ZM868 799 q50 -66 85 -137 l-38 -18 q-46 89 -85 138 l38 17 Z" /><glyph glyph-name="" unicode="&#x306a;" d="M568 609 q-91 -24 -184 -37 q-84 -240 -218 -416 l-52 28 q130 149 217 382 q-48 -4 -107 -4 q-43 0 -111 2 l-4 52 q51 -6 116 -6 q68 0 122 5 q32 108 34 175 l60 -6 q-3 -10 -18 -73 q-13 -56 -23 -89 q86 11 166 38 l2 -51 ZM635 106 q0 39 -1 62 q-54 17 -113 17 q-60 0 -98 -25 q-38 -25 -38 -64 q0 -86 131 -86 q61 0 93 30 q26 26 26 66 ZM675 480 q-3 -38 -1 -95 l8 -184 q99 -35 204 -122 l-28 -44 q-89 79 -174 115 q1 -21 1 -56 q0 -57 -40 -93 q-45 -39 -124 -39 q-82 0 -130 31 q-55 34 -55 99 q0 64 57 102 q52 35 128 35 q56 0 111 -13 l-5 136 q-4 85 -5 128 l53 0 ZM694 641 q133 -59 224 -130 l-30 -44 q-69 64 -219 134 l25 40 Z" /><glyph glyph-name="" unicode="&#x306b;" d="M461 660 q179 -34 395 0 l0 -54 q-195 -24 -395 0 l0 54 ZM476 267 q-15 -55 -15 -95 q0 -100 183 -100 q133 0 243 26 l1 -55 q-100 -20 -241 -20 q-234 0 -234 140 q0 36 15 109 l48 -5 ZM252 742 l-14 -54 q-50 -243 -50 -389 q0 -77 11 -179 q25 72 62 168 l32 -24 q-58 -149 -70 -209 q-5 -25 -4 -43 l3 -31 l-47 -4 q-35 126 -35 316 q0 95 47 399 q5 35 5 55 l60 -5 Z" /><glyph glyph-name="" unicode="&#x306e;" d="M436 371 q40 131 56 282 q-146 -13 -245 -120 q-92 -100 -92 -218 q0 -95 40 -151 q34 -47 75 -47 q90 0 166 254 ZM495 32 q48 3 80 11 q110 23 182 95 q85 85 85 214 q0 123 -78 207 q-82 88 -219 95 q-20 -164 -59 -294 q-87 -300 -218 -300 q-62 0 -110 65 q-53 73 -53 186 q0 158 123 274 q124 117 298 117 q164 0 268 -104 q100 -100 100 -247 q0 -154 -100 -252 q-98 -96 -269 -116 l-30 49 Z" /><glyph glyph-name="" unicode="&#x306f;" d="M242 755 q-7 -19 -13 -53 q-51 -237 -51 -408 q0 -80 12 -178 q27 81 63 169 l31 -24 q-59 -155 -70 -208 q-5 -24 -4 -43 l3 -30 l-47 -4 q-35 133 -35 312 q0 111 47 418 q5 35 5 55 l59 -6 ZM690 147 q0 26 -1 43 q-54 18 -114 18 q-62 0 -102 -26 q-40 -25 -40 -64 q0 -41 36 -65 q37 -24 99 -24 q122 0 122 118 ZM907 50 q-87 82 -168 121 q1 -14 1 -40 q0 -150 -159 -150 q-95 0 -147 37 q-49 34 -49 96 q0 57 50 96 q54 42 145 42 q53 0 107 -13 q-10 217 -11 284 q-72 -2 -109 -2 q-62 0 -162 7 l0 49 q88 -8 164 -8 q37 0 107 2 q0 99 1 131 q0 34 -3 58 l60 0 q-5 -31 -6 -57 q-2 -31 -2 -129 q109 9 180 23 l0 -51 q-93 -14 -180 -20 q0 -31 12 -303 q87 -34 197 -130 l-28 -43 Z" /><glyph glyph-name="" unicode="&#x3078;" d="M70 264 q22 16 65 59 q20 20 199 245 q40 47 75 51 q39 3 84 -43 q20 -22 93 -107 q66 -78 103 -117 q155 -171 249 -254 l-39 -44 q-93 87 -244 255 q-34 38 -101 118 q-65 77 -87 101 q-35 35 -55 34 q-18 -2 -46 -37 q-149 -190 -193 -242 q-39 -45 -55 -67 l-48 48 Z" /><glyph glyph-name="" unicode="&#x3079;" d="M682 667 q61 -91 96 -160 l-42 -19 q-41 87 -94 161 l40 18 ZM808 715 q56 -75 99 -157 l-40 -19 q-57 106 -97 158 l38 18 ZM60 245 q28 20 65 59 q-5 -5 200 244 q39 48 75 51 q38 4 83 -43 q24 -26 93 -106 q68 -81 103 -118 q169 -183 249 -254 l-39 -44 q-79 75 -244 256 q-26 29 -101 118 q-61 73 -87 100 q-34 36 -55 35 q-18 -2 -46 -38 q-5 -7 -95 -120 q-66 -84 -98 -121 q-15 -16 -55 -68 l-48 49 Z" /><glyph glyph-name="" unicode="&#x307e;" d="M513 188 q-52 11 -103 11 q-79 0 -125 -27 q-42 -26 -42 -66 q0 -92 157 -92 q114 0 114 94 l-1 80 ZM826 21 q-124 112 -262 154 l2 -74 q0 -54 -33 -89 q-42 -44 -130 -44 q-208 0 -208 135 q0 64 59 102 q60 39 162 39 q47 0 95 -8 q-1 68 -5 159 q-19 -1 -58 -1 q-125 0 -255 14 l1 51 q114 -19 254 -19 q38 0 57 1 l0 165 q-17 -1 -51 -1 q-117 0 -243 15 l0 51 q100 -19 242 -19 l52 0 l0 76 q0 34 -2 54 l56 0 q-4 -32 -5 -64 l0 -64 q136 5 264 25 l0 -50 q-197 -18 -264 -22 l0 -165 q145 6 282 28 l0 -50 q-131 -19 -281 -24 q0 -28 6 -172 q149 -39 294 -157 l-29 -46 Z" /><glyph glyph-name="" unicode="&#x3081;" d="M431 273 q74 122 126 302 q-130 0 -242 -75 q42 -117 78 -179 q17 -31 33 -56 l5 8 ZM232 96 q72 0 164 125 q-22 33 -39 64 q-38 67 -82 185 q-126 -109 -126 -253 q0 -57 22 -89 q23 -32 61 -32 ZM651 765 l-14 -64 q-4 -23 -19 -84 q121 -17 196 -100 q76 -85 76 -209 q0 -141 -95 -231 q-92 -87 -256 -108 l-32 45 q153 14 241 91 q91 78 91 204 q0 104 -63 176 q-65 73 -171 87 q-65 -226 -142 -338 l-8 -12 q31 -44 64 -75 l-39 -33 q-26 29 -55 67 q-101 -135 -196 -135 q-56 0 -91 43 q-37 46 -37 125 q0 180 157 302 q-17 49 -32 98 q-20 64 -28 82 l55 17 l19 -83 q15 -50 27 -85 q123 76 265 76 l6 0 q11 39 19 85 q5 39 4 64 l58 -5 Z" /><glyph glyph-name="" unicode="&#x3082;" d="M751 417 q104 -106 104 -224 q0 -107 -88 -168 q-85 -58 -226 -58 q-101 0 -160 47 q-69 56 -69 167 q0 43 8 123 q-130 9 -217 37 l3 51 q85 -31 219 -40 q6 58 24 203 q-125 9 -221 34 l4 50 q98 -30 223 -37 q6 43 13 117 q3 30 0 59 l61 -4 q-7 -30 -10 -58 l-15 -116 l6 0 q122 0 206 12 l-1 -50 q-99 -9 -205 -9 l-12 0 q-15 -109 -25 -203 l25 0 q123 0 211 12 l-1 -51 q-91 -10 -205 -10 l-35 0 q-7 -79 -7 -113 q0 -171 179 -171 q120 0 191 47 q73 48 73 134 q0 118 -112 208 l59 11 Z" /><glyph glyph-name="" unicode="&#x3084;" d="M552 647 q-77 75 -129 113 l37 29 q76 -57 129 -110 l-37 -32 ZM230 705 q13 -29 33 -59 q24 -46 63 -125 q247 110 364 110 q96 0 152 -48 q55 -47 55 -126 q0 -82 -50 -130 q-56 -56 -167 -56 q-71 0 -145 28 l2 52 q68 -32 142 -32 q167 0 167 140 q0 53 -37 87 q-42 38 -120 38 q-111 0 -342 -105 l44 -95 q57 -127 148 -407 l-57 -16 q-69 251 -136 403 q-32 72 -43 94 q-28 -13 -112 -54 q-61 -30 -88 -42 l-27 56 q31 8 72 24 q44 17 134 59 q-36 75 -65 121 q-14 27 -41 62 l54 21 Z" /><glyph glyph-name="" unicode="&#x3089;" d="M337 769 q173 -56 376 -77 l-13 -50 q-204 27 -376 76 l13 51 ZM300 599 q-7 -38 -21 -153 q-15 -115 -21 -148 q143 134 338 134 q104 0 173 -56 q68 -56 68 -141 q0 -136 -126 -204 q-133 -72 -382 -52 l-15 53 q230 -26 355 36 q115 57 115 169 q0 65 -54 107 q-53 41 -136 41 q-206 0 -324 -140 q-15 -19 -25 -45 l-53 12 q39 166 51 394 l57 -7 Z" /><glyph glyph-name="" unicode="&#x308a;" d="M328 778 q-35 -122 -50 -317 q29 99 104 176 q85 88 179 88 q96 0 155 -90 q60 -92 60 -243 q0 -355 -409 -428 l-31 47 q388 57 388 380 q0 127 -41 203 q-45 84 -129 84 q-91 0 -175 -107 q-77 -99 -91 -205 q-8 -61 1 -131 l-51 -4 q-10 90 -10 152 q0 108 32 322 q7 48 8 75 l60 -2 Z" /><glyph glyph-name="" unicode="&#x308b;" d="M504 16 q47 0 92 8 q-9 67 -47 106 q-40 41 -105 41 q-38 0 -63 -19 q-26 -20 -26 -50 q0 -39 43 -63 q42 -23 106 -23 ZM735 699 l-48 -35 q-26 -20 -126 -107 l-155 -135 q73 26 160 26 q121 0 198 -64 q77 -64 77 -161 q0 -118 -93 -187 q-91 -67 -238 -67 q-97 0 -152 38 q-51 35 -51 92 q0 47 38 81 q39 35 100 35 q87 0 141 -55 q47 -48 58 -124 q147 51 147 188 q0 76 -67 127 q-67 52 -166 52 q-120 0 -208 -48 q-71 -38 -184 -147 l-39 39 l151 126 q103 86 126 106 q35 29 241 207 q-175 -10 -335 -16 q-38 -2 -57 -5 l-2 56 q29 -3 59 -3 q209 0 349 14 q26 2 40 7 l36 -40 Z" /><glyph glyph-name="" unicode="&#x3092;" d="M522 130 q4 84 4 174 q-182 -96 -182 -188 q0 -61 60 -84 q44 -16 140 -16 q126 0 263 22 l-1 -53 q-130 -16 -265 -16 q-247 0 -247 142 q0 122 230 242 l1 0 q-6 78 -98 78 q-95 0 -180 -75 q-21 -20 -90 -101 l-45 34 q164 163 233 321 q-20 -1 -58 -1 q-68 0 -160 5 l0 52 q77 -10 163 -10 q48 0 73 1 q26 73 30 128 l53 -4 q-17 -74 -32 -123 q175 7 315 31 l0 -50 q-145 -23 -332 -28 q-37 -95 -108 -183 q68 47 151 47 q51 0 87 -26 q37 -27 44 -73 q44 21 111 50 l98 43 q33 15 64 32 l22 -51 q-19 -5 -69 -25 q-140 -56 -225 -97 q0 -100 2 -198 l-52 0 Z" /><glyph glyph-name="" unicode="&#x30a2;" d="M522 545 q0 -236 -48 -348 q-59 -142 -231 -223 l-48 40 q42 12 80 38 q117 67 161 190 q32 89 32 241 q0 40 -3 62 l57 0 ZM918 675 q-11 -11 -21 -26 q-98 -169 -254 -277 l-44 36 q157 87 239 245 l-598 0 q-39 0 -109 -4 l0 61 q53 -8 109 -8 l595 0 q32 0 50 5 l33 -32 Z" /><glyph glyph-name="" unicode="&#x30a3;" d="M765 551 q-85 -93 -228 -183 l0 -365 q0 -56 3 -74 l-59 0 q4 24 4 74 l0 334 q-157 -87 -333 -140 l-29 50 q168 36 344 137 q177 103 257 204 l41 -37 Z" /><glyph glyph-name="" unicode="&#x30a4;" d="M847 726 q-123 -125 -271 -218 l0 -439 q0 -64 5 -92 l-62 0 q4 34 4 92 l0 408 q-177 -101 -394 -167 l-30 51 q239 60 443 185 q172 107 262 220 l43 -40 Z" /><glyph glyph-name="" unicode="&#x30a6;" d="M866 607 q-7 -17 -12 -48 q-30 -194 -101 -310 q-117 -199 -388 -273 l-42 47 q37 6 81 21 q197 58 297 220 q84 136 99 311 l-596 0 l0 -197 q0 -35 4 -51 l-57 0 q3 20 3 52 l0 177 q0 51 -3 72 q43 -5 88 -5 l226 0 l0 104 q0 33 -4 64 l61 0 q-5 -29 -5 -64 l0 -104 l254 0 q37 0 60 7 l35 -23 Z" /><glyph glyph-name="" unicode="&#x30a7;" d="M779 57 q34 0 62 3 l0 -55 q-40 2 -62 2 l-553 0 q-20 0 -66 -2 l0 55 q33 -3 66 -3 l247 0 l0 394 l-202 0 q-42 0 -63 -2 l0 53 q32 -3 63 -3 l462 0 q12 0 66 3 l0 -53 q-19 2 -66 2 l-210 0 l0 -394 l256 0 Z" /><glyph glyph-name="" unicode="&#x30a8;" d="M834 106 q14 0 76 5 l0 -59 q-26 3 -76 3 l-662 0 q-38 0 -82 -3 l0 59 q35 -5 82 -5 l298 0 l0 491 l-243 0 q-40 0 -78 -3 l0 57 q35 -4 78 -4 l552 0 q37 0 81 4 l0 -57 q-34 3 -81 3 l-256 0 l0 -491 l311 0 Z" /><glyph glyph-name="" unicode="&#x30aa;" d="M818 587 q30 0 75 5 l0 -56 q-57 3 -74 3 l-177 0 l6 -490 q0 -68 -79 -68 q-62 0 -152 6 l-4 54 q74 -12 146 -12 q39 0 39 39 q0 120 -4 416 q-167 -243 -455 -396 l-37 42 q312 154 472 409 l-364 0 q-22 0 -82 -4 l0 57 q50 -5 82 -5 l383 0 l-3 112 q-2 49 -8 73 l63 0 q-5 -42 -5 -73 l1 -112 l177 0 Z" /><glyph glyph-name="" unicode="&#x30ad;" d="M890 331 q-3 0 -81 -13 q-106 -16 -264 -42 l44 -212 q15 -62 25 -87 l-61 -13 q-10 65 -15 90 q-12 69 -42 214 q-146 -23 -287 -48 q-49 -8 -82 -17 l-12 60 q45 2 79 8 q62 7 293 45 l-45 225 l-235 -38 q-58 -11 -75 -15 l-11 61 q26 1 77 6 q90 11 234 34 l-24 114 q-6 30 -17 64 l58 11 q4 -31 10 -64 l22 -117 q221 36 251 42 l59 14 l11 -56 q-12 -1 -59 -9 l-252 -40 q21 -112 45 -224 l264 45 q56 10 79 18 l11 -56 Z" /><glyph glyph-name="" unicode="&#x30af;" d="M855 628 q-11 -19 -17 -43 q-48 -190 -179 -351 q-143 -176 -395 -266 l-45 43 q245 70 397 252 q129 155 170 336 l-371 0 q-104 -151 -254 -249 l-45 33 q220 129 316 347 q17 34 23 65 l60 -21 l-34 -64 q-17 -35 -36 -64 l313 0 q36 0 52 8 l45 -26 Z" /><glyph glyph-name="" unicode="&#x30b0;" d="M712 621 q36 0 52 8 l45 -27 q-10 -18 -17 -42 q-48 -192 -179 -351 q-143 -176 -395 -266 l-45 42 q243 70 397 253 q128 153 170 336 l-371 0 q-104 -151 -254 -249 l-45 33 q221 129 316 347 q17 34 23 64 l60 -20 q-12 -21 -34 -65 q-12 -24 -35 -63 l312 0 ZM757 789 q46 -66 83 -137 l-39 -18 q-32 68 -82 138 l38 17 ZM861 826 q48 -64 86 -136 l-39 -18 q-41 82 -84 137 l37 17 Z" /><glyph glyph-name="" unicode="&#x30b2;" d="M798 624 q-32 68 -82 138 l38 17 q46 -66 83 -137 l-39 -18 ZM804 568 q61 0 88 4 l0 -56 q-56 2 -88 2 l-185 0 q-21 -388 -300 -566 l-55 39 q38 13 73 41 q215 158 229 486 l-282 0 q-77 -142 -170 -216 l-51 30 q100 71 180 221 q37 69 56 141 q8 31 11 67 l63 -12 l-21 -64 q-24 -74 -44 -117 l496 0 ZM858 816 q52 -71 86 -136 l-39 -18 q-41 82 -84 137 l37 17 Z" /><glyph glyph-name="" unicode="&#x30b3;" d="M777 -1 q2 12 2 58 l-507 0 q-69 0 -104 -3 l0 60 q53 -5 103 -5 l508 0 l0 506 l-496 0 q-39 0 -102 -3 l0 59 q52 -5 101 -5 l485 0 q45 0 67 1 q-2 -42 -2 -68 l0 -516 q0 -63 3 -84 l-58 0 Z" /><glyph glyph-name="" unicode="&#x30b5;" d="M835 555 q55 0 80 5 l0 -57 q-12 3 -80 3 l-132 0 l0 -36 q0 -214 -55 -319 q-59 -114 -221 -187 l-43 41 q143 59 200 143 q69 103 69 315 l0 43 l-313 0 l0 -177 q0 -66 4 -82 l-58 0 l2 30 q2 31 2 52 l0 177 l-182 -1 l-35 -2 l0 57 q20 -5 95 -5 l122 0 l0 145 q0 46 -4 62 l58 0 l-2 -20 q-2 -22 -2 -41 l0 -146 l313 0 l0 137 q0 23 -2 50 l-2 25 l59 0 q-5 -20 -5 -75 l0 -137 l132 0 Z" /><glyph glyph-name="" unicode="&#x30b6;" d="M809 601 q-28 79 -61 141 l36 12 q34 -61 63 -140 l-38 -13 ZM815 536 q51 0 81 5 l0 -57 q-12 3 -81 3 l-131 0 l0 -36 q0 -213 -55 -319 q-60 -114 -221 -187 l-44 41 q144 58 201 143 q69 103 69 314 l0 44 l-313 0 l0 -177 q0 -19 2 -51 l1 -31 l-58 0 q5 20 5 82 l0 177 l-183 -1 l-34 -2 l0 57 q15 -5 95 -5 l122 0 l0 145 q0 18 -2 40 l-2 22 l58 0 q-4 -16 -4 -61 l0 -146 l313 0 l0 137 q0 55 -5 75 l60 0 q-5 -20 -5 -75 l0 -137 l131 0 ZM882 784 q32 -60 63 -140 l-38 -13 q-37 99 -62 141 l37 12 Z" /><glyph glyph-name="" unicode="&#x30b8;" d="M708 734 q59 -84 95 -157 l-40 -19 q-40 86 -93 158 l38 18 ZM834 781 q52 -66 98 -155 l-40 -19 q-43 88 -96 156 l38 18 ZM285 746 q110 -64 211 -141 l-31 -43 q-88 71 -209 141 l29 43 ZM155 28 q184 32 333 118 q244 141 373 362 l31 -51 q-134 -213 -377 -356 q-137 -82 -330 -125 l-30 52 ZM136 522 q127 -67 214 -131 l-29 -45 q-110 80 -213 133 l28 43 Z" /><glyph glyph-name="" unicode="&#x30b9;" d="M780 664 q-13 -18 -18 -33 q-67 -172 -175 -304 q151 -130 299 -306 l-43 -38 q-136 172 -289 306 q-193 -207 -400 -299 l-40 43 q221 88 413 303 q131 148 176 298 l-419 0 q-19 0 -56 -2 l-35 -2 l0 59 q30 -5 91 -5 l405 0 q39 0 58 6 l33 -26 Z" /><glyph glyph-name="" unicode="&#x30bf;" d="M857 642 q-10 -18 -17 -42 q-48 -168 -152 -313 q53 -33 98 -65 l-35 -45 q-21 17 -95 68 q-154 -185 -406 -277 l-46 41 q243 71 408 264 q-117 75 -238 142 l32 37 q101 -52 238 -137 q103 141 144 298 l-372 0 q-109 -158 -265 -264 l-43 33 q225 138 322 356 q17 31 24 65 l59 -20 l-34 -64 q-15 -30 -33 -59 l313 0 q34 0 53 8 l45 -26 Z" /><glyph glyph-name="" unicode="&#x30c0;" d="M723 637 q33 0 52 8 l45 -26 q-11 -19 -17 -43 q-45 -166 -152 -312 q53 -33 98 -65 l-34 -45 q-43 34 -96 68 q-154 -185 -406 -277 l-45 41 q243 71 407 264 q-129 83 -238 142 l33 37 q101 -52 238 -137 q105 141 143 298 l-372 0 q-107 -157 -264 -264 l-44 33 q226 139 323 356 q17 34 23 65 l59 -20 l-34 -64 q-15 -30 -33 -59 l314 0 ZM757 797 q45 -64 83 -137 l-39 -18 q-35 73 -82 138 l38 17 ZM861 834 q48 -64 86 -136 l-39 -18 q-41 82 -84 137 l37 17 Z" /><glyph glyph-name="" unicode="&#x30c1;" d="M833 440 q33 0 73 4 l0 -55 q-28 3 -71 3 l-293 0 q-4 -151 -64 -250 q-60 -99 -191 -173 l-49 36 q243 115 254 387 l-310 0 q-52 0 -87 -3 l0 56 q48 -5 85 -5 l313 0 l0 207 q-122 -13 -306 -15 l-13 49 q149 -8 334 16 q183 24 260 56 l35 -46 l-43 -12 q-121 -28 -217 -42 l0 -213 l290 0 Z" /><glyph glyph-name="" unicode="&#x30c3;" d="M471 565 q56 -136 76 -213 l-47 -18 q-23 101 -77 215 l48 16 ZM829 519 l-12 -35 q-43 -191 -144 -317 q-125 -157 -321 -231 l-43 44 q196 59 322 214 q115 142 143 342 l55 -17 ZM238 516 q35 -75 90 -224 l-48 -18 q-44 144 -89 223 l47 19 Z" /><glyph glyph-name="" unicode="&#x30c6;" d="M305 671 q-47 0 -82 -3 l0 56 q43 -5 80 -5 l407 0 q42 0 85 5 l0 -56 q-40 3 -85 3 l-405 0 ZM837 472 q37 0 71 3 l0 -54 q-40 2 -71 2 l-289 0 q-3 -186 -57 -284 q-60 -106 -194 -176 l-48 36 q133 57 193 159 q51 84 55 265 l-314 0 q-54 0 -81 -2 l0 54 q39 -3 81 -3 l654 0 Z" /><glyph glyph-name="" unicode="&#x30c7;" d="M827 651 q-32 68 -82 138 l38 17 q46 -66 83 -137 l-39 -18 ZM295 664 q-47 0 -82 -3 l0 56 q43 -5 80 -5 l358 0 q52 0 84 5 l0 -56 q-39 3 -84 3 l-356 0 ZM828 464 q39 0 70 4 l0 -54 q-40 2 -70 2 l-289 0 q-3 -184 -58 -284 q-62 -109 -194 -176 l-48 36 q133 57 193 159 q51 84 55 265 l-313 0 q-41 0 -82 -3 l0 55 q52 -4 82 -4 l654 0 ZM887 843 q52 -71 86 -136 l-39 -18 q-39 78 -84 137 l37 17 Z" /><glyph glyph-name="" unicode="&#x30c8;" d="M813 274 q-169 93 -411 167 l1 -357 q0 -71 5 -106 l-62 0 q5 34 5 106 l0 585 q0 52 -6 95 l63 0 q-6 -56 -6 -95 l0 -173 q240 -73 433 -169 l-22 -53 Z" /><glyph glyph-name="" unicode="&#x30c9;" d="M692 536 q-36 78 -89 151 l38 18 q56 -77 91 -150 l-40 -19 ZM370 484 q229 -69 432 -170 l-22 -53 q-167 93 -410 167 l1 -356 q0 -70 4 -107 l-61 0 q4 37 4 107 l0 585 q0 60 -6 94 l64 0 q-6 -54 -6 -94 l0 -173 ZM756 753 q51 -68 94 -149 l-40 -20 q-42 86 -92 150 l38 19 Z" /><glyph glyph-name="" unicode="&#x30ca;" d="M843 526 q55 0 73 3 l0 -54 q-12 1 -74 1 l-289 0 l0 -20 q0 -330 -272 -483 l-51 38 q271 130 271 445 l0 20 l-314 0 q-69 0 -83 -2 l0 56 q28 -4 81 -4 l316 0 l0 149 q0 56 -7 89 l65 0 q-6 -42 -6 -89 l0 -149 l290 0 Z" /><glyph glyph-name="" unicode="&#x30d0;" d="M757 768 q51 -71 83 -137 l-39 -18 q-35 73 -82 138 l38 17 ZM861 806 q57 -78 86 -136 l-38 -19 q-41 81 -85 138 l37 17 ZM233 294 q75 175 100 366 l56 -11 q-4 -11 -15 -57 q-49 -214 -94 -320 q-62 -146 -148 -268 l-52 22 q84 110 153 268 ZM725 343 q-83 205 -145 309 l50 18 q76 -141 145 -310 q70 -167 122 -338 l-54 -17 q-33 126 -118 338 Z" /><glyph glyph-name="" unicode="&#x30d3;" d="M766 613 q-35 73 -82 138 l38 17 q52 -75 83 -137 l-39 -18 ZM259 131 q0 -40 17 -57 q15 -15 55 -24 q59 -9 143 -9 q220 0 338 31 l0 -59 q-143 -21 -340 -21 q-104 0 -155 9 q-57 10 -81 35 q-28 27 -28 84 l0 553 q0 38 -6 68 l61 0 q-4 -40 -4 -68 l0 -248 q226 53 400 128 q50 23 76 41 l24 -53 l-81 -35 q-155 -65 -419 -134 l0 -241 ZM827 805 q55 -76 85 -136 l-38 -18 q-44 84 -84 137 l37 17 Z" /><glyph glyph-name="" unicode="&#x30d4;" d="M259 131 q0 -40 17 -57 q15 -15 55 -24 q59 -9 143 -9 q220 0 338 31 l0 -59 q-143 -21 -340 -21 q-104 0 -155 9 q-57 10 -81 35 q-28 27 -28 84 l0 553 q0 38 -6 68 l61 0 q-4 -40 -4 -68 l0 -248 q226 53 400 128 q50 23 76 41 l24 -53 l-81 -35 q-155 -65 -419 -134 l0 -241 ZM821 619 q29 0 50 21 q21 21 21 50 q0 29 -21 51 q-21 21 -50 21 q-29 0 -50 -21 q-21 -22 -21 -51 q0 -29 21 -50 q21 -21 50 -21 ZM821 798 q44 0 76 -31 q32 -32 32 -77 q0 -44 -32 -76 q-32 -31 -76 -31 q-45 0 -76 31 q-32 32 -31 76 q0 45 31 77 q31 31 76 31 Z" /><glyph glyph-name="" unicode="&#x30d5;" d="M844 664 q-6 -13 -10 -38 q-46 -241 -149 -372 q-146 -187 -388 -262 l-44 48 q250 65 389 245 q109 142 138 351 l-538 0 q-50 0 -88 -3 l0 58 q52 -6 89 -6 l524 0 q25 0 39 4 l38 -25 Z" /><glyph glyph-name="" unicode="&#x30d6;" d="M836 649 q-7 -16 -11 -38 q-46 -240 -148 -372 q-148 -187 -389 -262 l-44 48 q250 65 389 245 q111 144 139 351 l-539 0 q-49 0 -88 -3 l0 58 q52 -6 89 -6 l524 0 q25 0 39 4 l39 -25 ZM876 850 q44 -62 83 -132 l-39 -17 q-55 97 -83 132 l39 17 ZM753 825 q44 -63 82 -132 l-39 -19 q-35 71 -81 134 l38 17 Z" /><glyph glyph-name="" unicode="&#x30d7;" d="M877 639 q29 0 50 20 q21 21 21 50 q0 29 -21 51 q-21 21 -50 21 q-29 0 -50 -21 q-21 -22 -21 -51 q0 -29 21 -50 q21 -20 50 -20 ZM777 670 q-7 17 -7 39 q0 45 31 77 q31 31 76 31 q44 0 76 -31 q32 -32 32 -77 q0 -44 -32 -76 q-32 -31 -76 -31 q-27 0 -51 13 l-1 -4 q-46 -240 -148 -372 q-148 -187 -389 -262 l-44 48 q250 65 389 245 q111 144 139 351 l-539 0 q-49 0 -88 -3 l0 58 q52 -6 89 -6 l543 0 Z" /><glyph glyph-name="" unicode="&#x30d9;" d="M680 669 q53 -73 95 -157 l-41 -19 q-40 88 -93 158 l39 18 ZM806 718 q54 -72 97 -156 l-40 -20 q-47 95 -96 157 l39 19 ZM64 251 q31 27 64 60 q-4 -4 200 238 q38 45 69 48 q32 3 81 -37 q56 -45 208 -209 q170 -183 240 -265 l-41 -44 q-41 54 -232 267 q-139 154 -201 206 q-35 28 -50 26 q-17 -1 -45 -35 l-97 -120 q-67 -83 -95 -115 l-54 -67 l-47 47 Z" /><glyph glyph-name="" unicode="&#x30da;" d="M693 593 q0 -33 23 -56 q24 -23 56 -23 q33 0 56 23 q23 23 23 56 q0 33 -23 56 q-23 23 -56 23 q-32 0 -56 -23 q-23 -23 -23 -56 ZM656 593 q0 48 34 82 q34 34 82 34 q49 0 83 -34 q34 -34 34 -82 q0 -48 -34 -82 q-34 -34 -83 -34 q-48 0 -82 34 q-34 34 -34 82 ZM64 251 q31 27 64 60 q-4 -4 200 238 q38 45 69 48 q32 3 81 -37 q56 -45 208 -209 q170 -183 240 -265 l-41 -44 q-41 54 -232 267 q-139 154 -201 206 q-35 28 -50 26 q-17 -1 -45 -35 l-97 -120 q-67 -83 -95 -115 l-54 -67 l-47 47 Z" /><glyph glyph-name="" unicode="&#x30db;" d="M336 386 q-68 -140 -192 -272 l-46 31 q116 106 193 263 l45 -22 ZM542 547 l0 -496 q0 -71 -75 -71 q-69 0 -130 7 l-4 53 q66 -12 118 -12 q40 0 40 40 l0 479 l-292 0 q-40 0 -79 -3 l0 56 q36 -4 78 -4 l293 0 l0 116 q0 36 -6 62 l61 0 q-4 -28 -4 -62 l0 -116 l283 0 q40 0 72 4 l0 -54 q-24 1 -71 1 l-284 0 ZM746 406 q85 -99 175 -261 l-48 -27 q-86 168 -170 264 l43 24 Z" /><glyph glyph-name="" unicode="&#x30e0;" d="M869 -27 q-22 61 -60 137 q-451 -54 -641 -71 q-32 -3 -77 -9 l-10 60 q37 -1 84 2 l63 5 q81 197 193 572 q15 58 17 85 l65 -14 q-26 -68 -30 -81 q-104 -350 -187 -557 q261 23 499 55 q-75 144 -132 219 l47 22 q145 -209 222 -401 l-53 -24 Z" /><glyph glyph-name="" unicode="&#x30e1;" d="M790 724 l-27 -63 q-66 -180 -160 -307 q176 -150 252 -235 l-40 -42 q-91 104 -244 235 q-182 -221 -404 -331 l-44 39 q236 113 407 326 q-157 128 -289 208 l33 40 q169 -110 288 -207 q93 127 151 294 q13 35 19 63 l58 -20 Z" /><glyph glyph-name="" unicode="&#x30e5;" d="M785 74 q31 0 67 2 l0 -52 q-16 1 -64 1 l-561 0 q-24 0 -74 -2 l0 54 q35 -3 74 -3 l385 0 q47 260 51 367 l-345 0 q-25 0 -69 -2 l0 55 q44 -4 68 -4 l332 0 q27 0 35 4 l40 -19 q-5 -17 -5 -24 q-11 -110 -54 -377 l120 0 Z" /><glyph glyph-name="" unicode="&#x30e9;" d="M863 484 q-8 -14 -11 -23 q-41 -175 -144 -288 q-130 -141 -358 -204 l-40 46 q220 44 355 188 q96 102 128 250 l-559 0 q-38 0 -86 -3 l0 57 q48 -6 86 -6 l546 0 q30 0 45 6 l38 -23 ZM236 731 q33 -4 81 -4 l399 0 q51 0 80 4 l0 -55 q-22 2 -81 2 l-398 0 q-29 0 -81 -2 l0 55 Z" /><glyph glyph-name="" unicode="&#x30ea;" d="M296 741 q-3 -25 -3 -69 l0 -332 q0 -47 3 -70 l-60 0 q4 28 4 70 l0 332 q0 46 -4 69 l60 0 ZM760 748 q-3 -33 -3 -78 l0 -141 q0 -183 -22 -270 q-20 -74 -76 -144 q-72 -91 -235 -147 l-42 44 q159 44 238 138 q53 63 70 145 q15 72 15 235 l0 140 q0 41 -5 78 l60 0 Z" /><glyph glyph-name="" unicode="&#x30eb;" d="M81 20 q128 90 177 249 q30 98 30 407 q0 33 -6 61 l60 0 q-4 -32 -4 -61 q0 -307 -31 -422 q-47 -163 -178 -267 l-48 33 ZM536 21 q6 20 6 46 l0 608 q0 23 -4 67 l59 0 q-3 -16 -3 -67 l0 -609 q203 94 318 267 l31 -44 q-126 -172 -343 -279 q-13 -6 -29 -19 l-35 30 Z" /><glyph glyph-name="" unicode="&#x30ed;" d="M210 619 l0 -511 l584 0 l0 511 l-584 0 ZM846 110 q0 -80 2 -110 l-56 0 q-1 -6 2 59 l-584 0 q3 -71 2 -59 l-55 0 q2 34 2 109 l0 496 q0 44 -1 66 q38 -2 80 -2 l528 0 q55 0 82 2 q-2 -22 -2 -66 l0 -495 Z" /><glyph glyph-name="" unicode="&#x30f3;" d="M219 716 q139 -92 252 -203 l-39 -39 q-132 129 -248 205 l35 37 ZM157 44 q220 34 409 156 q216 141 315 356 l31 -53 q-120 -221 -316 -347 q-189 -122 -406 -164 l-33 52 Z" /><glyph glyph-name="" unicode="&#x30fb;" d="M406 380 q0 39 28 67 q27 27 66 27 q39 0 67 -27 q27 -28 27 -67 q0 -39 -27 -66 q-28 -28 -67 -28 q-39 0 -66 28 q-28 27 -28 66 Z" /><glyph glyph-name="" unicode="&#x30fc;" d="M108 415 q52 -4 127 -4 l554 0 q62 0 102 4 l0 -62 q-54 3 -101 3 l-555 0 q-86 0 -127 -3 l0 62 Z" /><glyph glyph-name="" unicode="&#x2f00;&#x4e00;" d="M955 417 l0 -53 l-906 0 l0 53 l906 0 Z" /><glyph glyph-name="" unicode="&#x4e0a;" d="M944 22 l0 -48 l-887 0 l0 48 l384 0 l0 794 l50 0 l0 -320 l385 0 l0 -47 l-385 0 l0 -427 l453 0 Z" /><glyph glyph-name="" unicode="&#x4e0e;" d="M684 178 l-620 0 l0 46 l620 0 l0 -46 ZM875 432 q-1 -18 -2 -25 q-41 -384 -103 -442 q-25 -24 -79 -27 q-68 -2 -174 7 q-2 26 -17 46 q77 -7 179 -7 q38 0 51 11 q55 46 92 392 l-652 0 q47 160 99 421 l47 -6 q-4 -23 -25 -117 l576 0 l0 -47 l-586 0 q-27 -125 -49 -206 l643 0 Z" /><glyph glyph-name="" unicode="&#x4e2d;" d="M845 309 l0 295 l-323 0 l0 -295 l323 0 ZM473 309 l0 295 l-323 0 l0 -295 l323 0 ZM894 651 l0 -450 l-49 0 l0 61 l-323 0 l0 -334 l-49 0 l0 334 l-323 0 l0 -66 l-47 0 l0 455 l370 0 l0 181 l49 0 l0 -181 l372 0 Z" /><glyph glyph-name="" unicode="&#x4e3b;" d="M569 631 q-55 73 -177 169 l37 26 q117 -85 180 -167 l-40 -28 ZM944 10 l0 -48 l-883 0 l0 48 l414 0 l0 276 l-323 0 l0 47 l323 0 l0 247 l-366 0 l0 47 l784 0 l0 -47 l-368 0 l0 -247 l330 0 l0 -47 l-330 0 l0 -276 l419 0 Z" /><glyph glyph-name="" unicode="&#x4e4c;" d="M764 144 l-702 0 l0 44 l702 0 l0 -44 ZM909 365 q0 -18 -1 -25 q-23 -340 -64 -383 q-20 -21 -65 -24 q-53 -4 -144 4 q-2 25 -15 45 q62 -5 144 -5 q28 -2 40 10 q34 32 56 332 l-659 0 l0 411 l191 0 q37 65 53 109 l49 -11 q-33 -65 -54 -98 l366 0 l-2 -25 q-17 -199 -47 -227 q-17 -17 -58 -20 q-72 0 -121 4 q-2 21 -12 42 q52 -5 118 -5 q26 0 35 9 q22 23 35 176 l-506 0 l0 -319 l661 0 Z" /><glyph glyph-name="" unicode="&#x4e8b;" d="M797 215 l-276 0 l0 -92 l276 0 l0 92 ZM521 257 l276 0 l0 86 l-276 0 l0 -86 ZM473 507 l0 86 l-248 0 l0 -86 l248 0 ZM521 593 l0 -86 l261 0 l0 86 l-261 0 ZM948 215 l-104 0 l0 -178 l-47 0 l0 46 l-276 0 l0 -89 q0 -50 -38 -62 q-28 -8 -162 -8 q-5 20 -18 44 q98 -3 145 0 q25 1 25 25 l0 90 l-335 0 l0 40 l335 0 l0 92 l-417 0 l0 42 l417 0 l0 86 l-325 0 l0 40 l325 0 l0 86 l-295 0 l0 163 l295 0 l0 70 l-400 0 l0 42 l400 0 l0 88 l48 0 l0 -88 l410 0 l0 -42 l-410 0 l0 -70 l309 0 l0 -163 l-309 0 l0 -86 l323 0 l0 -126 l104 0 l0 -42 Z" /><glyph glyph-name="" unicode="&#x2f06;&#x4e8c;" d="M856 687 l0 -50 l-711 0 l0 50 l711 0 ZM942 87 l0 -51 l-883 0 l0 51 l883 0 Z" /><glyph glyph-name="" unicode="&#x4e94;" d="M427 395 q-49 -288 -65 -362 l321 0 q24 212 35 362 l-291 0 ZM942 33 l0 -47 l-884 0 l0 47 l253 0 q21 96 67 362 l-198 0 l0 46 l206 0 q-3 -17 36 244 l-297 0 l0 47 l742 0 l0 -47 l-396 0 q-27 -183 -37 -244 l292 0 l9 3 l36 -4 q-11 -161 -39 -407 l210 0 Z" /><glyph glyph-name="" unicode="&#x4ea4;" d="M501 696 q-21 56 -73 129 l45 16 q51 -71 74 -127 l-46 -18 ZM925 641 l-852 0 l0 47 l852 0 l0 -47 ZM668 594 q173 -114 260 -219 l-40 -31 q-86 108 -258 224 l38 26 ZM377 578 q-97 -123 -257 -231 q-32 33 -38 37 q156 94 250 212 l45 -18 ZM711 415 q-58 -154 -171 -263 q163 -131 415 -173 q-19 -19 -31 -45 q-255 50 -420 186 q-156 -128 -425 -196 q-11 24 -30 45 q268 58 420 183 q-111 106 -172 257 l44 15 q55 -139 163 -241 q107 103 159 246 l48 -14 Z" /><glyph glyph-name="" unicode="&#x2f08;&#x4eba;" d="M529 828 q-3 -107 -6 -137 q78 -559 433 -717 q-21 -16 -35 -39 q-314 144 -418 607 q-81 -442 -413 -610 q-12 17 -37 35 q416 203 425 861 l51 0 Z" /><glyph glyph-name="" unicode="&#x4ed5;" d="M358 816 q-49 -116 -113 -219 l0 -668 l-47 0 l0 599 q-70 -96 -138 -162 q-15 25 -33 43 q182 161 286 420 l45 -13 ZM653 461 l0 -444 l291 0 l0 -47 l-613 0 l0 47 l274 0 l0 444 l-297 0 l0 46 l297 0 l0 312 l48 0 l0 -312 l308 0 l0 -46 l-308 0 Z" /><glyph glyph-name="" unicode="&#x4ed8;" d="M358 812 q-46 -118 -112 -229 l0 -654 l-48 0 l0 580 q-61 -89 -121 -147 q-9 20 -31 44 q169 163 266 420 l46 -14 ZM944 559 l-135 0 l0 -555 q0 -59 -47 -71 q-34 -10 -203 -8 q-7 23 -21 49 q135 -4 192 -2 q31 3 31 31 l0 556 l-419 0 l0 48 l419 0 l0 214 l48 0 l0 -214 l135 0 l0 -48 ZM571 158 q-56 109 -156 256 l41 20 q103 -149 158 -249 l-43 -27 Z" /><glyph glyph-name="" unicode="&#x4f01;" d="M534 3 l398 0 l0 -45 l-848 0 l0 45 l137 0 l0 383 l47 0 l0 -383 l217 0 l0 566 l49 0 l0 -243 l303 0 l0 -45 l-303 0 l0 -278 ZM550 822 q-7 -12 -23 -34 q149 -187 436 -327 q-20 -15 -32 -39 q-274 139 -429 331 q-168 -215 -424 -329 q-14 22 -34 38 q306 130 464 379 l42 -19 Z" /><glyph glyph-name="" unicode="&#x4f1a;" d="M91 327 l824 0 l0 -47 l-450 0 q-119 -162 -230 -266 l516 45 q-66 79 -132 139 l40 21 q155 -138 230 -264 l-43 -27 q-22 37 -60 87 q-599 -53 -629 -64 q-9 34 -17 52 q23 4 73 54 q82 73 187 223 l-309 0 l0 47 ZM743 518 l0 -45 l-481 0 l0 45 l481 0 ZM558 810 l-27 -37 q168 -191 423 -283 q-16 -16 -34 -43 q-245 98 -417 291 q-153 -182 -415 -303 q-16 24 -36 39 q326 146 457 356 l49 -20 Z" /><glyph glyph-name="" unicode="&#x4f1d;" d="M885 704 l-495 0 l0 46 l495 0 l0 -46 ZM328 816 q-42 -115 -105 -228 l0 -659 l-47 0 l0 582 q-47 -72 -105 -137 q-25 38 -30 43 q151 159 242 411 l45 -12 ZM898 -60 q-24 58 -53 114 q-472 -51 -500 -63 q-4 20 -17 49 q18 3 63 72 q82 119 154 295 l-225 0 l0 46 l621 0 l0 -46 l-339 0 q-98 -218 -194 -353 l416 42 q-59 113 -94 173 l41 17 q107 -181 171 -324 l-44 -22 Z" /><glyph glyph-name="" unicode="&#x4f53;" d="M314 817 q-38 -111 -95 -223 l0 -666 l-46 0 l0 585 q-43 -71 -100 -139 q-8 16 -30 43 q141 156 226 412 l45 -12 ZM676 571 q104 -300 286 -434 q-14 -12 -37 -39 q-181 148 -289 463 l0 -393 l176 0 l0 -45 l-176 0 l0 -192 l-47 0 l0 192 l-184 0 l0 45 l184 0 l0 392 q-112 -314 -294 -464 q-13 20 -35 35 q179 137 291 440 l-261 0 l0 46 l299 0 l0 214 l47 0 l0 -214 l312 0 l0 -46 l-272 0 Z" /><glyph glyph-name="" unicode="&#x4f5c;" d="M352 815 q-46 -116 -107 -218 l0 -669 l-49 0 l0 592 q-62 -88 -120 -146 q-14 28 -30 44 q163 156 260 411 l46 -14 ZM629 617 l0 -168 l304 0 l0 -45 l-304 0 l0 -175 l318 0 l0 -46 l-318 0 l0 -256 l-48 0 l0 690 l-87 0 q-69 -129 -149 -218 q-25 22 -38 31 q139 146 225 389 l45 -12 q-30 -83 -61 -144 l437 0 l0 -46 l-324 0 Z" /><glyph glyph-name="" unicode="&#x4f73;" d="M604 644 l-227 0 l0 46 l227 0 l0 143 l48 0 l0 -143 l235 0 l0 -46 l-235 0 l0 -166 l280 0 l0 -46 l-605 0 l0 46 l277 0 l0 166 ZM329 817 q-39 -113 -99 -225 l0 -666 l-48 0 l0 583 q-44 -70 -100 -135 q-11 22 -30 43 q145 156 232 412 l45 -12 ZM953 14 l0 -47 l-661 0 l0 47 l312 0 l0 196 l-248 0 l0 47 l248 0 l0 130 l48 0 l0 -130 l250 0 l0 -47 l-250 0 l0 -196 l301 0 Z" /><glyph glyph-name="" unicode="&#x4f7f;" d="M336 821 q-42 -107 -107 -216 l0 -683 l-46 0 l0 612 q-60 -86 -125 -151 q-14 23 -31 44 q167 156 265 408 l44 -14 ZM606 332 q1 22 1 66 l0 114 l-213 0 l0 -180 l212 0 ZM654 512 l0 -114 q0 -44 -1 -66 l220 0 l0 180 l-219 0 ZM649 289 q-12 -124 -72 -203 q155 -90 385 -118 q-13 -13 -30 -45 q-228 34 -384 129 q-82 -84 -238 -130 q-16 28 -28 39 q151 41 227 117 q-102 71 -158 170 l41 16 q50 -87 146 -152 q53 70 65 177 l-254 0 l0 266 l258 0 l0 114 l-292 0 l0 45 l292 0 l0 116 l47 0 l0 -116 l301 0 l0 -45 l-301 0 l0 -114 l265 0 l0 -266 l-270 0 Z" /><glyph glyph-name="" unicode="&#x4fe1;" d="M613 683 q-22 59 -71 131 l43 18 q47 -69 74 -129 l-46 -20 ZM313 817 q-38 -110 -91 -212 l0 -681 l-45 0 l0 601 q-50 -83 -108 -150 q-14 27 -30 42 q145 158 230 412 l44 -12 ZM414 198 l0 -186 l406 0 l0 186 l-406 0 ZM370 240 l495 0 l0 -312 l-45 0 l0 42 l-406 0 l0 -45 l-44 0 l0 315 ZM383 384 l473 0 l0 -42 l-473 0 l0 42 ZM856 481 l-473 0 l0 42 l473 0 l0 -42 ZM938 662 l0 -43 l-629 0 l0 43 l629 0 Z" /><glyph glyph-name="" unicode="&#x4fee;" d="M294 813 q-31 -96 -81 -200 l0 -687 l-46 0 l0 599 q-55 -95 -114 -165 q-9 19 -28 45 q141 162 224 421 l45 -13 ZM310 557 l43 0 l0 -480 l-43 0 l0 480 ZM536 672 q54 -93 157 -162 q111 68 166 167 l-320 0 l-3 -5 ZM921 706 q-57 -132 -190 -220 q106 -59 233 -84 q-15 -15 -28 -39 q-135 31 -245 99 q-127 -73 -300 -105 q-10 21 -23 38 q166 29 285 92 q-90 65 -142 149 q-49 -69 -105 -121 q-24 21 -38 30 q130 111 203 289 l45 -12 q-19 -44 -51 -103 l319 0 l9 3 l28 -16 ZM834 267 q-104 -117 -338 -183 q-24 30 -29 35 q224 54 328 164 l39 -16 ZM740 368 q-87 -93 -261 -151 q-9 15 -29 31 q170 54 251 136 l39 -16 ZM943 158 q-137 -165 -506 -228 q-10 22 -26 41 q357 52 489 206 l43 -19 Z" /><glyph glyph-name="" unicode="&#x50ac;" d="M905 576 l-535 0 l0 211 l45 0 l0 -166 l204 0 l0 210 l46 0 l0 -210 l193 0 l0 166 l47 0 l0 -211 ZM287 814 q-27 -92 -72 -197 l0 -691 l-47 0 l0 591 q-47 -91 -97 -157 q-15 28 -29 45 q124 157 199 421 l46 -12 ZM425 20 l220 0 l0 99 l-220 0 l0 -99 ZM645 394 l-220 0 l0 -95 l220 0 l0 95 ZM645 259 l-220 0 l0 -99 l220 0 l0 99 ZM951 -24 l-526 0 l0 -50 l-45 0 l0 414 q-40 -65 -93 -119 q-14 21 -32 39 q118 112 181 300 l44 -11 q-17 -50 -46 -112 l228 0 q-19 56 -52 109 l41 13 q45 -70 58 -119 l-8 -3 l236 0 l0 -43 l-246 0 l0 -95 l220 0 l0 -40 l-220 0 l0 -99 l220 0 l0 -41 l-220 0 l0 -99 l260 0 l0 -44 Z" /><glyph glyph-name="" unicode="&#x50cf;" d="M326 816 q-47 -126 -107 -231 l0 -655 l-47 0 l0 577 q-44 -67 -103 -133 q-10 19 -29 43 q152 160 241 412 l45 -13 ZM563 458 q39 58 45 124 l-204 0 l0 -124 l159 0 ZM480 720 q-33 -47 -79 -98 l208 0 q36 40 69 98 l-198 0 ZM844 582 l-193 0 q-4 -66 -36 -124 l229 0 l0 124 ZM893 332 q-46 -32 -120 -72 q62 -176 189 -239 q-16 -12 -34 -37 q-131 75 -192 257 q-34 -18 -58 -28 q27 -79 21 -154 q-7 -73 -42 -103 q-31 -28 -79 -28 q-29 0 -64 3 q-2 22 -13 43 q36 -4 68 -4 q38 0 54 17 q52 43 25 173 q-139 -134 -341 -201 q-21 29 -29 36 q228 67 359 206 q-10 35 -30 70 q-119 -105 -294 -170 q-10 17 -28 34 q188 58 302 166 q-20 29 -55 61 q-80 -64 -211 -110 q-15 20 -30 33 q156 51 237 132 l-169 0 l0 163 q-38 -34 -68 -57 q-13 19 -32 29 q154 112 237 280 l47 -8 q-19 -36 -36 -63 l198 0 l9 3 l29 -21 q-28 -56 -83 -121 l230 0 l0 -205 l-304 0 q-11 -15 -26 -29 q70 -58 106 -142 q115 60 193 117 l34 -31 Z" /><glyph glyph-name="" unicode="&#x5148;" d="M855 -11 q31 0 39 28 q9 27 12 131 q15 -11 45 -22 q-5 -111 -22 -146 q-18 -37 -71 -37 l-156 0 q-56 0 -76 17 q-19 16 -19 64 l0 323 l-216 0 q-18 -171 -76 -262 q-72 -112 -230 -164 q-10 20 -30 40 q151 45 218 148 q53 82 69 238 l-275 0 l0 47 l409 0 l0 224 l-226 0 q-46 -102 -94 -161 q-24 15 -41 23 q100 123 148 323 l48 -10 q-14 -55 -42 -128 l207 0 l0 168 l48 0 l0 -168 l344 0 l0 -47 l-344 0 l0 -224 l411 0 l0 -47 l-281 0 l0 -324 q0 -21 10 -27 q10 -7 41 -7 l150 0 Z" /><glyph glyph-name="" unicode="&#x5168;" d="M524 2 l402 0 l0 -45 l-850 0 l0 45 l399 0 l0 190 l-274 0 l0 44 l274 0 l0 180 l-276 0 l0 45 l608 0 l0 -45 l-283 0 l0 -180 l288 0 l0 -44 l-288 0 l0 -190 ZM543 825 q-9 -14 -17 -25 q163 -200 443 -361 q-25 -19 -34 -40 q-265 164 -435 364 q-174 -230 -433 -360 q-13 23 -34 37 q308 147 467 404 l43 -19 Z" /><glyph glyph-name="" unicode="&#x516c;" d="M390 785 q-106 -253 -286 -409 q-21 19 -44 33 q182 144 280 390 l50 -14 ZM664 298 q170 -196 247 -335 l-45 -25 q-34 59 -70 110 q-596 -36 -627 -46 q-8 29 -19 51 q28 6 87 86 q118 133 245 385 l50 -22 q-157 -282 -291 -438 l524 29 q-78 106 -144 184 l43 21 ZM649 807 q122 -249 309 -392 q-19 -14 -40 -40 q-184 156 -315 413 l46 19 Z" /><glyph glyph-name="" unicode="&#x516d;" d="M939 560 l0 -49 l-875 0 l0 49 l875 0 ZM371 362 q-118 -251 -274 -431 q-15 15 -46 35 q158 167 269 413 l51 -17 ZM667 388 q194 -269 281 -423 l-47 -26 q-91 169 -278 428 l44 21 ZM468 827 q69 -141 96 -210 l-50 -20 q-35 98 -94 214 l48 16 Z" /><glyph glyph-name="" unicode="&#x5199;" d="M813 378 q-1 -18 -3 -25 q-33 -334 -85 -387 q-26 -23 -73 -23 q-51 -3 -160 5 q-4 28 -17 45 q84 -7 164 -7 q35 0 45 10 q47 39 76 337 l-538 0 q33 108 89 370 l48 -4 l-13 -60 q-10 -43 -14 -64 l464 0 l0 -44 l-475 0 q-14 -72 -36 -153 l528 0 ZM668 157 l-573 0 l0 46 l573 0 l0 -46 ZM914 774 l0 -176 l-49 0 l0 130 l-731 0 l0 -130 l-47 0 l0 176 l827 0 Z" /><glyph glyph-name="" unicode="&#x521d;" d="M256 671 q-28 62 -85 139 l36 20 q63 -76 87 -135 l-38 -24 ZM379 199 q-38 56 -116 152 l0 -423 l-49 0 l0 414 q-70 -84 -140 -143 q-13 29 -31 45 q186 142 285 362 l-270 0 l0 45 l295 0 l0 -1 l9 3 l29 -20 q-42 -108 -126 -225 l41 -46 q54 56 84 100 l38 -28 q-44 -52 -98 -98 q49 -59 81 -96 l-32 -41 ZM916 713 q-21 -684 -72 -745 q-24 -31 -72 -34 q-55 -3 -148 3 q-2 27 -14 47 q65 -6 149 -6 q28 0 41 16 q48 52 68 702 l-225 0 q-16 -301 -65 -463 q-59 -195 -195 -309 q-11 16 -38 36 q133 102 190 292 q46 154 58 444 l-186 0 l0 47 l509 0 l0 -30 Z" /><glyph glyph-name="" unicode="&#x526f;" d="M142 310 l0 -113 l181 0 l0 113 l-181 0 ZM548 310 l-181 0 l0 -113 l181 0 l0 113 ZM548 36 l0 120 l-181 0 l0 -120 l181 0 ZM323 36 l0 120 l-181 0 l0 -120 l181 0 ZM97 351 l497 0 l0 -407 l-46 0 l0 50 l-406 0 l0 -65 l-45 0 l0 422 ZM502 613 l-322 0 l0 -135 l322 0 l0 135 ZM548 655 l0 -218 l-413 0 l0 218 l413 0 ZM67 784 l545 0 l0 -43 l-545 0 l0 43 ZM737 167 l-45 0 l0 546 l45 0 l0 -546 ZM914 814 l0 -817 q0 -50 -37 -62 q-30 -10 -157 -9 q-6 24 -17 47 q94 -3 139 0 q25 0 25 23 l0 818 l47 0 Z" /><glyph glyph-name="" unicode="&#x2f12;&#x529b;&#xf98a;" d="M900 608 l-1 -28 q-33 -555 -90 -617 q-26 -28 -76 -31 q-55 -3 -159 5 q-4 30 -17 48 q72 -7 163 -7 q32 0 46 14 q54 52 83 568 l-376 0 q-28 -418 -376 -637 q-15 22 -37 37 q337 209 363 600 l-334 0 l0 48 l337 0 q1 24 1 69 l0 153 l49 0 l0 -153 q0 -45 -1 -69 l425 0 Z" /><glyph glyph-name="" unicode="&#x52a0;" d="M484 618 q-27 -576 -76 -634 q-22 -29 -61 -30 q-32 -3 -107 1 q-2 29 -14 49 q61 -4 105 -4 q25 0 35 14 q45 51 69 586 l-166 0 q-23 -484 -178 -666 q-20 20 -40 29 q150 169 171 637 l-152 0 l0 47 l153 0 q3 96 3 184 l48 0 q0 -88 -3 -184 l213 0 l0 -29 ZM854 61 l0 594 l-231 0 l0 -594 l231 0 ZM903 702 l0 -756 l-49 0 l0 68 l-231 0 l0 -74 l-47 0 l0 762 l327 0 Z" /><glyph glyph-name="" unicode="&#x52d5;" d="M275 290 l0 90 l-153 0 l0 -90 l153 0 ZM122 418 l153 0 l0 87 l-153 0 l0 -87 ZM321 505 l0 -87 l160 0 l0 87 l-160 0 ZM481 380 l-160 0 l0 -90 l160 0 l0 90 ZM931 567 q-17 -554 -57 -604 q-18 -27 -62 -30 q-41 -3 -120 2 q-2 23 -14 46 q52 -4 119 -4 q25 0 36 13 q34 42 50 560 l-172 0 q-10 -227 -56 -363 q-57 -171 -185 -263 q-15 19 -39 32 q43 30 73 63 q-194 -24 -446 -54 l-8 45 q128 13 225 24 l0 103 l-198 0 l0 41 l198 0 l0 74 l-196 0 l0 292 l196 0 l0 77 l-227 0 l0 41 l227 0 l0 84 q-78 -8 -199 -14 q-3 19 -13 38 q300 18 433 49 l28 -37 q-67 -16 -203 -32 l0 -88 l224 0 l0 -41 l-224 0 l0 -77 l203 0 l0 -292 l-203 0 l0 -74 l204 0 l0 -41 l-204 0 l0 -98 l210 24 l0 -11 q118 154 135 498 l-133 0 l0 45 l134 0 q3 74 3 228 l46 0 q0 -117 -3 -228 l218 0 l0 -28 Z" /><glyph glyph-name="" unicode="&#x5343;" d="M944 390 l-421 0 l0 -464 l-49 0 l0 464 l-416 0 l0 47 l416 0 l0 264 q-171 -26 -349 -44 q-3 16 -14 43 q489 50 693 116 l37 -40 q-116 -36 -318 -69 l0 -270 l421 0 l0 -47 Z" /><glyph glyph-name="" unicode="&#x5352;" d="M746 619 q-18 -59 -54 -120 q138 -92 230 -181 l-35 -34 q-70 72 -217 179 q-61 -89 -157 -155 q-19 24 -36 34 q165 100 222 287 l47 -10 ZM915 663 l-830 0 l0 46 l420 0 q-18 47 -59 112 l45 14 q48 -69 63 -116 l-27 -10 l388 0 l0 -46 ZM434 353 q-47 52 -144 120 q-70 -120 -181 -196 q-11 15 -36 33 q171 108 234 321 l47 -10 q-17 -60 -44 -111 q95 -63 156 -122 l-32 -35 ZM943 182 l-422 0 l0 -255 l-48 0 l0 255 l-415 0 l0 47 l415 0 l0 72 l48 0 l0 -72 l422 0 l0 -47 Z" /><glyph glyph-name="" unicode="&#x5357;" d="M520 134 l0 -193 l-46 0 l0 193 l-233 0 l0 42 l233 0 l0 123 l-212 0 l0 42 l305 0 q50 91 68 146 l44 -12 q-31 -69 -68 -134 l137 0 l0 -42 l-228 0 l0 -123 l243 0 l0 -42 l-243 0 ZM357 484 q47 -63 66 -124 l-40 -14 q-18 62 -64 125 l38 13 ZM518 676 q-5 -48 -16 -124 l374 0 l0 -558 q0 -50 -37 -61 q-29 -8 -166 -8 q-8 29 -18 47 q107 -4 149 -2 q23 1 23 23 l0 514 l-651 0 l0 -580 l-47 0 l0 625 l328 0 q8 53 14 124 l-407 0 l0 46 l411 0 q6 81 7 112 l51 -6 l-10 -106 l415 0 l0 -46 l-420 0 Z" /><glyph glyph-name="" unicode="&#x5358;" d="M488 657 q-21 76 -77 159 l43 17 q62 -92 79 -157 l-45 -19 ZM254 656 q-31 64 -101 145 l40 19 q74 -82 103 -141 l-42 -23 ZM474 310 l0 130 l-271 0 l0 -130 l271 0 ZM203 482 l271 0 l0 129 l-271 0 l0 -129 ZM805 611 l-283 0 l0 -129 l283 0 l0 129 ZM805 440 l-283 0 l0 -130 l283 0 l0 130 ZM944 114 l-422 0 l0 -188 l-48 0 l0 188 l-415 0 l0 46 l415 0 l0 107 l-318 0 l0 387 l521 0 q61 76 113 177 l49 -19 q-52 -84 -108 -158 l122 0 l0 -387 l-331 0 l0 -107 l422 0 l0 -46 Z" /><glyph glyph-name="" unicode="&#x535a;" d="M875 719 q-57 33 -146 78 l23 31 q95 -44 146 -73 l-23 -36 ZM665 569 l0 -72 l184 0 l0 72 l-184 0 ZM849 389 l0 70 l-184 0 l0 -70 l184 0 ZM620 389 l0 70 l-185 0 l0 -70 l185 0 ZM435 569 l0 -72 l185 0 l0 72 l-185 0 ZM620 675 l-283 0 l0 42 l283 0 l0 116 l45 0 l0 -116 l280 0 l0 -42 l-280 0 l0 -67 l229 0 l0 -333 l-45 0 l0 76 l-184 0 l0 -72 l-45 0 l0 72 l-185 0 l0 -78 l-44 0 l0 335 l229 0 l0 67 ZM226 515 l0 -588 l-47 0 l0 588 l-131 0 l0 46 l131 0 l0 272 l47 0 l0 -272 l115 0 l0 -46 l-115 0 ZM450 148 q86 -68 142 -124 l-32 -33 q-54 60 -140 131 l30 26 ZM955 173 l-154 0 l0 -186 q0 -41 -29 -51 q-25 -7 -138 -7 q-4 18 -17 42 q109 -2 121 -1 q18 1 18 17 l0 186 l-443 0 l0 43 l443 0 l0 66 l45 0 l0 -66 l154 0 l0 -43 Z" /><glyph glyph-name="" unicode="&#x53c2;" d="M820 153 q-166 -170 -607 -229 q-9 24 -24 42 q430 52 589 209 l42 -22 ZM689 266 q-141 -115 -414 -177 q-21 30 -28 37 q269 57 400 161 l42 -21 ZM597 384 q-117 -93 -304 -149 q-24 27 -33 34 q198 57 296 135 l41 -20 ZM662 464 q120 -141 295 -207 q-17 -14 -33 -38 q-199 85 -317 245 l-209 0 q-116 -160 -312 -255 q-16 23 -36 37 q176 77 289 218 l-281 0 l0 45 l313 0 q33 49 60 112 q-221 -12 -246 -21 q-4 24 -16 49 q27 1 69 29 q103 58 202 156 l45 -26 q-106 -92 -207 -152 l450 21 q-74 57 -137 95 l35 27 q172 -102 258 -199 l-40 -30 q-23 29 -69 68 l-316 -16 l23 -6 q-28 -65 -54 -107 l515 0 l0 -45 l-281 0 Z" /><glyph glyph-name="" unicode="&#x53d6;" d="M172 140 q137 22 202 34 l0 148 l-202 0 l0 -182 ZM172 737 l0 -162 l202 0 l0 162 l-202 0 ZM172 366 l202 0 l0 166 l-202 0 l0 -166 ZM421 138 l0 -210 l-47 0 l0 201 l-319 -57 l-11 47 l81 13 l0 605 l-74 0 l0 45 l450 0 l0 -45 l-80 0 l0 -555 l88 16 l3 -43 l-91 -17 ZM606 669 q40 -261 119 -427 q102 186 142 427 l-261 0 ZM918 709 q-44 -308 -167 -517 q84 -149 208 -220 q-23 -17 -35 -37 q-120 74 -201 213 q-92 -139 -209 -221 q-18 27 -32 37 q120 78 215 231 q-90 180 -135 474 l-59 0 l0 46 l377 0 l8 3 l30 -9 Z" /><glyph glyph-name="" unicode="&#x53d7;" d="M852 795 q-258 -56 -750 -79 q-1 16 -12 42 q499 26 727 76 l35 -39 ZM492 559 q-12 71 -55 157 l44 10 q46 -91 57 -156 l-46 -11 ZM247 550 q-21 62 -76 144 l41 13 q58 -82 78 -141 l-43 -16 ZM125 349 l-46 0 l0 195 l602 0 q69 96 110 184 l47 -19 q-58 -97 -107 -165 l190 0 l0 -195 l-47 0 l0 151 l-749 0 l0 -151 ZM284 320 q76 -121 219 -208 q149 86 223 208 l-442 0 ZM799 346 q-80 -157 -250 -259 q165 -85 392 -118 q-18 -20 -30 -44 q-237 37 -409 135 q-166 -88 -414 -135 q-9 23 -28 44 q236 38 397 119 q-144 92 -225 232 l-45 0 l0 45 l570 0 l10 3 l32 -22 Z" /><glyph glyph-name="" unicode="&#x53ef;" d="M217 498 l0 -270 l304 0 l0 270 l-304 0 ZM217 181 l0 -81 l-47 0 l0 445 l399 0 l0 -364 l-352 0 ZM942 712 l-126 0 l0 -704 q0 -59 -44 -71 q-34 -9 -199 -9 q-7 27 -21 53 q115 -4 188 -1 q27 3 27 29 l0 703 l-706 0 l0 47 l881 0 l0 -47 Z" /><glyph glyph-name="" unicode="&#x5408;" d="M252 275 l0 -237 l506 0 l0 237 l-506 0 ZM203 319 l604 0 l0 -386 l-49 0 l0 59 l-506 0 l0 -63 l-49 0 l0 390 ZM753 504 l0 -45 l-505 0 l0 45 l505 0 ZM563 814 q-19 -28 -32 -45 q149 -171 430 -296 q-24 -18 -34 -42 q-268 130 -423 303 q-170 -205 -422 -309 q-16 25 -34 39 q317 125 474 369 l41 -19 Z" /><glyph glyph-name="" unicode="&#x544a;" d="M240 247 l0 -226 l526 0 l0 226 l-526 0 ZM193 292 l620 0 l0 -377 l-47 0 l0 60 l-526 0 l0 -61 l-47 0 l0 378 ZM940 453 l0 -46 l-877 0 l0 46 l432 0 l0 182 l-263 0 q-48 -88 -103 -148 q-16 13 -43 27 q109 111 179 306 l47 -12 q-22 -60 -55 -127 l238 0 l0 152 l49 0 l0 -152 l315 0 l0 -46 l-315 0 l0 -182 l396 0 Z" /><glyph glyph-name="" unicode="&#x54c1;" d="M717 742 l-428 0 l0 -222 l428 0 l0 222 ZM765 474 l-523 0 l0 315 l523 0 l0 -315 ZM138 308 l0 -278 l245 0 l0 278 l-245 0 ZM92 354 l339 0 l0 -417 l-48 0 l0 47 l-245 0 l0 -57 l-46 0 l0 427 ZM870 30 l0 278 l-268 0 l0 -278 l268 0 ZM917 354 l0 -420 l-47 0 l0 50 l-268 0 l0 -57 l-47 0 l0 427 l362 0 Z" /><glyph glyph-name="" unicode="&#x5546;" d="M434 429 q-83 -100 -184 -171 q-9 18 -28 37 q104 66 173 151 l39 -17 ZM365 236 l0 -138 l267 0 l0 138 l-267 0 ZM365 58 l0 -50 l-43 0 l0 267 l353 0 l0 -217 l-310 0 ZM770 264 q-85 75 -200 155 l29 30 q144 -101 200 -149 l-29 -36 ZM874 -6 q0 -43 -33 -54 q-27 -7 -163 -7 q-5 19 -17 40 q111 -3 144 -1 q24 1 24 22 l0 480 l-653 0 l0 -546 l-46 0 l0 588 l459 0 q46 63 87 143 l51 -13 q-36 -59 -88 -130 l235 0 l0 -522 ZM323 664 q50 -73 68 -113 l-42 -20 q-24 51 -66 117 l40 16 ZM935 718 l0 -44 l-868 0 l0 44 l427 0 q-34 84 -44 105 l44 12 q29 -56 51 -117 l390 0 Z" /><glyph glyph-name="" unicode="&#x55b6;" d="M226 178 l0 -166 l570 0 l0 166 l-570 0 ZM180 222 l663 0 l0 -294 l-47 0 l0 40 l-570 0 l0 -42 l-46 0 l0 296 ZM726 496 l-440 0 l0 -142 l440 0 l0 142 ZM773 537 l0 -224 l-532 0 l0 224 l532 0 ZM913 674 l0 -187 l-47 0 l0 143 l-720 0 l0 -143 l-45 0 l0 187 l152 0 q-37 68 -90 126 l40 19 q66 -71 96 -133 l-23 -12 l226 0 q-28 72 -80 144 l41 15 q60 -77 82 -144 l-36 -15 l181 0 q61 67 111 149 l47 -21 q-46 -64 -103 -128 l168 0 Z" /><glyph glyph-name="" unicode="&#x5609;" d="M481 153 l-2 -21 q-16 -158 -41 -180 q-17 -17 -50 -18 q-62 0 -105 3 q-2 19 -12 40 q45 -5 101 -5 q24 0 30 7 q18 20 30 134 l-162 0 q-43 -137 -196 -187 q-9 18 -28 33 q138 44 178 154 l-144 0 l0 40 l157 0 q8 39 11 73 l45 0 q-4 -38 -12 -73 l200 0 ZM596 139 l0 -134 l244 0 l0 134 l-244 0 ZM552 179 l334 0 l0 -247 l-46 0 l0 33 l-244 0 l0 -37 l-44 0 l0 251 ZM343 366 q40 -37 52 -74 l-39 -14 l246 0 q31 47 51 88 l-310 0 ZM226 404 l556 0 l0 96 l-556 0 l0 -96 ZM701 353 l-48 -75 l273 0 l0 -41 l-855 0 l0 41 l279 0 q-17 43 -51 79 l28 9 l-147 0 l0 173 l649 0 l0 -173 l-169 0 l41 -13 ZM933 757 l0 -40 l-411 0 l0 -74 l345 0 l0 -40 l-732 0 l0 40 l339 0 l0 74 l-403 0 l0 40 l403 0 l0 75 l48 0 l0 -75 l411 0 Z" /><glyph glyph-name="" unicode="&#x56de;" d="M639 517 l-282 0 l0 -262 l282 0 l0 262 ZM686 562 l0 -351 l-375 0 l0 351 l375 0 ZM862 28 l0 712 l-724 0 l0 -712 l724 0 ZM911 788 l0 -860 l-49 0 l0 54 l-724 0 l0 -54 l-48 0 l0 860 l821 0 Z" /><glyph glyph-name="" unicode="&#x56e3;" d="M328 440 q95 -100 130 -192 l-40 -21 q-35 94 -128 196 l38 17 ZM818 506 l-152 0 l0 -365 q0 -46 -35 -57 q-25 -6 -152 -6 q-5 18 -16 44 q100 -3 136 -1 q21 1 21 19 l0 366 l-422 0 l0 44 l422 0 l0 145 l46 0 l0 -145 l152 0 l0 -44 ZM865 21 l0 717 l-728 0 l0 -717 l728 0 ZM914 784 l0 -857 l-49 0 l0 48 l-728 0 l0 -48 l-48 0 l0 857 l825 0 Z" /><glyph glyph-name="" unicode="&#x56fd;" d="M787 177 l0 -42 l-564 0 l0 42 l250 0 l0 199 l-204 0 l0 44 l204 0 l0 171 l-234 0 l0 44 l525 0 l0 -44 l-246 0 l0 -171 l220 0 l0 -44 l-220 0 l0 -199 l269 0 ZM631 344 q78 -67 112 -118 l-33 -23 q-40 61 -112 121 l33 20 ZM859 21 l0 718 l-719 0 l0 -718 l719 0 ZM909 784 l0 -859 l-50 0 l0 51 l-719 0 l0 -51 l-48 0 l0 859 l817 0 Z" /><glyph glyph-name="" unicode="&#x5834;" d="M835 761 l-359 0 l0 -97 l359 0 l0 97 ZM835 624 l-359 0 l0 -99 l359 0 l0 99 ZM881 485 l-449 0 l0 315 l449 0 l0 -315 ZM357 266 q-189 -94 -295 -144 l-20 47 q54 22 143 65 l0 334 l-126 0 l0 46 l126 0 l0 214 l46 0 l0 -214 l118 0 l0 -46 l-118 0 l0 -313 l115 55 l11 -44 ZM532 375 q-20 -41 -52 -83 l446 0 l-2 -24 q-21 -279 -59 -318 q-17 -18 -52 -20 q-41 -2 -98 1 q0 22 -12 43 q51 -5 93 -5 q23 0 31 10 q31 31 50 271 l-102 0 q-69 -223 -206 -326 q-14 17 -37 28 q133 93 202 298 l-119 0 q-87 -182 -248 -284 q-13 16 -34 32 q145 81 238 252 l-124 0 q-63 -74 -141 -126 q-9 12 -34 32 q138 86 211 219 l-156 0 l0 44 l627 0 l0 -44 l-422 0 Z" /><glyph glyph-name="" unicode="&#x58f0;" d="M208 402 l0 -92 q0 -51 -5 -90 l272 0 l0 182 l-267 0 ZM811 402 l-289 0 l0 -182 l289 0 l0 182 ZM859 127 l-48 0 l0 49 l-614 0 q-27 -158 -124 -254 q-16 20 -36 34 q124 121 124 354 l0 135 l698 0 l0 -318 ZM522 701 l0 -120 l359 0 l0 -44 l-745 0 l0 44 l339 0 l0 120 l-398 0 l0 44 l398 0 l0 91 l47 0 l0 -91 l403 0 l0 -44 l-403 0 Z" /><glyph glyph-name="" unicode="&#x5916;" d="M479 678 l32 -11 q-79 -538 -424 -733 q-18 24 -39 38 q188 101 296 307 q-68 68 -181 138 l30 32 q103 -63 172 -127 q63 139 89 308 l-214 0 q-61 -168 -148 -273 q-28 22 -41 30 q134 149 199 447 l48 -10 q-19 -80 -42 -148 l213 0 l10 2 ZM690 529 q171 -119 265 -223 l-36 -35 q-81 93 -247 217 l0 -560 l-49 0 l0 905 l49 0 l0 -319 l18 15 Z" /><glyph glyph-name="" unicode="&#x591c;" d="M936 668 l-871 0 l0 46 l439 0 q-24 52 -63 109 l44 14 q47 -63 70 -119 l-10 -4 l391 0 l0 -46 ZM347 648 q-40 -94 -98 -184 l0 -536 l-47 0 l0 468 q-66 -89 -132 -147 q-21 24 -38 35 q170 139 269 378 l46 -14 ZM687 295 q-44 63 -127 129 l32 25 q84 -63 129 -125 l-34 -29 ZM542 495 q-34 -55 -63 -92 q60 -135 164 -239 q146 138 205 331 l-306 0 ZM906 527 q-65 -237 -231 -395 q133 -117 289 -165 q-11 -10 -33 -42 q-158 54 -289 177 q-131 -111 -313 -174 q-13 26 -31 39 q178 56 312 167 q-100 104 -159 232 q-58 -70 -113 -115 q-12 15 -34 33 q183 147 268 378 l48 -14 q-21 -54 -53 -109 l300 0 l10 3 l29 -15 Z" /><glyph glyph-name="" unicode="&#x5922;" d="M741 261 l32 -21 q-153 -246 -664 -308 q-9 28 -21 45 q187 19 334 70 q-60 62 -128 105 l34 21 q81 -51 137 -110 q160 63 234 156 l-334 0 q-71 -50 -162 -84 q-16 22 -32 33 q167 56 237 152 l51 -9 q-25 -32 -47 -53 l319 0 l10 3 ZM74 371 l855 0 l0 -160 l-47 0 l0 119 l-762 0 l0 -119 l-46 0 l0 160 ZM812 593 l-178 0 l0 -124 l178 0 l0 124 ZM591 593 l-175 0 l0 -124 l175 0 l0 124 ZM373 593 l-169 0 l0 -124 l169 0 l0 124 ZM858 632 l0 -202 l-699 0 l0 202 l699 0 ZM942 759 l0 -44 l-247 0 l0 -62 l-47 0 l0 62 l-295 0 l0 -62 l-47 0 l0 62 l-246 0 l0 44 l246 0 l0 74 l47 0 l0 -74 l295 0 l0 74 l47 0 l0 -74 l247 0 Z" /><glyph glyph-name="" unicode="&#x2f24;&#x5927;" d="M545 488 q119 -391 406 -515 q-16 -13 -36 -45 q-291 139 -416 546 q-80 -398 -414 -547 q-15 25 -36 39 q323 138 404 522 l-386 0 l0 48 l394 0 q16 104 19 296 l50 0 q-2 -186 -19 -296 l426 0 l0 -48 l-392 0 Z" /><glyph glyph-name="" unicode="&#x5929;" d="M539 391 q110 -331 418 -422 q-19 -19 -32 -43 q-307 105 -426 442 q-68 -287 -417 -442 q-13 23 -31 40 q341 149 402 425 l-384 0 l0 49 l393 0 q8 61 8 134 l0 127 l-367 0 l0 48 l789 0 l0 -48 l-373 0 l0 -127 q0 -80 -7 -134 l424 0 l0 -49 l-397 0 Z" /><glyph glyph-name="" unicode="&#x597d;" d="M200 578 q-36 -164 -68 -273 q68 -42 134 -93 q73 146 98 366 l-164 0 ZM415 618 q-25 -266 -111 -437 q83 -68 121 -117 l-34 -39 q-38 50 -111 112 q-84 -138 -215 -209 q-8 17 -32 39 q127 61 209 201 q-79 66 -165 117 q36 105 77 293 l-107 0 l0 46 l117 0 q22 115 34 209 l48 -4 q-12 -85 -36 -205 l166 0 l9 2 l30 -8 ZM953 356 l-233 0 l0 -364 q0 -46 -36 -58 q-30 -8 -146 -8 q-4 14 -20 46 q107 -2 132 0 q21 1 21 20 l0 364 l-243 0 l0 46 l243 0 l0 127 q90 73 164 177 l-360 0 l0 45 l394 0 l11 4 l35 -25 q-81 -122 -195 -217 l0 -111 l233 0 l0 -46 Z" /><glyph glyph-name="" unicode="&#x59cb;" d="M198 578 q-37 -167 -69 -275 q58 -34 128 -89 q63 146 82 364 l-141 0 ZM387 620 q-21 -270 -93 -436 q74 -63 117 -117 l-31 -39 q-31 42 -108 112 q-72 -139 -194 -212 q-7 18 -30 39 q116 62 188 204 q-90 72 -159 114 q35 101 77 293 l-106 0 l0 46 l116 0 q23 118 34 206 l45 -3 q-14 -97 -35 -203 l142 0 l9 2 l28 -6 ZM516 279 l0 -262 l334 0 l0 262 l-334 0 ZM471 324 l426 0 l0 -395 l-47 0 l0 43 l-334 0 l0 -46 l-45 0 l0 398 ZM788 686 q114 -145 171 -279 l-41 -20 q-17 39 -35 73 q-431 -31 -455 -41 q-6 22 -17 49 q19 2 64 66 q95 123 172 301 l49 -16 q-106 -212 -203 -339 l367 22 q-55 93 -110 166 l38 18 Z" /><glyph glyph-name="" unicode="&#x2f26;&#x5b50;" d="M948 335 l-421 0 l0 -335 q0 -53 -44 -65 q-35 -9 -191 -9 q-6 21 -22 50 q116 -4 182 -1 q26 1 26 25 l0 335 l-423 0 l0 47 l423 0 l0 149 q158 72 285 181 l-607 0 l0 47 l658 0 l12 3 l35 -26 q-134 -131 -334 -231 l0 -123 l421 0 l0 -47 Z" /><glyph glyph-name="" unicode="&#x5b66;" d="M514 663 q-20 72 -81 162 l42 15 q61 -88 83 -159 l-44 -18 ZM136 477 l-46 0 l0 185 l172 0 q-32 67 -98 142 l40 19 q72 -79 99 -140 l-35 -21 l424 0 q68 83 112 165 l46 -20 q-60 -91 -107 -145 l176 0 l0 -185 l-47 0 l0 141 l-736 0 l0 -141 ZM940 224 l-418 0 l0 -230 q0 -47 -40 -59 q-31 -8 -179 -8 q-5 18 -23 46 q137 -3 169 0 q25 2 25 21 l0 230 l-409 0 l0 45 l409 0 l0 78 q114 40 210 108 l-459 0 l0 44 l513 0 l11 3 l32 -25 q-93 -84 -259 -153 l0 -55 l418 0 l0 -45 Z" /><glyph glyph-name="" unicode="&#x5b9d;" d="M138 505 l-47 0 l0 195 l416 0 q-15 32 -66 124 l45 14 q51 -84 75 -138 l348 0 l0 -195 l-49 0 l0 149 l-722 0 l0 -149 ZM938 2 l0 -46 l-875 0 l0 46 l410 0 l0 231 l-291 0 l0 46 l291 0 l0 186 l-311 0 l0 45 l677 0 l0 -45 l-316 0 l0 -186 l297 0 l0 -46 l-297 0 l0 -231 l415 0 ZM649 203 q116 -83 177 -141 l-34 -32 q-63 63 -175 147 l32 26 Z" /><glyph glyph-name="" unicode="&#x5b9f;" d="M129 548 l-47 0 l0 180 l414 0 q-20 51 -53 93 l44 14 q43 -47 62 -107 l367 0 l0 -180 l-48 0 l0 136 l-739 0 l0 -136 ZM562 197 q102 -183 389 -229 q-15 -15 -30 -43 q-303 58 -411 272 l-30 0 q-86 -172 -392 -269 q-10 18 -30 38 q281 84 369 231 l-364 0 l0 44 l386 0 q19 50 24 112 l-293 0 l0 43 l295 0 l0 106 l-311 0 l0 43 l311 0 l0 100 l47 0 l0 -100 l321 0 l0 -43 l-321 0 l0 -106 l311 0 l0 -43 l-313 0 q-5 -63 -21 -112 l442 0 l0 -44 l-379 0 Z" /><glyph glyph-name="" unicode="&#x5ba3;" d="M134 557 l-47 0 l0 176 l402 0 q-25 52 -49 90 l45 14 q33 -49 58 -104 l371 0 l0 -176 l-48 0 l0 131 l-732 0 l0 -131 ZM809 536 l-619 0 l0 42 l619 0 l0 -42 ZM272 124 l452 0 l0 122 l-452 0 l0 -122 ZM272 286 l452 0 l0 120 l-452 0 l0 -120 ZM225 83 l0 364 l546 0 l0 -364 l-546 0 ZM934 -1 l0 -45 l-869 0 l0 45 l869 0 Z" /><glyph glyph-name="" unicode="&#x5bb6;" d="M140 545 l-47 0 l0 193 l385 0 q-22 50 -46 85 l47 14 q34 -49 55 -99 l380 0 l0 -193 l-48 0 l0 148 l-726 0 l0 -148 ZM838 446 q-69 -59 -169 -125 q82 -234 288 -314 q-20 -16 -32 -39 q-204 89 -294 329 q-26 -17 -59 -36 q28 -98 14 -187 q-14 -86 -58 -116 q-35 -29 -93 -29 q-39 0 -87 3 q-2 24 -13 45 q58 -5 90 -5 q47 0 70 19 q29 19 42 78 q14 62 2 135 q-186 -151 -442 -226 q-7 19 -26 42 q288 70 457 231 q-14 53 -34 90 q-157 -113 -378 -184 q-13 25 -26 40 q229 58 384 178 q-23 38 -59 75 q-133 -76 -298 -127 q-9 22 -28 39 q241 67 373 166 l-256 0 l0 44 l587 0 l0 -44 l-268 0 q-29 -26 -75 -57 q73 -71 111 -171 q145 90 238 176 l39 -30 Z" /><glyph glyph-name="" unicode="&#x5bc4;" d="M125 585 l-45 0 l0 160 l411 0 q-10 37 -30 80 l44 13 q21 -39 35 -93 l382 0 l0 -160 l-47 0 l0 116 l-750 0 l0 -116 ZM799 367 q-123 71 -328 134 q-78 -99 -303 -135 q-8 21 -24 39 q252 37 313 159 l-275 0 l0 42 l290 0 q10 33 14 66 l47 0 q-3 -24 -13 -66 l301 0 l0 -42 l-314 0 q-11 -24 -15 -30 q211 -61 331 -130 l-24 -37 ZM238 203 l0 -125 l297 0 l0 125 l-297 0 ZM581 37 l-343 0 l0 -52 l-45 0 l0 259 l388 0 l0 -207 ZM941 318 l-152 0 l0 -329 q0 -45 -34 -55 q-24 -7 -156 -7 q-2 15 -17 45 q106 -3 139 -1 q21 1 21 19 l0 328 l-682 0 l0 44 l881 0 l0 -44 Z" /><glyph glyph-name="" unicode="&#x5c02;" d="M250 142 q105 -65 166 -137 l-39 -31 q-53 69 -162 141 l35 27 ZM202 341 l273 0 l0 101 l-273 0 l0 -101 ZM202 480 l273 0 l0 100 l-273 0 l0 -100 ZM522 580 l0 -100 l278 0 l0 100 l-278 0 ZM800 442 l-278 0 l0 -101 l278 0 l0 101 ZM943 167 l-232 0 l0 -183 q0 -44 -35 -53 q-32 -8 -168 -8 q-4 17 -18 43 q123 -2 151 0 q23 1 23 19 l0 182 l-606 0 l0 43 l606 0 l0 91 l-508 0 l0 319 l319 0 l0 81 l-393 0 l0 43 l393 0 l0 87 l47 0 l0 -87 l400 0 l0 -43 l-400 0 l0 -81 l325 0 l0 -319 l-136 0 l0 -91 l232 0 l0 -43 Z" /><glyph glyph-name="" unicode="&#x2f2d;&#x5c71;" d="M881 630 l0 -697 l-48 0 l0 75 l-715 0 l0 622 l49 0 l0 -574 l308 0 l0 763 l49 0 l0 -763 l309 0 l0 574 l48 0 Z" /><glyph glyph-name="" unicode="&#x5dde;" d="M291 816 l0 -305 q0 -187 -31 -305 q-44 -164 -160 -277 q-9 15 -35 34 q178 174 178 547 l0 306 l48 0 ZM579 794 l0 -797 l-47 0 l0 797 l47 0 ZM882 819 l0 -878 l-47 0 l0 878 l47 0 ZM181 573 q-43 -176 -104 -263 l-40 20 q65 89 104 255 l40 -12 ZM382 570 q64 -140 79 -244 l-45 -17 q-13 108 -76 247 l42 14 ZM664 581 q88 -140 119 -243 l-43 -22 q-32 115 -116 247 l40 18 Z" /><glyph glyph-name="" unicode="&#x5e73;" d="M944 291 l-422 0 l0 -364 l-48 0 l0 364 l-416 0 l0 48 l416 0 l0 376 l-365 0 l0 47 l780 0 l0 -47 l-367 0 l0 -376 l422 0 l0 -48 ZM227 657 q78 -139 104 -239 l-45 -17 q-27 106 -101 243 l42 13 ZM648 410 q68 107 122 253 l50 -17 q-81 -175 -131 -251 l-41 15 Z" /><glyph glyph-name="" unicode="&#x5e74;&#xf98e;" d="M525 213 l0 227 l-255 0 l0 -227 l255 0 ZM948 166 l-375 0 l0 -240 l-48 0 l0 240 l-472 0 l0 47 l169 0 l0 273 l303 0 l0 173 l-262 0 q-70 -121 -161 -207 q-20 17 -43 30 q155 133 236 354 l49 -12 q-20 -50 -54 -119 l616 0 l0 -46 l-333 0 l0 -173 l312 0 l0 -46 l-312 0 l0 -227 l375 0 l0 -47 Z" /><glyph glyph-name="" unicode="&#x5e83;" d="M699 327 q166 -201 232 -362 l-45 -24 q-21 51 -54 109 q-543 -63 -571 -75 q-8 28 -19 48 q21 4 77 105 q120 194 207 465 l52 -13 q-126 -334 -259 -544 l489 54 q-68 115 -150 217 l41 20 ZM941 694 l0 -46 l-745 0 l0 -226 q0 -331 -105 -492 q-16 16 -40 26 q97 151 97 466 l0 272 l404 0 q-32 71 -67 123 l45 14 q44 -64 76 -137 l335 0 Z" /><glyph glyph-name="" unicode="&#x5f00;" d="M662 407 l0 310 l-308 0 l0 -259 q0 -34 -1 -51 l309 0 ZM944 361 l-233 0 l0 -435 l-49 0 l0 435 l-311 0 q-22 -293 -252 -438 q-16 21 -36 35 q217 137 239 403 l-244 0 l0 46 l246 0 q1 18 1 52 l0 258 l-208 0 l0 46 l814 0 l0 -46 l-200 0 l0 -310 l233 0 l0 -46 Z" /><glyph glyph-name="" unicode="&#x5f0f;" d="M858 662 q-53 65 -152 132 l33 27 q98 -64 153 -126 l-34 -33 ZM335 64 l230 53 l5 -43 q-313 -76 -488 -117 l-16 47 l222 49 l0 320 l-196 0 l0 47 l446 0 l0 -47 l-203 0 l0 -309 ZM636 590 q20 -278 82 -446 q63 -170 149 -170 q40 0 50 193 q16 -14 43 -24 q-8 -126 -27 -172 q-20 -47 -70 -47 q-113 0 -186 189 q-67 175 -89 477 l-529 0 l0 47 l526 0 q-5 83 -7 192 l50 0 q0 -90 5 -192 l309 0 l0 -47 l-306 0 Z" /><glyph glyph-name="" unicode="&#x5f15;" d="M539 334 q-1 -18 -2 -25 q-24 -308 -68 -351 q-21 -23 -68 -24 q-58 -4 -159 4 q-2 27 -17 48 q70 -7 160 -7 q33 0 44 11 q36 31 58 299 l-340 0 l-49 -1 q29 114 53 269 l338 0 l0 187 l-382 0 l0 46 l429 0 l0 -279 l-344 0 q-38 -190 -35 -177 l382 0 ZM845 825 l0 -898 l-48 0 l0 898 l48 0 Z" /><glyph glyph-name="" unicode="&#x5f71;" d="M899 792 q-104 -135 -263 -232 q-22 25 -37 34 q161 89 255 217 l45 -19 ZM936 524 q-114 -147 -303 -245 q-13 18 -34 34 q189 94 293 230 l44 -19 ZM503 759 l-337 0 l0 -73 l337 0 l0 73 ZM503 649 l-337 0 l0 -76 l337 0 l0 76 ZM550 535 l-430 0 l0 262 l430 0 l0 -262 ZM584 418 l-516 0 l0 42 l240 0 q-10 22 -29 55 l43 13 q22 -38 37 -68 l225 0 l0 -42 ZM210 131 q-43 -98 -110 -160 q-23 20 -36 28 q66 60 102 143 l44 -11 ZM170 215 l324 0 l0 103 l-324 0 l0 -103 ZM354 176 l0 -187 q0 -36 -25 -46 q-21 -8 -114 -8 q-3 19 -17 42 q48 -1 95 -1 q15 0 15 13 l0 187 l-184 0 l0 181 l416 0 l0 -181 l-186 0 ZM462 145 q68 -79 98 -139 l-38 -21 q-33 68 -96 141 l36 19 ZM957 232 q-123 -194 -359 -301 q-15 19 -33 36 q232 100 349 281 l43 -16 Z" /><glyph glyph-name="" unicode="&#x5f8c;" d="M303 816 q-85 -135 -222 -233 q-15 22 -28 34 q133 97 206 215 l44 -16 ZM329 621 q-34 -64 -94 -143 l0 -556 l-46 0 l0 500 q-54 -65 -115 -116 q-20 31 -32 39 q150 118 243 291 l44 -15 ZM494 268 q54 -85 144 -154 q100 72 152 160 l-290 0 l-6 -6 ZM857 300 q-56 -121 -179 -213 q125 -84 288 -120 q-16 -14 -30 -41 q-165 41 -296 134 q-138 -89 -329 -135 q-5 21 -25 43 q174 35 315 122 q-84 66 -139 149 q-67 -62 -137 -104 q-15 22 -34 35 q168 96 261 237 q-186 -11 -210 -20 q-5 24 -15 46 q34 3 110 48 q45 25 145 92 q-199 -11 -218 -19 q-5 29 -14 47 q21 3 61 38 q90 73 174 191 l45 -21 q-103 -126 -197 -202 l210 8 q90 66 146 116 l42 -25 q-197 -161 -395 -266 l383 22 q-44 56 -86 99 l37 21 q116 -116 174 -217 l-41 -24 q-16 33 -56 84 l-241 -14 q-28 -49 -69 -96 l279 0 l10 2 l31 -17 Z" /><glyph glyph-name="" unicode="&#x5f97;" d="M830 760 l-371 0 l0 -99 l371 0 l0 99 ZM830 622 l-371 0 l0 -101 l371 0 l0 101 ZM878 481 l-466 0 l0 319 l466 0 l0 -319 ZM309 813 q-88 -133 -234 -232 q-7 16 -27 38 q145 96 215 210 l46 -16 ZM319 594 q-28 -51 -80 -121 l0 -546 l-47 0 l0 490 q-63 -73 -134 -130 q-7 18 -30 43 q157 116 247 279 l44 -15 ZM456 179 q88 -77 130 -144 l-37 -28 q-40 68 -128 150 l35 22 ZM951 209 l-158 0 l0 -222 q0 -43 -33 -54 q-26 -8 -150 -8 q-2 15 -17 45 q107 -3 132 0 q21 1 21 18 l0 221 l-424 0 l0 44 l424 0 l0 103 l-403 0 l0 43 l591 0 l0 -43 l-141 0 l0 -103 l158 0 l0 -44 Z" /><glyph glyph-name="" unicode="&#x5fa1;" d="M252 816 q-75 -124 -188 -222 q-6 10 -29 36 q114 94 172 203 l45 -17 ZM273 608 q-34 -65 -71 -117 l0 -562 l-45 0 l0 501 q-48 -62 -108 -120 q-22 33 -30 40 q129 114 211 272 l43 -14 ZM672 96 l2 -42 q-140 -26 -406 -71 l-14 45 l62 10 l0 327 l42 0 l0 -320 l105 16 l0 392 l-181 0 l0 45 l181 0 l0 178 l-108 0 q-32 -52 -56 -78 q-17 15 -39 26 q76 82 116 210 l46 -10 q-16 -51 -42 -103 l261 0 l0 -45 l-134 0 l0 -178 l146 0 l0 -45 l-146 0 l0 -142 l139 0 l0 -43 l-139 0 l0 -200 l165 28 ZM933 143 q0 -39 -25 -50 q-23 -10 -110 -9 q-2 15 -16 44 q72 -2 91 0 q15 0 15 15 l0 566 l-150 0 l0 -782 l-44 0 l0 827 l239 0 l0 -611 Z" /><glyph glyph-name="" unicode="&#x60df;" d="M711 656 q-25 74 -75 152 l41 16 q55 -84 78 -149 l-44 -19 ZM36 389 q33 97 47 254 l39 -6 q-8 -157 -46 -260 l-40 12 ZM175 832 l46 0 l0 -907 l-46 0 l0 907 ZM304 522 q-13 64 -54 145 l37 14 q42 -83 56 -139 l-39 -20 ZM469 46 l198 0 l0 160 l-198 0 l0 -160 ZM667 605 l-198 0 l0 -154 l198 0 l0 154 ZM667 406 l-198 0 l0 -155 l198 0 l0 155 ZM940 1 l-471 0 l0 -74 l-46 0 l0 615 q-41 -74 -92 -135 l-38 33 q125 138 201 386 l47 -10 q-26 -82 -64 -166 l447 0 l0 -45 l-211 0 l0 -154 l189 0 l0 -45 l-189 0 l0 -155 l189 0 l0 -45 l-189 0 l0 -160 l227 0 l0 -45 Z" /><glyph glyph-name="" unicode="&#x610f;" d="M74 -23 q66 57 119 175 l39 -17 q-56 -125 -116 -181 l-42 23 ZM762 450 l-520 0 l0 -84 l520 0 l0 84 ZM762 328 l-520 0 l0 -84 l520 0 l0 84 ZM810 205 l-614 0 l0 283 l614 0 l0 -283 ZM446 203 q103 -58 156 -116 l-30 -30 q-49 55 -156 120 l30 26 ZM618 -22 q34 0 43 19 q10 18 13 93 q19 -13 44 -18 q-5 -85 -23 -110 q-19 -27 -73 -27 l-206 0 q-66 0 -88 13 q-22 14 -22 58 l0 143 l46 0 l0 -144 q0 -17 12 -22 q12 -5 54 -5 l200 0 ZM786 164 q96 -94 137 -170 l-40 -22 q-44 83 -136 173 l39 19 ZM930 588 l0 -42 l-854 0 l0 42 l248 0 q-13 48 -47 104 l44 12 q37 -56 51 -109 l-23 -7 l272 0 q34 57 60 118 l-561 0 l0 42 l381 0 q-25 49 -47 78 l45 13 q33 -40 57 -91 l324 0 l0 -42 l-195 0 l44 -12 q-55 -105 -56 -106 l257 0 Z" /><glyph glyph-name="" unicode="&#x611f;" d="M826 730 q-54 45 -139 76 l29 28 q93 -34 138 -73 l-28 -31 ZM183 578 q0 -244 -94 -380 q-17 21 -35 31 q83 121 83 349 l0 148 l445 0 q-7 56 -8 107 l47 0 q1 -51 8 -107 l315 0 l0 -42 l-310 0 q24 -157 76 -268 q75 93 118 206 l44 -11 q-52 -135 -139 -239 q66 -116 134 -116 q33 1 39 130 q17 -15 40 -21 q-6 -88 -23 -121 q-18 -33 -58 -33 q-89 0 -164 125 q-59 -62 -141 -116 q-12 16 -36 33 q89 54 153 125 q-64 130 -89 306 l-405 0 l0 -106 ZM455 225 q92 -85 138 -155 l-42 -23 q-41 68 -134 159 l38 19 ZM55 -23 q52 59 107 177 l41 -18 q-74 -140 -104 -178 l-44 19 ZM548 566 l-316 0 l0 40 l316 0 l0 -40 ZM483 457 l-191 0 l0 -124 l191 0 l0 124 ZM525 294 l-275 0 l0 202 l275 0 l0 -202 ZM647 -25 q43 0 55 21 q12 21 15 101 q22 -14 46 -17 q-5 -91 -26 -118 q-21 -28 -87 -28 l-253 0 q-77 0 -102 14 q-26 14 -26 59 l0 179 l48 0 l0 -179 q0 -19 14 -25 q16 -7 65 -7 l251 0 ZM812 176 q79 -99 113 -183 l-44 -18 q-34 86 -111 185 l42 16 Z" /><glyph glyph-name="" unicode="&#x614b;" d="M667 534 q-57 0 -76 14 q-20 14 -20 56 l0 220 l45 0 l0 -120 q161 47 231 90 l39 -33 q-87 -45 -270 -96 l0 -61 q0 -17 10 -23 q9 -5 42 -5 l165 0 q27 0 35 17 q8 18 11 83 q13 -10 41 -19 q-4 -75 -20 -99 q-16 -24 -63 -24 l-170 0 ZM668 190 q-57 0 -77 14 q-20 15 -20 57 l0 240 l45 0 l0 -124 q162 43 242 89 l40 -31 q-107 -54 -282 -97 l0 -77 q0 -17 10 -23 q10 -5 43 -5 l167 0 q28 0 36 17 q8 18 10 84 q16 -12 43 -18 q-5 -77 -21 -101 q-16 -25 -63 -25 l-173 0 ZM417 363 l0 68 l-252 0 l0 -68 l252 0 ZM165 535 l0 -68 l252 0 l0 68 l-252 0 ZM462 251 q0 -36 -26 -45 q-21 -8 -118 -8 q-1 5 -15 39 q48 -1 98 -1 q16 1 16 15 l0 75 l-252 0 l0 -134 l-45 0 l0 382 l342 0 l0 -323 ZM548 58 q-34 54 -100 122 l36 20 q69 -71 99 -119 l-35 -23 ZM485 597 q-19 28 -43 55 q-337 -22 -360 -31 q-10 37 -16 48 q23 1 53 27 q74 50 142 140 l47 -19 q-75 -84 -151 -142 l254 15 q-36 39 -65 67 l35 21 q84 -76 142 -157 l-38 -24 ZM45 -9 q57 58 99 174 l40 -17 q-55 -131 -99 -180 l-40 23 ZM624 -18 q36 0 47 18 q10 19 13 88 q19 -12 43 -18 q-5 -80 -23 -105 q-19 -25 -77 -25 l-229 0 q-71 0 -94 13 q-24 14 -24 58 l0 143 l47 0 l0 -143 q0 -18 13 -23 q13 -6 58 -6 l226 0 ZM841 172 q55 -100 88 -184 l-45 -17 q-38 98 -86 189 l43 12 Z" /><glyph glyph-name="" unicode="&#x6210;" d="M863 668 q-72 64 -189 121 l28 31 q124 -61 189 -118 l-28 -34 ZM880 499 q-63 -193 -180 -339 q66 -177 158 -177 q42 0 52 189 q20 -18 42 -25 q-8 -123 -27 -167 q-21 -46 -70 -46 q-115 0 -190 184 q-103 -112 -231 -185 q-15 22 -35 38 q146 77 247 198 q-56 170 -76 435 l-380 0 l0 -145 l261 0 l-1 -24 q-7 -310 -31 -340 q-18 -21 -54 -22 q-39 -3 -122 2 q-4 29 -15 45 q52 -5 118 -5 q25 0 32 10 q18 20 25 289 l-213 0 l0 -37 q0 -304 -106 -454 q-23 23 -39 31 q96 138 96 424 l0 273 l426 0 q-4 89 -6 180 l49 0 q0 -83 5 -180 l329 0 l0 -47 l-326 0 q19 -239 65 -390 q93 128 149 297 l48 -12 Z" /><glyph glyph-name="" unicode="&#x6226;" d="M896 624 q-43 87 -129 169 l37 23 q93 -91 130 -165 l-38 -27 ZM553 809 q-52 -112 -102 -187 l-38 17 q56 92 92 187 l48 -17 ZM280 646 q-2 79 -41 173 l44 10 q42 -97 45 -171 l-48 -12 ZM124 629 q-15 73 -74 166 l40 14 q60 -83 78 -163 l-44 -17 ZM125 297 l156 0 l0 112 l-156 0 l0 -112 ZM125 449 l156 0 l0 111 l-156 0 l0 -111 ZM481 560 l-155 0 l0 -111 l155 0 l0 111 ZM481 409 l-155 0 l0 -112 l155 0 l0 112 ZM327 109 l0 -182 l-47 0 l0 182 l-234 0 l0 44 l234 0 l0 103 l-198 0 l0 345 l443 0 l0 -345 l-198 0 l0 -103 l232 0 l0 -44 l-232 0 ZM915 444 q-53 -156 -148 -282 q51 -177 121 -181 q35 -1 49 162 q16 -14 38 -23 q-23 -197 -86 -194 q-98 4 -157 190 q-102 -120 -222 -182 q-19 23 -35 35 q134 64 242 200 q-34 128 -53 330 l-123 -15 l-7 44 l126 16 q-12 132 -18 284 l46 0 q5 -156 16 -279 l247 31 l7 -44 l-250 -31 q20 -181 45 -288 q80 116 123 248 l39 -21 Z" /><glyph glyph-name="" unicode="&#x2f3f;&#x624b;" d="M946 267 l-421 0 l0 -259 q0 -55 -46 -67 q-36 -11 -200 -9 q-6 23 -21 48 q141 -3 188 -1 q30 1 30 29 l0 259 l-420 0 l0 47 l420 0 l0 189 l-355 0 l0 46 l355 0 l0 175 q-184 -18 -339 -25 q-3 20 -13 42 q503 28 681 89 l38 -39 q-120 -37 -318 -61 l0 -181 l367 0 l0 -46 l-367 0 l0 -189 l421 0 l0 -47 Z" /><glyph glyph-name="" unicode="&#x6444;" d="M800 747 l-349 0 l0 -79 l349 0 l0 79 ZM451 424 l349 13 l0 75 l-349 0 l0 -88 ZM800 632 l-349 0 l0 -84 l349 0 l0 84 ZM407 747 l-85 0 l0 40 l617 0 l0 -40 l-95 0 l0 -308 l107 5 l-1 -37 l-106 -5 l0 -53 l-44 0 l0 50 l-455 -21 l-7 42 l69 2 l0 325 ZM219 337 l0 -345 q0 -42 -27 -53 q-21 -9 -106 -9 q-4 22 -16 45 l88 0 q16 1 16 17 l0 329 q-73 -26 -119 -41 l-15 47 l134 42 l0 237 l-120 0 l0 46 l120 0 l0 181 l45 0 l0 -181 l97 0 l0 -46 l-97 0 l0 -222 l89 30 l8 -43 l-97 -34 ZM552 3 q-28 30 -77 75 q-79 -96 -186 -149 q-8 16 -28 36 q98 44 181 140 q-63 54 -129 98 l30 27 q69 -48 125 -92 q48 68 73 136 l-234 0 l0 42 l253 0 l10 3 l27 -12 q-31 -108 -96 -197 q59 -51 82 -77 l-31 -30 ZM676 276 q33 -100 90 -172 q72 76 103 172 l-193 0 ZM922 308 q-35 -135 -129 -235 q69 -73 164 -108 q-21 -17 -32 -38 q-89 37 -162 117 q-85 -78 -193 -116 q-9 18 -26 35 q110 37 192 112 q-64 85 -100 201 l-29 0 l0 42 l281 0 l9 2 l25 -12 Z" /><glyph glyph-name="" unicode="&#x64ae;" d="M830 764 l-374 0 l0 -83 l374 0 l0 83 ZM830 644 l-374 0 l0 -86 l374 0 l0 86 ZM876 520 l-465 0 l0 282 l465 0 l0 -282 ZM215 308 l0 -315 q0 -42 -27 -53 q-22 -9 -108 -9 q-3 21 -16 45 q43 -1 89 -1 q17 1 17 17 l0 297 q-57 -24 -106 -43 l-17 47 q44 15 123 46 l0 240 l-114 0 l0 45 l114 0 l0 209 l45 0 l0 -209 l101 0 l0 -45 l-101 0 l0 -222 l96 39 l9 -46 l-105 -42 ZM428 70 q20 4 72 12 l76 13 l0 72 l-148 0 l0 -97 ZM428 411 l0 -81 l148 0 l0 81 l-148 0 ZM428 204 l148 0 l0 89 l-148 0 l0 -89 ZM619 62 l0 -135 l-43 0 l0 127 l-266 -49 l-9 44 q70 11 84 14 l0 348 l-71 0 l0 42 l644 0 l0 -42 l-339 0 l0 -309 l41 7 l4 -38 l-45 -9 ZM717 296 q28 -102 82 -183 q53 78 80 183 l-162 0 ZM929 330 q-29 -149 -103 -253 q64 -78 141 -114 q-18 -13 -30 -35 q-77 40 -137 115 q-64 -76 -146 -117 q-12 21 -26 34 q86 42 146 118 q-64 93 -98 218 l-32 0 l0 41 l249 0 l9 2 l27 -9 Z" /><glyph glyph-name="" unicode="&#x6599;&#xf9be;" d="M683 591 q-54 64 -160 127 l27 34 q110 -65 158 -124 l-25 -37 ZM637 350 q-62 62 -168 117 l23 34 q109 -54 169 -112 l-24 -39 ZM429 757 q-59 -170 -84 -220 l-33 12 q42 101 72 221 l45 -13 ZM126 542 q-12 99 -60 216 l38 9 q48 -108 63 -214 l-41 -11 ZM266 433 q83 -104 153 -215 l-35 -39 q-28 59 -118 195 l0 -446 l-46 0 l0 441 q-70 -199 -152 -304 q-12 27 -27 43 q105 127 168 343 l-155 0 l0 46 l166 0 l0 334 l46 0 l0 -334 l173 0 l0 -46 l-173 0 l0 -18 ZM823 216 l0 -288 l-46 0 l0 280 l-331 -61 l-9 44 l340 61 l0 580 l46 0 l0 -571 l126 22 l8 -43 l-134 -24 Z" /><glyph glyph-name="" unicode="&#x65b0;" d="M502 682 l-435 0 l0 43 l213 0 q-24 52 -52 98 l43 12 q44 -71 61 -110 l170 0 l0 -43 ZM184 503 q-9 75 -44 157 l40 9 q37 -77 46 -154 l-42 -12 ZM193 232 q-38 -115 -104 -194 q-21 17 -37 26 q62 68 99 178 l42 -10 ZM310 286 l0 -279 q0 -37 -23 -48 q-19 -8 -94 -8 q-5 20 -17 44 q37 -1 77 -1 q13 0 13 13 l0 279 l-209 0 l0 44 l209 0 l0 121 l-213 0 l0 43 l280 0 q39 95 60 177 l46 -12 q-39 -114 -60 -165 l139 0 l0 -43 l-208 0 l0 -121 l200 0 l0 -44 l-200 0 ZM399 244 q59 -90 86 -166 l-38 -19 q-23 69 -84 168 l36 17 ZM951 447 l-119 0 l0 -515 l-47 0 l0 515 l-184 0 l0 -48 q0 -314 -109 -464 q-12 17 -36 30 q100 137 100 434 l0 337 q218 35 316 74 l42 -36 q-126 -44 -313 -70 l0 -212 l350 0 l0 -45 Z" /><glyph glyph-name="" unicode="&#x65c5;" d="M259 679 q-22 69 -59 139 l42 14 q40 -72 61 -136 l-44 -17 ZM404 466 q0 -19 -1 -26 q-10 -433 -39 -474 q-18 -25 -52 -26 q-40 -2 -90 1 q-2 27 -13 45 q38 -4 87 -4 q20 0 28 13 q23 32 34 425 l-139 0 q-6 -312 -142 -489 q-10 12 -36 29 q134 171 134 492 l0 163 l-117 0 l0 45 l385 0 l0 -45 l-224 0 l0 -149 l185 0 ZM555 647 q-43 -88 -96 -150 q-17 17 -39 30 q103 111 155 307 l47 -10 q-17 -61 -46 -132 l364 0 l0 -45 l-385 0 ZM937 406 q-80 -77 -171 -138 q68 -209 189 -289 q-20 -15 -34 -38 q-189 137 -250 554 q-62 -16 -106 -25 l0 -455 l167 80 q2 -30 8 -43 q-209 -104 -224 -119 q-6 17 -26 39 q29 26 29 71 l0 457 q248 54 357 110 l43 -35 q-80 -35 -208 -70 q17 -104 42 -196 q94 70 148 127 l36 -30 Z" /><glyph glyph-name="" unicode="&#x2f47;&#x65e5;" d="M769 50 l0 311 l-530 0 l0 -311 l530 0 ZM239 712 l0 -304 l530 0 l0 304 l-530 0 ZM818 760 l0 -816 l-49 0 l0 59 l-530 0 l0 -65 l-48 0 l0 822 l627 0 Z" /><glyph glyph-name="" unicode="&#x660e;" d="M134 722 l0 -219 l194 0 l0 219 l-194 0 ZM328 228 l0 230 l-194 0 l0 -230 l194 0 ZM134 183 l0 -97 l-46 0 l0 681 l285 0 l0 -584 l-239 0 ZM864 295 l0 204 l-307 0 l0 -63 q0 -76 -8 -141 l315 0 ZM557 743 l0 -199 l307 0 l0 199 l-307 0 ZM911 3 q0 -52 -38 -65 q-33 -9 -168 -9 q-4 18 -19 48 q103 -3 152 0 q26 1 26 26 l0 247 l-321 0 q-36 -212 -182 -329 q-17 24 -35 33 q184 149 184 483 l0 352 l401 0 l0 -786 Z" /><glyph glyph-name="" unicode="&#x6642;" d="M131 720 l0 -249 l176 0 l0 249 l-176 0 ZM307 171 l0 255 l-176 0 l0 -255 l176 0 ZM353 126 l-222 0 l0 -78 l-47 0 l0 717 l269 0 l0 -639 ZM488 245 q100 -98 136 -176 l-41 -27 q-40 87 -133 180 l38 23 ZM818 467 l0 -130 l129 0 l0 -44 l-129 0 l0 -300 q0 -46 -35 -57 q-26 -7 -159 -7 q-3 21 -17 46 q69 -2 142 -2 q22 1 22 20 l0 300 l-394 0 l0 44 l394 0 l0 130 l-401 0 l0 45 l267 0 l0 150 l-220 0 l0 44 l220 0 l0 128 l47 0 l0 -128 l226 0 l0 -44 l-226 0 l0 -150 l276 0 l0 -45 l-142 0 Z" /><glyph glyph-name="" unicode="&#x666f;" d="M775 755 l-550 0 l0 -74 l550 0 l0 74 ZM775 643 l-550 0 l0 -77 l550 0 l0 77 ZM823 528 l-644 0 l0 265 l644 0 l0 -265 ZM349 96 q-102 -84 -258 -150 q-22 25 -36 36 q163 60 249 132 l45 -18 ZM247 189 l507 0 l0 117 l-507 0 l0 -117 ZM523 149 l0 -169 q0 -38 -29 -46 q-24 -8 -137 -8 q-2 15 -17 40 q90 -3 118 -1 q18 1 18 16 l0 168 l-275 0 l0 197 l601 0 l0 -197 l-279 0 ZM664 109 q165 -60 270 -132 l-31 -35 q-104 74 -268 137 l29 30 ZM940 451 l0 -42 l-881 0 l0 42 l420 0 q-13 25 -35 56 l41 16 q32 -41 46 -72 l409 0 Z" /><glyph glyph-name="" unicode="&#x667a;" d="M457 364 q-63 54 -171 121 q-57 -106 -206 -171 q-13 19 -31 35 q178 72 214 200 l-207 0 l0 42 l215 0 q2 16 2 45 l0 67 l-105 0 q-27 -50 -67 -97 l-40 25 q74 77 115 203 l45 -10 q-14 -40 -31 -79 l287 0 l0 -42 l-158 0 l0 -67 q0 -13 -2 -45 l187 0 l0 -42 l-194 0 l-9 -30 q110 -60 187 -118 l-31 -37 ZM254 289 l0 -118 l495 0 l0 118 l-495 0 ZM749 9 l0 122 l-495 0 l0 -122 l495 0 ZM207 331 l591 0 l0 -401 l-49 0 l0 36 l-495 0 l0 -39 l-47 0 l0 404 ZM835 702 l-239 0 l0 -239 l239 0 l0 239 ZM883 746 l0 -327 l-333 0 l0 327 l333 0 Z" /><glyph glyph-name="" unicode="&#x66f8;" d="M237 188 l0 -74 l533 0 l0 74 l-533 0 ZM770 -2 l0 79 l-533 0 l0 -79 l533 0 ZM190 227 l628 0 l0 -300 l-48 0 l0 33 l-533 0 l0 -35 l-47 0 l0 302 ZM521 539 l245 0 l0 72 l-245 0 l0 -72 ZM521 651 l245 0 l0 70 l-245 0 l0 -70 ZM941 324 l0 -41 l-880 0 l0 41 l412 0 l0 71 l-346 0 l0 38 l346 0 l0 68 l-315 0 l0 38 l315 0 l0 72 l-411 0 l0 40 l411 0 l0 70 l-303 0 l0 38 l303 0 l0 75 l48 0 l0 -75 l292 0 l0 -108 l126 0 l0 -40 l-126 0 l0 -110 l-292 0 l0 -68 l356 0 l0 -38 l-356 0 l0 -71 l420 0 Z" /><glyph glyph-name="" unicode="&#x6700;" d="M776 762 l-546 0 l0 -86 l546 0 l0 86 ZM776 638 l-546 0 l0 -89 l546 0 l0 89 ZM824 511 l-641 0 l0 290 l641 0 l0 -290 ZM200 49 q123 13 210 25 l0 76 l-210 0 l0 -101 ZM200 402 l0 -85 l210 0 l0 85 l-210 0 ZM200 190 l210 0 l0 87 l-210 0 l0 -87 ZM457 40 l0 -113 l-47 0 l0 106 l-353 -46 l-6 44 l103 12 l0 359 l-100 0 l0 42 l889 0 l0 -42 l-486 0 l0 -322 l58 7 l0 -39 l-58 -8 ZM594 281 q40 -104 122 -181 q88 77 132 181 l-254 0 ZM905 312 q-45 -138 -156 -241 q87 -72 206 -104 q-17 -17 -29 -39 q-121 38 -212 114 q-90 -71 -207 -112 q-13 25 -26 36 q109 34 202 105 q-88 87 -134 209 l3 1 l-52 0 l0 42 l368 0 l10 3 l27 -14 Z" /><glyph glyph-name="" unicode="&#x6709;" d="M766 470 l-452 0 l0 -126 l452 0 l0 126 ZM766 173 l0 128 l-452 0 l0 -128 l452 0 ZM390 652 q-31 -70 -73 -138 l496 0 l0 -515 q0 -50 -36 -60 q-29 -9 -172 -9 q-3 12 -17 48 q98 -4 155 -1 q23 0 23 23 l0 129 l-452 0 l0 -202 l-47 0 l0 515 q-81 -110 -187 -186 q-8 15 -30 37 q181 125 290 359 l-270 0 l0 46 l290 0 q25 58 47 134 l47 -11 q-22 -72 -44 -123 l525 0 l0 -46 l-545 0 Z" /><glyph glyph-name="" unicode="&#x670d;" d="M348 314 l0 197 l-184 0 l0 -72 q0 -59 -3 -125 l187 0 ZM164 749 l0 -192 l184 0 l0 192 l-184 0 ZM394 -8 q0 -44 -31 -57 q-26 -9 -130 -8 q-2 20 -15 45 q88 -2 110 0 q20 1 20 21 l0 275 l-190 0 q-15 -219 -76 -343 q-18 18 -40 24 q77 156 77 490 l0 355 l275 0 l0 -802 ZM626 411 q47 -151 128 -265 q84 117 123 265 l-251 0 ZM930 447 q-42 -196 -149 -337 q79 -97 179 -148 q-18 -15 -33 -37 q-93 51 -173 150 q-75 -86 -166 -139 q-10 17 -29 35 q91 48 168 140 q-91 126 -144 300 l-36 0 l0 -484 l-47 0 l0 864 l402 0 l0 -193 q0 -41 -31 -51 q-26 -8 -148 -8 q-3 15 -18 43 q109 -2 131 0 q20 0 20 16 l0 148 l-309 0 l0 -290 l346 0 l9 2 l28 -11 Z" /><glyph glyph-name="" unicode="&#x671f;" d="M192 217 l215 0 l0 122 l-215 0 l0 -122 ZM192 647 l0 -106 l215 0 l0 106 l-215 0 ZM192 380 l215 0 l0 119 l-215 0 l0 -119 ZM534 173 l-489 0 l0 44 l102 0 l0 430 l-88 0 l0 44 l88 0 l0 130 l45 0 l0 -130 l215 0 l0 130 l46 0 l0 -130 l77 0 l0 -44 l-77 0 l0 -430 l81 0 l0 -44 ZM238 131 q-53 -119 -147 -204 q-29 23 -40 29 q92 76 141 188 l46 -13 ZM371 141 q70 -82 102 -150 l-40 -24 q-30 69 -100 153 l38 21 ZM873 314 l0 190 l-239 0 l0 -84 q0 -50 -3 -106 l242 0 ZM634 735 l0 -186 l239 0 l0 186 l-239 0 ZM920 1 q0 -48 -33 -59 q-28 -10 -142 -10 q-3 22 -17 48 q100 -2 124 0 q21 1 21 22 l0 267 l-245 0 q-19 -225 -99 -348 q-18 20 -39 29 q98 149 98 470 l0 361 l332 0 l0 -780 Z" /><glyph glyph-name="" unicode="&#x2f4a;&#x6728;" d="M548 532 q163 -307 412 -449 q-20 -16 -36 -40 q-229 142 -400 441 l0 -557 l-49 0 l0 558 q-161 -300 -402 -444 q-15 21 -36 39 q251 135 414 452 l-379 0 l0 47 l403 0 l0 253 l49 0 l0 -253 l407 0 l0 -47 l-383 0 Z" /><glyph glyph-name="" unicode="&#x672c;" d="M590 564 q130 -309 369 -431 q-16 -13 -36 -40 q-247 141 -380 471 l-19 0 l0 -392 l249 0 l0 -48 l-249 0 l0 -197 l-49 0 l0 197 l-247 0 l0 48 l247 0 l0 392 l-21 0 q-131 -318 -372 -473 q-15 22 -34 38 q225 130 357 435 l-335 0 l0 48 l405 0 l0 220 l49 0 l0 -220 l409 0 l0 -48 l-343 0 Z" /><glyph glyph-name="" unicode="&#x676d;" d="M638 667 q-26 68 -78 156 l42 16 q62 -105 80 -154 l-44 -18 ZM942 602 l-542 0 l0 46 l542 0 l0 -46 ZM367 288 q-39 73 -105 171 l0 -529 l-46 0 l0 529 q-66 -218 -146 -328 q-5 12 -27 42 q110 148 166 394 l-151 0 l0 46 l158 0 l0 221 l46 0 l0 -221 l112 0 l0 -46 l-112 0 l0 -45 q66 -82 135 -193 l-30 -41 ZM869 -21 q19 0 29 7 q10 9 13 35 q3 24 5 133 q17 -15 39 -22 q0 -104 -7 -141 q-7 -31 -26 -43 q-18 -11 -50 -11 l-52 0 q-33 0 -52 15 q-20 13 -20 92 l0 400 l-216 0 l0 -140 q0 -259 -182 -384 q-13 25 -31 37 q165 114 165 348 l0 184 l312 0 l0 -454 q0 -45 8 -51 q9 -5 24 -5 l41 0 Z" /><glyph glyph-name="" unicode="&#x6795;" d="M328 328 q-19 44 -84 153 l0 -553 l-46 0 l0 537 q-59 -212 -132 -320 q-11 24 -30 43 q104 146 155 403 l-138 0 l0 46 l145 0 l0 196 l46 0 l0 -196 l134 0 l0 -46 l-134 0 l0 -46 q32 -42 118 -180 l-34 -37 ZM659 588 q-23 -428 -317 -662 q-16 16 -42 30 q289 226 312 632 l-163 0 l0 -157 l-44 0 l0 201 l208 0 q1 16 1 47 l0 154 l47 0 l0 -154 q0 -31 -1 -47 l255 0 l0 -201 l-46 0 l0 157 l-210 0 ZM870 -16 q25 0 33 28 q7 27 10 128 q16 -13 43 -21 q-5 -109 -20 -143 q-16 -36 -63 -36 l-132 0 q-49 0 -66 16 q-17 16 -17 63 l0 434 l45 0 l0 -434 q0 -22 8 -28 q8 -7 34 -7 l125 0 Z" /><glyph glyph-name="" unicode="&#x6821;" d="M663 691 q-30 65 -85 125 l38 20 q61 -63 88 -123 l-41 -22 ZM942 636 l-544 0 l0 45 l544 0 l0 -45 ZM759 598 q122 -120 177 -213 l-37 -28 q-57 101 -176 217 l36 24 ZM584 576 q-66 -128 -173 -225 q-11 12 -34 27 q108 95 163 217 l44 -19 ZM254 520 q52 -77 115 -193 l-33 -38 q-15 39 -82 163 l0 -524 l-46 0 l0 526 q-62 -222 -140 -334 q-10 23 -30 43 q108 147 161 404 l-128 0 l0 45 l137 0 l0 220 l46 0 l0 -220 l119 0 l0 -45 l-119 0 l0 -47 ZM818 411 q-42 -150 -129 -261 q116 -125 265 -175 q-22 -19 -34 -42 q-146 55 -261 180 q-102 -114 -257 -187 q-16 23 -32 34 q161 76 258 189 q-89 110 -142 254 l41 13 q50 -132 131 -231 q78 100 112 237 l48 -11 Z" /><glyph glyph-name="" unicode="&#x682a;" d="M359 321 q-31 63 -96 172 l0 -564 l-47 0 l0 546 q-66 -218 -145 -330 q-13 25 -30 43 q108 143 168 403 l-146 0 l0 46 l153 0 l0 196 l47 0 l0 -196 l136 0 l0 -46 l-136 0 l0 -36 q69 -97 127 -197 l-31 -37 ZM738 347 q93 -217 234 -321 q-25 -21 -36 -38 q-138 115 -234 344 l0 -404 l-47 0 l0 399 q-103 -228 -268 -347 q-12 20 -34 37 q166 108 266 330 l-214 0 l0 45 l250 0 l0 200 l-143 0 q-31 -100 -70 -162 q-17 15 -41 24 q74 112 107 334 l46 -8 q-12 -73 -29 -143 l130 0 l0 196 l47 0 l0 -196 l202 0 l0 -45 l-202 0 l0 -200 l243 0 l0 -45 l-207 0 Z" /><glyph glyph-name="" unicode="&#x683c;" d="M342 343 q-18 36 -86 147 l0 -562 l-47 0 l0 550 q-65 -223 -143 -332 q-14 27 -29 43 q108 145 164 402 l-144 0 l0 46 l152 0 l0 196 l47 0 l0 -196 l120 0 l0 -46 l-120 0 l0 -39 q42 -56 118 -170 l-32 -39 ZM491 240 l0 -218 l324 0 l0 218 l-324 0 ZM445 284 l417 0 l0 -356 l-47 0 l0 49 l-324 0 l0 -49 l-46 0 l0 356 ZM519 663 q49 -97 138 -175 q108 87 164 192 l-292 0 l-10 -17 ZM888 707 q-64 -142 -195 -248 q116 -87 267 -132 q-14 -16 -22 -41 q-158 51 -278 147 q-129 -97 -305 -157 q-12 28 -28 41 q168 53 297 146 q-84 78 -129 159 q-44 -69 -94 -120 q-11 15 -34 35 q119 116 184 296 l44 -12 q-26 -66 -42 -97 l296 0 l10 2 l29 -19 Z" /><glyph glyph-name="" unicode="&#x68ee;" d="M475 661 q-142 -163 -395 -248 q-16 26 -32 39 q234 69 378 219 l-311 0 l0 45 l360 0 l0 118 l47 0 l0 -118 l367 0 l0 -45 l-321 0 q143 -146 383 -211 q-18 -13 -32 -41 q-248 75 -397 239 l0 -256 l-47 0 l0 259 ZM441 107 q-55 55 -140 124 l0 -297 l-47 0 l0 292 q-84 -140 -189 -209 q-8 18 -25 41 q127 79 205 231 l-165 0 l0 44 l174 0 l0 112 l47 0 l0 -112 l174 0 l0 -44 l-174 0 l0 -12 q92 -65 174 -138 l-34 -32 ZM738 287 q93 -149 225 -229 q-19 -17 -34 -39 q-106 76 -200 212 l0 -306 l-47 0 l0 301 q-96 -139 -216 -209 q-16 23 -31 34 q148 78 239 236 l-165 0 l0 44 l173 0 l0 114 l47 0 l0 -114 l195 0 l0 -44 l-186 0 Z" /><glyph glyph-name="" unicode="&#x696d;" d="M249 651 q-25 69 -89 154 l41 14 q67 -83 90 -151 l-42 -17 ZM851 803 q-57 -106 -93 -157 l-39 15 q48 72 85 156 l47 -14 ZM336 603 q44 -61 61 -115 l-32 -9 l265 0 l-24 8 q33 52 61 116 l-331 0 ZM576 172 q145 -130 380 -188 q-18 -17 -32 -42 q-251 74 -402 226 l0 -241 l-47 0 l0 238 q-144 -145 -397 -218 q-10 20 -32 41 q232 59 374 184 l-351 0 l0 43 l406 0 l0 91 l-311 0 l0 41 l311 0 l0 90 l-361 0 l0 42 l236 0 q-17 57 -58 114 l39 10 l-257 0 l0 43 l305 0 l0 188 l47 0 l0 -188 l146 0 l0 188 l46 0 l0 -188 l311 0 l0 -43 l-235 0 l23 -7 q-42 -78 -69 -117 l246 0 l0 -42 l-372 0 l0 -90 l323 0 l0 -41 l-323 0 l0 -91 l411 0 l0 -43 l-357 0 Z" /><glyph glyph-name="" unicode="&#x6b4c;" d="M641 619 q-38 -122 -91 -200 q-21 16 -42 25 q94 129 135 390 l48 -8 q-12 -73 -36 -163 l250 0 l9 3 l32 -11 q-32 -166 -64 -243 l-41 12 q30 74 49 195 l-249 0 ZM150 224 l0 -125 l148 0 l0 125 l-148 0 ZM150 59 l0 -48 l-43 0 l0 253 l233 0 l0 -205 l-190 0 ZM467 340 l0 -357 q0 -38 -28 -47 q-21 -8 -121 -8 q-4 16 -16 40 q50 -1 104 -1 q16 1 16 15 l0 358 l-373 0 l0 44 l367 0 l0 349 l-357 0 l0 44 l486 0 l0 -44 l-84 0 l0 -349 l96 0 l0 -44 l-90 0 ZM301 622 l-142 0 l0 -120 l142 0 l0 120 ZM343 661 l0 -197 l-224 0 l0 197 l224 0 ZM756 486 q0 -53 -2 -82 q46 -297 218 -443 q-23 -16 -34 -38 q-146 131 -201 347 q-43 -210 -204 -349 q-12 17 -36 34 q213 180 213 531 l0 65 l46 0 l0 -65 Z" /><glyph glyph-name="" unicode="&#x6b74;" d="M709 282 l0 248 q-68 -138 -165 -210 q-14 18 -30 32 q99 62 168 200 l-119 0 l0 42 l146 0 l0 108 l43 0 l0 -108 l170 0 l0 -42 l-144 0 q64 -142 169 -198 q-17 -13 -31 -34 q-101 65 -164 204 l0 -242 l-43 0 ZM366 282 l0 220 q-60 -123 -140 -190 q-17 21 -31 31 q95 70 156 209 l-129 0 l0 42 l144 0 l0 108 l43 0 l0 -108 l124 0 l0 -42 l-124 0 l0 -32 q81 -57 119 -96 l-27 -35 q-24 28 -92 88 l0 -195 l-43 0 ZM182 490 q0 -375 -99 -560 q-13 13 -39 24 q92 173 92 537 l0 287 l803 0 l0 -45 l-757 0 l0 -243 ZM586 0 l357 0 l0 -45 l-766 0 l0 45 l141 0 l0 226 l46 0 l0 -226 l176 0 l0 300 l46 0 l0 -112 l255 0 l0 -44 l-255 0 l0 -144 Z" /><glyph glyph-name="" unicode="&#x6c5f;" d="M231 405 q-71 54 -183 108 l27 36 q111 -52 182 -104 l-26 -40 ZM80 -27 q93 132 190 326 l35 -32 q-99 -193 -184 -326 l-41 32 ZM127 820 q121 -65 181 -115 l-30 -39 q-67 60 -180 121 l29 33 ZM953 43 l0 -48 l-618 0 l0 48 l268 0 l0 642 l-224 0 l0 48 l513 0 l0 -48 l-238 0 l0 -642 l299 0 Z" /><glyph glyph-name="" unicode="&#x6c7a;" d="M274 671 q-67 65 -179 117 l28 34 q120 -55 178 -110 l-27 -41 ZM228 411 q-67 57 -183 108 l27 35 q118 -48 183 -103 l-27 -40 ZM279 270 q-86 -189 -165 -328 l-41 31 q85 137 169 327 l37 -30 ZM623 495 q0 -73 -5 -124 l201 0 l0 252 l-196 0 l0 -128 ZM656 325 q77 -275 305 -360 q-19 -15 -34 -40 q-235 96 -316 395 q-45 -261 -316 -394 q-16 21 -35 35 q258 124 303 364 l-261 0 l0 46 l267 0 q6 49 6 125 l0 127 l-214 0 l0 46 l214 0 l0 162 l48 0 l0 -162 l244 0 l0 -298 l87 0 l0 -46 l-298 0 Z" /><glyph glyph-name="" unicode="&#x6d3b;" d="M230 405 q-74 51 -182 109 l26 34 q126 -65 183 -104 l-27 -39 ZM75 -27 q93 131 191 326 l35 -31 q-91 -180 -184 -327 l-42 32 ZM123 820 q118 -56 191 -106 l-28 -39 q-77 54 -190 112 l27 33 ZM828 260 l-391 0 l0 -244 l391 0 l0 244 ZM661 493 l0 -188 l213 0 l0 -372 l-46 0 l0 38 l-391 0 l0 -44 l-45 0 l0 378 l223 0 l0 188 l-300 0 l0 46 l300 0 l0 189 q-70 -11 -235 -28 q-6 23 -14 40 q350 38 497 87 l39 -37 q-87 -29 -241 -54 l0 -197 l287 0 l0 -46 l-287 0 Z" /><glyph glyph-name="" unicode="&#x6d41;" d="M895 374 q-20 32 -54 77 q-470 -32 -497 -43 q-5 21 -15 49 q42 10 59 27 q30 26 137 167 l-211 0 l0 45 l299 0 q-21 67 -50 123 l43 11 q37 -71 57 -134 l279 0 l0 -45 l-360 0 q-71 -96 -143 -181 l369 22 q-38 48 -92 106 l37 22 q117 -120 182 -220 l-40 -26 ZM258 651 q-59 65 -164 135 l30 32 q108 -68 163 -131 l-29 -36 ZM226 400 q-68 63 -179 113 l27 34 q113 -48 179 -106 l-27 -41 ZM301 267 q-96 -190 -185 -326 l-40 32 q89 129 190 325 l35 -31 ZM403 365 l45 0 l0 -110 q0 -221 -150 -327 q-17 21 -35 33 q140 94 140 295 l0 109 ZM584 362 l44 0 l0 -393 l-44 0 l0 393 ZM877 -16 q18 0 26 4 q9 7 12 28 q2 20 4 103 q17 -14 36 -18 q-2 -87 -8 -113 q-6 -25 -23 -35 q-15 -9 -43 -9 l-48 0 q-31 0 -47 13 q-17 12 -17 79 l0 329 l45 0 l0 -339 q0 -32 7 -38 q5 -4 20 -4 l36 0 Z" /><glyph glyph-name="" unicode="&#x6d77;" d="M211 392 q-59 51 -163 100 l26 34 q106 -47 164 -96 l-27 -38 ZM78 -29 q66 126 138 327 l37 -27 q-53 -155 -132 -327 l-43 27 ZM126 820 q112 -48 173 -99 l-28 -37 q-68 57 -173 102 l28 34 ZM431 667 q-50 -103 -112 -176 q-28 20 -44 27 q111 116 174 316 l47 -12 q-24 -69 -43 -110 l480 0 l0 -45 l-502 0 ZM583 499 q84 -61 124 -121 l-32 -22 q-39 61 -122 123 l30 20 ZM653 129 q-40 63 -126 135 l32 19 q86 -66 127 -132 l-33 -22 ZM808 114 q11 81 16 183 l-401 0 q-7 -63 -26 -183 l411 0 ZM452 509 q-6 -53 -22 -167 l396 0 q5 77 9 167 l-383 0 ZM869 297 q-5 -75 -14 -183 l72 0 l0 -44 l-78 0 q-13 -78 -34 -105 q-22 -26 -64 -29 q-42 -3 -128 4 q-4 28 -13 43 q67 -6 126 -6 q28 0 38 14 q15 17 27 79 l-460 0 q18 88 37 227 l-95 0 l0 45 l102 0 q13 98 26 211 l471 0 l-1 -27 q-4 -96 -9 -184 l83 0 l0 -45 l-86 0 Z" /><glyph glyph-name="" unicode="&#x6dd8;" d="M256 693 q-54 43 -154 92 l32 33 q94 -41 154 -88 l-32 -37 ZM194 429 q-55 40 -149 85 l30 33 q88 -37 149 -80 l-30 -38 ZM75 -19 q73 133 142 321 l38 -29 q-62 -173 -136 -323 l-44 31 ZM405 253 l0 -145 l125 0 l0 199 l-229 0 l0 41 l229 0 l0 117 l-88 0 q-25 -43 -65 -90 q-13 10 -40 22 q75 78 128 208 l42 -10 q-17 -43 -41 -89 l286 0 l0 -41 l-178 0 l0 -117 l229 0 l0 -41 l-229 0 l0 -199 l130 0 l0 145 l43 0 l0 -186 l-385 0 l0 186 l43 0 ZM914 649 q-10 -638 -50 -689 q-24 -30 -70 -33 q-43 -3 -148 3 q-4 31 -15 47 q79 -6 150 -6 q29 0 39 15 q38 43 47 648 l-475 0 q-60 -104 -119 -167 q-14 10 -41 27 q126 128 202 340 l46 -12 q-24 -64 -63 -143 l497 0 l0 -30 Z" /><glyph glyph-name="" unicode="&#x70b9;" d="M778 477 l-558 0 l0 -209 l558 0 l0 209 ZM826 222 l-652 0 l0 301 l293 0 l0 310 l48 0 l0 -118 l390 0 l0 -45 l-390 0 l0 -147 l311 0 l0 -301 ZM51 -53 q82 70 142 202 l44 -12 q-63 -137 -143 -211 l-43 21 ZM399 131 q24 -106 24 -186 l-48 -8 q0 89 -23 191 l47 3 ZM603 137 q57 -110 73 -187 l-46 -12 q-16 79 -71 189 l44 10 ZM805 154 q92 -107 134 -199 l-44 -19 q-41 93 -132 201 l42 17 Z" /><glyph glyph-name="" unicode="&#x7121;" d="M750 667 l-143 0 l0 -193 l143 0 l0 193 ZM750 429 l-143 0 l0 -195 l143 0 l0 195 ZM245 234 l135 0 l0 195 l-135 0 l0 -195 ZM423 429 l0 -195 l141 0 l0 195 l-141 0 ZM564 474 l0 193 l-141 0 l0 -193 l141 0 ZM245 474 l135 0 l0 193 l-135 0 l0 -193 ZM200 641 q-50 -64 -109 -114 q-18 18 -39 32 q139 110 216 274 l47 -13 q-28 -58 -62 -108 l653 0 l0 -45 l-110 0 l0 -193 l115 0 l0 -45 l-115 0 l0 -195 l143 0 l0 -45 l-879 0 l0 45 l140 0 l0 195 l-111 0 l0 45 l111 0 l0 167 ZM52 -55 q80 69 130 189 l45 -12 q-57 -128 -132 -196 l-43 19 ZM399 117 q21 -101 23 -175 l-46 -7 q-2 90 -22 179 l45 3 ZM605 123 q49 -97 67 -178 l-46 -11 q-22 92 -66 181 l45 8 ZM811 139 q99 -116 140 -195 l-46 -20 q-48 96 -138 198 l44 17 Z" /><glyph glyph-name="" unicode="&#x7269;" d="M414 342 l-136 -44 l0 -371 l-46 0 l0 356 l-175 -56 l-15 46 q108 31 190 57 l0 245 l-106 0 q-25 -107 -49 -162 q-21 14 -40 22 q53 113 76 340 l45 -8 q-11 -89 -23 -146 l97 0 l0 211 l46 0 l0 -211 l115 0 l0 -46 l-115 0 l0 -230 l129 40 l7 -43 ZM941 658 q-1 -22 -2 -28 q-31 -593 -89 -661 q-24 -28 -66 -31 q-43 -3 -114 3 q-2 29 -13 47 q50 -4 113 -4 q26 0 39 15 q52 57 83 613 l-74 0 q-94 -487 -334 -672 q-18 18 -42 30 q239 174 332 642 l-103 0 q-87 -321 -257 -464 q-17 18 -40 28 q168 131 253 436 l-107 0 q-54 -121 -120 -197 q-11 12 -39 29 q122 129 183 388 l46 -8 q-22 -90 -51 -166 l402 0 Z" /><glyph glyph-name="" unicode="&#x2f63;&#x751f;" d="M943 8 l0 -47 l-883 0 l0 47 l417 0 l0 285 l-313 0 l0 47 l313 0 l0 245 l-253 0 q-51 -106 -112 -175 q-15 12 -43 28 q121 131 188 375 l49 -10 q-24 -84 -61 -172 l232 0 l0 202 l49 0 l0 -202 l372 0 l0 -46 l-372 0 l0 -245 l337 0 l0 -47 l-337 0 l0 -285 l417 0 Z" /><glyph glyph-name="" unicode="&#x2f64;&#x7528;" d="M829 287 l0 193 l-303 0 l0 -193 l303 0 ZM478 287 l0 193 l-269 0 l0 -82 q0 -60 -4 -111 l273 0 ZM209 714 l0 -188 l269 0 l0 188 l-269 0 ZM829 714 l-303 0 l0 -188 l303 0 l0 188 ZM877 5 q0 -52 -41 -65 q-32 -10 -183 -8 q-1 18 -17 47 q110 -3 167 0 q26 0 26 26 l0 236 l-303 0 l0 -306 l-48 0 l0 306 l-277 0 q-26 -207 -125 -320 q-13 21 -37 34 q122 137 122 443 l0 362 l716 0 l0 -755 Z" /><glyph glyph-name="" unicode="&#x753b;" d="M892 719 l-781 0 l0 45 l781 0 l0 -45 ZM298 187 l177 0 l0 159 l-177 0 l0 -159 ZM298 388 l177 0 l0 158 l-177 0 l0 -158 ZM695 546 l-176 0 l0 -158 l176 0 l0 158 ZM695 346 l-176 0 l0 -159 l176 0 l0 159 ZM255 144 l0 444 l484 0 l0 -444 l-484 0 ZM901 531 l0 -600 l-48 0 l0 47 l-753 0 l0 544 l49 0 l0 -498 l704 0 l0 507 l48 0 Z" /><glyph glyph-name="" unicode="&#x7565;" d="M125 707 l0 -248 l95 0 l0 248 l-95 0 ZM352 707 l-94 0 l0 -248 l94 0 l0 248 ZM352 147 l0 271 l-94 0 l0 -271 l94 0 ZM125 147 l95 0 l0 271 l-95 0 l0 -271 ZM393 103 l-268 0 l0 -77 l-41 0 l0 725 l309 0 l0 -648 ZM556 250 l0 -221 l294 0 l0 221 l-294 0 ZM511 294 l385 0 l0 -356 l-46 0 l0 47 l-294 0 l0 -47 l-45 0 l0 356 ZM581 672 q44 -97 123 -177 q100 86 154 192 l-267 0 l-10 -15 ZM922 716 q-60 -142 -186 -252 q100 -87 231 -134 q-15 -17 -21 -43 q-135 52 -242 149 q-119 -95 -268 -150 q-5 21 -24 42 q139 49 259 139 q-74 77 -116 164 q-44 -67 -103 -124 q-13 19 -33 34 q126 114 199 301 l44 -13 q-19 -44 -46 -97 l268 0 l10 2 l28 -18 Z" /><glyph glyph-name="" unicode="&#x767a;" d="M596 423 l-205 0 l0 -170 l205 0 l0 170 ZM644 423 l0 -170 l253 0 l0 -46 l-253 0 l0 -191 q0 -22 8 -29 q9 -6 38 -6 l136 0 q27 0 34 24 q8 23 10 110 q18 -15 45 -21 q-4 -95 -20 -126 q-17 -33 -65 -33 l-144 0 q-53 0 -71 16 q-19 16 -19 65 l0 191 l-209 0 q-23 -196 -272 -285 q-11 19 -32 38 q230 79 255 247 l-237 0 l0 46 l242 0 l0 170 l-119 0 l0 41 q-76 -57 -159 -93 q-14 21 -31 37 q121 48 227 146 q-65 67 -135 116 l31 27 q79 -55 136 -112 q72 77 112 158 l-276 0 l0 44 l299 0 l10 3 l32 -16 q-69 -176 -239 -305 l540 0 q-167 136 -251 347 l41 12 q30 -75 70 -136 q89 69 143 133 l39 -26 q-72 -75 -160 -139 q36 -50 77 -92 q95 70 162 143 l37 -27 q-65 -65 -171 -142 q96 -88 207 -131 q-22 -22 -34 -40 q-81 34 -155 94 l0 -42 l-132 0 Z" /><glyph glyph-name="" unicode="&#x2f69;&#x767d;" d="M795 51 l0 261 l-590 0 l0 -261 l590 0 ZM205 616 l0 -257 l590 0 l0 257 l-590 0 ZM844 664 l0 -731 l-49 0 l0 71 l-590 0 l0 -77 l-48 0 l0 737 l240 0 q42 86 66 172 l55 -14 q-44 -109 -68 -158 l394 0 Z" /><glyph glyph-name="" unicode="&#x7684;" d="M380 629 l-239 0 l0 -239 l239 0 l0 239 ZM380 78 l0 268 l-239 0 l0 -268 l239 0 ZM306 824 q-35 -103 -54 -151 l174 0 l0 -640 l-285 0 l0 -82 l-45 0 l0 722 l111 0 q32 89 48 163 l51 -12 ZM917 645 q-22 -606 -71 -663 q-24 -28 -70 -31 q-54 -4 -144 3 q-4 30 -16 47 q79 -6 147 -6 q30 0 42 15 q45 49 65 618 l-280 0 q-46 -112 -98 -186 q-7 6 -41 26 q100 130 153 372 l47 -11 q-19 -84 -45 -156 l311 0 l0 -28 ZM722 199 q-55 104 -162 233 l39 22 q117 -143 163 -229 l-40 -26 Z" /><glyph glyph-name="" unicode="&#x76db;" d="M681 832 q67 -40 113 -88 l-38 -25 q-43 50 -109 92 l34 21 ZM192 531 q-14 -186 -102 -290 q-15 19 -37 31 q94 115 94 322 l0 125 l374 0 q-11 60 -14 114 l49 0 q3 -51 13 -114 l356 0 l0 -44 l-346 0 q28 -119 86 -213 q93 82 146 179 l45 -15 q-63 -109 -166 -200 q81 -110 164 -108 q21 1 31 29 q9 27 14 99 q22 -18 40 -22 q-7 -87 -25 -120 q-19 -32 -62 -32 q-103 0 -197 123 q-74 -58 -161 -104 q-20 22 -35 35 q83 39 170 106 q-66 102 -99 243 l-336 0 l0 -103 l253 0 q0 -14 -1 -21 q-9 -181 -32 -206 q-19 -18 -50 -18 q-32 -3 -106 2 q-2 21 -12 40 q55 -5 100 -5 q23 0 29 8 q17 18 25 159 l-208 0 ZM224 -7 l154 0 l0 210 l-154 0 l0 -210 ZM423 203 l0 -210 l155 0 l0 210 l-155 0 ZM623 203 l0 -210 l157 0 l0 210 l-157 0 ZM946 -7 l0 -45 l-892 0 l0 45 l125 0 l0 252 l648 0 l0 -252 l119 0 Z" /><glyph glyph-name="" unicode="&#x771f;" d="M400 62 q-117 -78 -304 -135 q-15 19 -33 35 q190 57 291 127 l46 -27 ZM635 89 q195 -67 306 -125 l-36 -34 q-125 67 -299 126 l29 33 ZM255 164 l491 0 l0 85 l-491 0 l0 -85 ZM255 582 l0 -81 l491 0 l0 81 l-491 0 ZM255 358 l0 -72 l491 0 l0 72 l-491 0 ZM746 464 l-491 0 l0 -69 l491 0 l0 69 ZM942 164 l0 -43 l-883 0 l0 43 l150 0 l0 456 l241 0 q6 33 12 75 l-373 0 l0 44 l378 0 q7 50 9 95 l51 -7 l-12 -88 l400 0 l0 -44 l-406 0 l-13 -75 l298 0 l0 -456 l148 0 Z" /><glyph glyph-name="" unicode="&#x793e;" d="M271 675 q-39 72 -100 133 l35 22 q69 -67 102 -130 l-37 -25 ZM386 241 q-49 62 -124 140 l0 -454 l-47 0 l0 434 q-75 -78 -153 -131 q-18 33 -26 42 q207 131 308 341 l-284 0 l0 45 l310 0 l10 2 l26 -18 q-48 -114 -132 -215 q34 -32 143 -146 l-31 -40 ZM954 17 l0 -47 l-573 0 l0 47 l278 0 l0 448 l-229 0 l0 46 l229 0 l0 329 l48 0 l0 -329 l226 0 l0 -46 l-226 0 l0 -448 l247 0 Z" /><glyph glyph-name="" unicode="&#x795d;" d="M264 678 q-32 64 -95 127 l35 24 q67 -66 97 -125 l-37 -26 ZM383 239 q-39 51 -122 140 l0 -452 l-46 0 l0 437 q-74 -84 -144 -136 q-13 29 -28 42 q193 137 284 343 l-267 0 l0 45 l292 0 l10 2 l26 -18 q-43 -110 -120 -212 q82 -80 146 -152 l-31 -39 ZM475 435 l375 0 l0 283 l-375 0 l0 -283 ZM881 -28 q21 0 27 27 q6 27 8 123 q16 -13 42 -19 q-3 -104 -17 -137 q-14 -35 -56 -35 l-101 0 q-44 0 -60 15 q-15 16 -15 60 l0 384 l-122 0 q-11 -195 -53 -290 q-53 -118 -185 -175 q-6 12 -31 37 q125 51 174 160 q39 87 47 268 l-110 0 l0 373 l468 0 l0 -373 l-141 0 l0 -385 q0 -20 6 -27 q6 -6 27 -6 l92 0 Z" /><glyph glyph-name="" unicode="&#x79c1;" d="M431 261 q-38 60 -133 177 l0 -509 l-47 0 l0 501 q-86 -201 -191 -309 q-12 22 -29 41 q130 127 211 343 l-178 0 l0 46 l187 0 l0 169 q-94 -19 -172 -31 q-3 18 -15 38 q258 44 356 89 l32 -39 q-60 -24 -154 -47 l0 -179 l171 0 l0 -46 l-171 0 l0 -15 q61 -61 165 -190 l-32 -39 ZM901 -36 q-17 54 -36 104 q-400 -62 -428 -77 q-7 27 -17 49 q21 7 71 149 q106 298 160 618 l50 -9 q-80 -424 -203 -739 l352 51 q-64 165 -128 294 l43 17 q124 -244 183 -436 l-47 -21 Z" /><glyph glyph-name="" unicode="&#x7b2c;" d="M207 701 q-49 -84 -111 -143 q-10 9 -41 27 q113 95 166 251 l45 -11 q-14 -38 -36 -83 l274 0 l0 -41 l-177 0 q32 -66 42 -110 l-45 -13 q-11 49 -45 123 l-72 0 ZM211 350 q-8 -51 -19 -113 l282 0 l0 113 l-263 0 ZM522 393 l299 0 l0 112 l-299 0 l0 -112 ZM892 237 l-2 -23 q-20 -196 -55 -225 q-20 -20 -57 -20 q-51 -2 -124 2 q-2 26 -14 46 q53 -6 122 -6 q27 0 35 8 q25 21 43 175 l-318 0 l0 -267 l-48 0 l0 257 q-132 -172 -357 -261 q-17 26 -32 38 q209 74 344 233 l-292 0 q19 77 36 199 l301 0 l0 112 l-337 0 l0 43 l731 0 l0 -198 l-346 0 l0 -113 l370 0 ZM936 742 l0 -41 l-203 0 q52 -65 69 -107 l-42 -18 q-24 57 -80 125 l-86 0 q-42 -85 -87 -133 q-17 15 -41 27 q89 90 129 241 l47 -10 q-11 -43 -29 -84 l323 0 Z" /><glyph glyph-name="" unicode="&#x7b75;" d="M490 397 l0 -251 l159 0 l0 349 q-110 -13 -229 -21 q-2 19 -13 38 q336 27 456 70 l39 -36 q-78 -24 -207 -44 l0 -145 l224 0 l0 -43 l-224 0 l0 -168 l244 0 l0 -45 l-494 0 l0 295 l45 1 ZM570 698 q-40 -76 -85 -126 q-21 18 -40 28 q87 87 126 236 l48 -10 q-13 -46 -30 -85 l345 0 l0 -43 l-223 0 q46 -62 62 -104 l-42 -20 q-18 50 -75 124 l-86 0 ZM177 698 q-44 -77 -92 -128 q-21 19 -40 28 q93 91 145 238 l46 -12 q-16 -44 -36 -83 l287 0 l0 -43 l-185 0 q27 -57 41 -117 l-45 -15 q-10 57 -44 132 l-77 0 ZM379 325 q-32 -154 -108 -253 q112 -74 374 -76 q272 0 315 1 q-16 -23 -21 -47 l-294 0 q-281 0 -404 87 q-65 -71 -160 -112 q-9 20 -30 39 q88 35 154 104 q-59 55 -96 144 l37 18 q34 -82 87 -129 q62 80 90 190 l-194 0 q66 87 128 192 l-180 0 l0 44 l257 0 q-49 -84 -122 -193 l129 0 l10 2 l28 -11 Z" /><glyph glyph-name="" unicode="&#x7be0;" d="M584 709 q-41 -63 -92 -110 q-10 8 -41 23 q94 77 143 209 l48 -8 q-13 -33 -35 -76 l327 0 l0 -38 l-207 0 q40 -47 62 -88 l-43 -15 q-25 53 -71 103 l-91 0 ZM207 709 q-46 -72 -109 -125 q-19 14 -40 24 q109 83 160 224 l48 -8 q-13 -35 -37 -77 l257 0 l0 -38 l-161 0 q37 -58 49 -96 l-44 -13 q-16 52 -54 109 l-69 0 ZM280 587 q-29 -71 -74 -146 l0 -514 l-44 0 l0 449 q-42 -60 -92 -107 q-12 19 -28 37 q129 118 192 295 l46 -14 ZM299 488 l43 0 l0 -428 l-43 0 l0 428 ZM556 131 q-61 -93 -150 -161 q-15 15 -39 29 q89 60 145 146 l44 -14 ZM780 141 q89 -73 131 -139 l-37 -28 q-43 70 -129 144 l35 23 ZM682 220 l243 0 l0 -41 l-243 0 l0 -186 q0 -38 -25 -48 q-22 -8 -116 -8 q-3 15 -17 42 q78 -2 98 0 q15 1 15 14 l0 186 l-241 0 l0 41 l241 0 l0 85 l45 0 l0 -85 ZM533 504 q44 -62 125 -106 q86 54 129 112 l-249 0 l-5 -6 ZM853 537 q-50 -90 -154 -158 q104 -48 252 -65 q-18 -17 -27 -39 q-159 24 -266 79 q-107 -60 -246 -92 q-6 18 -23 35 q119 23 229 80 q-69 41 -112 98 q-41 -41 -90 -74 q-15 19 -33 27 q123 76 180 191 l44 -6 q-16 -31 -39 -63 l249 0 l9 2 l27 -15 Z" /><glyph glyph-name="" unicode="&#x7c21;" d="M175 711 q-40 -64 -89 -113 q-20 18 -40 26 q94 86 143 212 l45 -12 q-16 -38 -35 -72 l289 0 l0 -41 l-206 0 q31 -55 43 -93 l-45 -13 q-11 42 -47 106 l-58 0 ZM157 545 l0 -68 l246 0 l0 68 l-246 0 ZM403 371 l0 70 l-246 0 l0 -70 l246 0 ZM157 333 l0 -405 l-45 0 l0 655 l336 0 l0 -250 l-291 0 ZM364 238 l0 -78 l277 0 l0 78 l-277 0 ZM641 43 l0 81 l-277 0 l0 -81 l277 0 ZM685 7 l-321 0 l0 -38 l-45 0 l0 307 l366 0 l0 -269 ZM853 371 l0 70 l-260 0 l0 -70 l260 0 ZM593 545 l0 -68 l260 0 l0 68 l-260 0 ZM899 -7 q0 -46 -33 -58 q-26 -7 -149 -7 q-3 18 -17 46 q42 -2 132 -2 q21 1 21 20 l0 341 l-305 0 l0 250 l351 0 l0 -590 ZM941 752 l0 -41 l-236 0 q41 -49 61 -92 l-42 -17 q-22 48 -73 109 l-92 0 q-46 -63 -100 -106 q-6 5 -41 27 q110 81 159 204 l46 -11 q-14 -36 -37 -73 l355 0 Z" /><glyph glyph-name="" unicode="&#x7c9f;" d="M589 739 l-184 0 l0 -103 l184 0 l0 103 ZM636 594 l0 -149 l186 0 l0 149 l-186 0 ZM405 445 l184 0 l0 149 l-184 0 l0 -149 ZM180 445 l179 0 l0 149 l-179 0 l0 -149 ZM359 739 l-286 0 l0 43 l854 0 l0 -43 l-291 0 l0 -103 l234 0 l0 -233 l-737 0 l0 233 l226 0 l0 103 ZM261 381 q68 -65 93 -127 l-43 -21 q-28 64 -92 130 l42 18 ZM579 186 q137 -142 377 -199 q-20 -18 -32 -41 q-266 78 -401 240 l-1 0 l0 -262 l-48 0 l0 262 l-1 0 q-140 -161 -397 -246 q-15 25 -31 39 q225 65 369 207 l-355 0 l0 44 l415 0 l0 155 l48 0 l0 -155 l124 0 q54 77 92 156 l46 -18 q-44 -76 -86 -138 l244 0 l0 -44 l-363 0 Z" /><glyph glyph-name="" unicode="&#x7d00;" d="M389 249 q-4 18 -17 58 q-276 -43 -298 -55 q-9 32 -16 49 q21 4 74 65 q45 48 107 135 q-150 -18 -171 -28 q-9 33 -16 47 q17 4 57 56 q98 139 150 259 l46 -21 q-87 -169 -177 -282 l142 14 q41 60 76 123 l45 -24 q-121 -195 -245 -328 l214 30 q-26 70 -42 103 l41 12 q53 -112 73 -197 l-43 -16 ZM158 193 q-31 -155 -66 -241 q-12 6 -42 16 q35 82 63 234 l45 -9 ZM263 205 q24 -138 28 -218 l-44 -9 q-3 86 -26 219 l42 8 ZM372 227 q43 -105 62 -196 l-41 -13 q-19 93 -60 198 l39 11 ZM842 -15 q39 0 51 26 q11 25 16 116 q18 -14 46 -21 q-6 -102 -26 -133 q-21 -34 -85 -34 l-231 0 q-70 0 -94 18 q-26 18 -26 73 l0 416 l348 0 l0 287 l-373 0 l0 48 l421 0 l0 -428 l-48 0 l0 46 l-299 0 l0 -370 q0 -27 13 -35 q14 -9 59 -9 l228 0 Z" /><glyph glyph-name="" unicode="&#x7d30;" d="M134 194 q-23 -149 -54 -241 q-18 8 -40 16 q32 83 52 233 l42 -8 ZM237 205 q22 -126 28 -215 l-41 -8 q-5 101 -27 215 l40 8 ZM345 226 q45 -113 62 -194 l-39 -13 q-18 90 -60 196 l37 11 ZM336 462 q52 -109 71 -194 l-41 -14 q-4 18 -14 50 q-265 -40 -288 -52 q-10 35 -16 46 q20 3 70 67 q42 49 97 134 q-136 -16 -158 -25 l0 -1 q-8 28 -16 46 q16 3 55 56 q83 118 140 258 l44 -20 q-84 -176 -167 -284 l130 13 q49 83 76 138 l43 -23 q-127 -221 -235 -345 l213 30 q-19 58 -43 108 l39 12 ZM878 55 l0 313 l-168 0 l0 -313 l168 0 ZM505 55 l160 0 l0 313 l-160 0 l0 -313 ZM505 731 l0 -317 l160 0 l0 317 l-160 0 ZM878 731 l-168 0 l0 -317 l168 0 l0 317 ZM925 778 l0 -831 l-47 0 l0 63 l-373 0 l0 -71 l-46 0 l0 839 l466 0 Z" /><glyph glyph-name="" unicode="&#x7d4c;" d="M358 249 q-4 16 -17 55 q-252 -41 -275 -52 q-7 25 -16 49 q23 5 73 67 q37 41 99 132 q-139 -16 -162 -27 q-10 35 -16 49 q17 3 55 55 q89 125 142 258 l48 -22 q-74 -156 -169 -281 l132 13 q43 65 82 137 l45 -24 q-127 -213 -244 -342 l194 27 q-24 66 -40 107 l40 10 q53 -132 71 -195 l-42 -16 ZM137 193 q-27 -156 -56 -253 q-16 9 -42 15 q32 95 54 247 l44 -9 ZM238 205 q24 -132 30 -227 l-42 -8 q-7 113 -28 227 l40 8 ZM346 227 q48 -122 63 -201 l-40 -12 q-14 78 -61 202 l38 11 ZM703 0 l243 0 l0 -45 l-530 0 l0 45 l240 0 l0 197 l-202 0 l0 45 l202 0 l0 152 l47 0 l0 -152 l199 0 l0 -45 l-199 0 l0 -197 ZM530 734 q51 -121 148 -205 q107 88 159 205 l-307 0 ZM904 764 q-57 -157 -188 -265 q109 -80 253 -113 q-19 -18 -32 -41 q-145 37 -259 124 q-112 -80 -252 -124 q-9 18 -30 39 q141 42 244 117 q-104 94 -155 222 l31 11 l-103 0 l0 44 l449 0 l10 2 l32 -16 Z" /><glyph glyph-name="" unicode="&#x7d61;" d="M349 238 q-2 12 -15 64 q-245 -38 -267 -50 q-6 22 -16 48 q23 5 72 66 q39 44 100 134 q-141 -18 -163 -27 q-5 27 -15 47 q19 5 56 56 q84 110 147 258 l45 -21 q-84 -171 -173 -283 l132 13 q43 64 78 133 l44 -23 q-118 -204 -240 -340 l189 27 q-15 46 -39 109 l40 10 q49 -117 68 -207 l-43 -14 ZM139 194 q-25 -152 -55 -243 q-18 9 -42 17 q30 80 53 234 l44 -8 ZM242 204 q24 -137 28 -217 l-42 -7 q-3 84 -26 217 l40 7 ZM336 225 q41 -102 58 -185 l-39 -13 q-17 89 -56 188 l37 10 ZM889 289 q-101 54 -187 136 q-91 -81 -195 -136 l382 0 ZM853 13 l0 231 l-322 0 l0 -231 l322 0 ZM575 659 q49 -91 126 -171 q93 93 139 191 l-252 0 l-13 -20 ZM904 708 q-55 -138 -171 -251 q108 -100 231 -148 q-18 -18 -32 -41 l-32 15 l0 -346 l-47 0 l0 32 l-322 0 l0 -35 l-46 0 l0 344 q-14 -7 -42 -19 q-19 27 -30 38 q138 54 256 161 q-71 76 -122 165 q-54 -67 -112 -114 q-22 22 -37 33 q148 110 224 296 l46 -13 q-18 -46 -53 -103 l249 0 l10 3 l30 -17 Z" /><glyph glyph-name="" unicode="&#x7dcf;" d="M776 826 q68 -158 183 -253 q-24 -22 -33 -35 q-111 104 -187 272 l37 16 ZM867 328 q-17 37 -40 74 q-329 -34 -353 -44 q-4 20 -16 47 q17 3 55 51 q83 107 140 238 l46 -21 q-80 -155 -164 -258 l269 25 q-44 68 -78 113 l38 18 q102 -137 143 -221 l-40 -22 ZM599 351 q101 -52 167 -118 l-32 -32 q-63 65 -165 123 l30 27 ZM612 812 q-64 -162 -187 -275 q-16 16 -40 28 q120 98 183 258 l44 -11 ZM355 233 q-4 28 -14 68 q-250 -37 -274 -50 q-6 22 -16 48 q22 4 72 66 q38 42 101 134 q-142 -17 -164 -26 q-2 10 -14 46 q21 6 55 56 q81 102 147 258 l45 -20 q-87 -172 -173 -282 l133 12 q40 61 79 133 l44 -24 q-128 -213 -241 -338 l197 27 q-12 46 -35 108 l40 8 q44 -112 61 -213 l-43 -11 ZM138 193 q-24 -147 -56 -243 l-40 16 q31 81 53 235 l43 -8 ZM234 202 q23 -141 27 -214 l-42 -8 q-3 94 -25 216 l40 6 ZM325 225 q43 -112 56 -180 l-39 -11 q-16 75 -54 181 l37 10 ZM390 -13 q51 76 78 214 l40 -7 q-30 -152 -79 -226 l-39 19 ZM757 -31 q22 0 28 19 q7 19 9 92 q18 -13 40 -18 q-4 -81 -18 -106 q-14 -26 -54 -26 l-132 0 q-50 0 -66 13 q-17 13 -17 53 l0 235 l45 0 l0 -235 q0 -17 7 -22 q8 -5 34 -5 l124 0 ZM846 211 q76 -120 104 -211 l-40 -21 q-29 100 -100 214 l36 18 Z" /><glyph glyph-name="" unicode="&#x7de8;" d="M330 232 q-6 35 -13 65 q-228 -34 -250 -45 q-10 35 -16 46 q20 4 68 68 q36 43 92 133 q-131 -17 -151 -26 q-4 20 -15 47 q20 5 51 56 q77 110 129 258 l47 -20 q-81 -179 -156 -284 l121 12 q40 67 73 135 l44 -22 q-117 -214 -223 -342 l176 24 q-21 71 -35 112 l39 8 q46 -125 60 -212 l-41 -13 ZM136 194 q-23 -152 -54 -244 q-6 3 -41 16 q30 77 53 236 l42 -8 ZM218 206 q23 -130 27 -215 l-40 -7 q-3 90 -25 216 l38 6 ZM298 227 q41 -107 52 -171 l-38 -12 q-13 68 -50 173 l36 10 ZM457 679 l0 -133 l403 0 l0 133 l-403 0 ZM457 504 l0 -68 q0 -323 -74 -487 q-16 18 -38 24 q68 151 68 463 l0 284 l247 0 q-21 58 -51 106 l40 11 q37 -56 57 -117 l197 0 l0 -216 l-446 0 ZM896 189 l0 171 l-101 0 l0 -171 l101 0 ZM757 189 l0 171 l-108 0 l0 -171 l108 0 ZM612 189 l0 171 l-113 0 l0 -171 l113 0 ZM936 -21 q0 -32 -20 -41 q-17 -8 -77 -8 q-4 20 -14 37 l60 0 q11 0 11 11 l0 169 l-101 0 l0 -183 l-38 0 l0 183 l-108 0 l0 -184 l-37 0 l0 184 l-113 0 l0 -217 l-40 0 l0 470 l477 0 l0 -421 Z" /><glyph glyph-name="" unicode="&#x7fd2;" d="M412 557 q-67 -32 -304 -141 l-20 41 q80 32 324 142 l0 142 l-313 0 l0 43 l359 0 l0 -377 l-46 0 l0 150 ZM160 691 q105 -30 166 -67 l-23 -39 q-56 36 -166 73 l23 33 ZM764 294 l-522 0 l0 -121 l522 0 l0 121 ZM764 7 l0 125 l-522 0 l0 -125 l522 0 ZM523 418 q-18 -35 -45 -83 l335 0 l0 -411 l-49 0 l0 41 l-522 0 l0 -41 l-47 0 l0 411 l235 0 q33 63 44 96 l49 -13 ZM880 781 l0 -383 l-45 0 l0 169 l-292 -142 l-23 39 q77 32 315 145 l0 129 l-321 0 l0 43 l366 0 ZM568 686 q109 -25 179 -63 l-22 -41 q-71 40 -178 68 l21 36 Z" /><glyph glyph-name="" unicode="&#x8096;" d="M854 782 q-81 -128 -161 -218 l-40 20 q87 97 155 219 l46 -21 ZM287 568 q-48 110 -141 207 l40 20 q102 -103 143 -205 l-42 -22 ZM762 201 l0 128 l-526 0 l0 -128 l526 0 ZM236 496 l0 -123 l526 0 l0 123 l-526 0 ZM811 -5 q0 -48 -38 -59 q-28 -8 -169 -8 q-3 18 -18 46 q121 -2 153 0 q23 1 23 22 l0 161 l-526 0 l0 -229 l-47 0 l0 613 l286 0 l0 292 l48 0 l0 -292 l288 0 l0 -546 Z" /><glyph glyph-name="" unicode="&#x80b2;" d="M750 146 l0 96 l-491 0 l0 -96 l491 0 ZM259 378 l0 -96 l491 0 l0 96 l-491 0 ZM798 -9 q0 -46 -39 -57 q-26 -7 -186 -7 q-5 21 -19 42 q137 -3 171 0 q25 1 25 23 l0 114 l-491 0 l0 -180 l-48 0 l0 495 l587 0 l0 -430 ZM432 680 q-90 -87 -175 -144 l462 23 q-80 66 -116 94 l36 24 q158 -118 249 -203 l-37 -30 q-64 58 -85 76 q-567 -33 -596 -43 q-10 37 -17 51 q21 2 64 30 q72 49 145 122 l-295 0 l0 45 l430 0 q-33 62 -56 97 l46 14 q37 -55 67 -111 l383 0 l0 -45 l-505 0 Z" /><glyph glyph-name="" unicode="&#x80fd;" d="M659 402 q-62 0 -84 16 q-22 17 -22 65 l0 350 l47 0 l0 -182 q175 55 263 100 l34 -36 q-118 -53 -297 -104 l0 -127 q0 -23 11 -30 q12 -7 49 -7 l187 0 q32 0 41 22 q10 22 13 100 q18 -12 45 -19 q-5 -90 -23 -118 q-19 -30 -73 -30 l-191 0 ZM403 180 l0 111 l-249 0 l0 -111 l249 0 ZM154 438 l0 -106 l249 0 l0 106 l-249 0 ZM450 -7 q0 -43 -29 -55 q-27 -9 -131 -9 q-3 18 -17 47 q75 -3 113 0 q17 0 17 16 l0 147 l-249 0 l0 -211 l-46 0 l0 553 l342 0 l0 -488 ZM355 774 q102 -124 136 -216 l-39 -19 q-7 16 -26 54 q-317 -22 -343 -31 q-5 25 -16 48 q18 3 44 40 q58 61 113 185 l48 -18 q-67 -122 -133 -201 l265 15 q-41 67 -87 126 l38 17 ZM853 -20 q33 0 44 25 q9 25 13 114 q19 -14 44 -18 q-5 -101 -23 -131 q-19 -33 -76 -33 l-194 0 q-64 0 -85 16 q-23 17 -23 66 l0 350 l48 0 l0 -171 q195 58 277 110 l32 -37 q-93 -55 -309 -114 l0 -139 q0 -23 11 -30 q12 -8 50 -8 l191 0 Z" /><glyph glyph-name="" unicode="&#x81b3;" d="M303 313 l0 199 l-147 0 l0 -73 q0 -58 -3 -126 l150 0 ZM156 749 l0 -192 l147 0 l0 192 l-147 0 ZM346 -1 q0 -42 -29 -55 q-25 -8 -125 -8 q-3 16 -15 45 q26 -1 107 -1 q19 0 19 20 l0 268 l-152 0 q-17 -222 -74 -342 q-19 17 -39 24 q74 153 74 489 l0 355 l234 0 l0 -795 ZM481 156 l0 -148 l358 0 l0 148 l-358 0 ZM436 197 l449 0 l0 -267 l-46 0 l0 38 l-358 0 l0 -40 l-45 0 l0 269 ZM941 300 l0 -43 l-563 0 l0 43 l129 0 q-9 40 -50 113 l38 13 q37 -54 54 -112 l-39 -14 l127 0 l0 135 l-244 0 l0 41 l244 0 l0 80 l-206 0 l0 40 l206 0 l0 74 l-241 0 l0 40 l140 0 q-21 58 -56 105 l38 16 q41 -53 61 -107 l-30 -14 l186 0 q34 59 56 124 l46 -16 q-36 -75 -55 -108 l139 0 l0 -40 l-239 0 l0 -74 l202 0 l0 -40 l-202 0 l0 -80 l248 0 l0 -41 l-248 0 l0 -135 l85 0 q35 69 53 130 l44 -18 q-30 -69 -52 -112 l129 0 Z" /><glyph glyph-name="" unicode="&#x2f83;&#x81ea;" d="M792 30 l0 175 l-568 0 l0 -175 l568 0 ZM224 423 l0 -172 l568 0 l0 172 l-568 0 ZM224 646 l0 -177 l568 0 l0 177 l-568 0 ZM841 693 l0 -762 l-49 0 l0 54 l-568 0 l0 -61 l-48 0 l0 769 l249 0 q31 80 48 142 l51 -9 q-30 -83 -52 -133 l369 0 Z" /><glyph glyph-name="" unicode="&#x8208;" d="M389 108 q-122 -100 -294 -180 q-7 11 -30 37 q183 80 279 170 l45 -27 ZM633 142 q181 -88 293 -170 l-32 -36 q-119 89 -288 173 l27 33 ZM454 344 l92 0 l0 159 l-92 0 l0 -159 ZM421 540 l158 0 l0 -233 l-158 0 l0 233 ZM588 657 l0 -38 l-185 0 l0 38 l185 0 ZM374 212 l252 0 l0 526 l-252 0 l0 -526 ZM945 212 l0 -45 l-892 0 l0 45 l86 0 l-18 543 q113 33 172 62 l27 -42 q-72 -30 -154 -50 l4 -134 l128 0 l0 -43 l-127 0 l5 -147 l128 0 l0 -43 l-126 0 l5 -146 l150 0 l0 567 l334 0 l0 -567 l152 0 l8 142 l-129 0 l0 43 l130 0 q4 95 5 147 l-130 0 l0 42 l131 0 q3 83 3 157 l-141 0 l0 43 l184 0 q-4 -357 -17 -574 l82 0 Z" /><glyph glyph-name="" unicode="&#x82f1;" d="M297 687 l-221 0 l0 45 l221 0 l0 101 l47 0 l0 -101 l307 0 l0 101 l47 0 l0 -101 l222 0 l0 -45 l-222 0 l0 -113 l-47 0 l0 113 l-307 0 l0 -113 l-47 0 l0 113 ZM464 268 q7 36 7 94 l0 98 l-254 0 l0 -192 l247 0 ZM520 460 l0 -98 q0 -57 -6 -94 l274 0 l0 192 l-268 0 ZM554 222 q100 -206 407 -254 q-18 -18 -31 -44 q-323 59 -426 298 l-1 0 q-60 -205 -428 -298 q-9 17 -28 40 q342 83 404 258 l-388 0 l0 46 l107 0 l0 236 l301 0 l0 125 l49 0 l0 -125 l316 0 l0 -236 l104 0 l0 -46 l-386 0 Z" /><glyph glyph-name="" unicode="&#x8352;" d="M296 698 l-235 0 l0 44 l235 0 l0 91 l48 0 l0 -91 l307 0 l0 91 l48 0 l0 -91 l240 0 l0 -44 l-240 0 l0 -90 l-48 0 l0 90 l-307 0 l0 -90 l-48 0 l0 90 ZM259 505 l0 -134 l593 0 l0 -44 l-642 0 l0 178 l-141 0 l0 44 l435 0 q-24 49 -63 95 l44 15 q46 -52 72 -110 l374 0 l0 -44 l-672 0 ZM232 266 l47 0 l0 -67 q0 -184 -194 -277 q-13 18 -35 34 q182 84 182 244 l0 66 ZM470 263 l48 0 l0 -327 l-48 0 l0 327 ZM879 -16 q18 0 24 18 q6 20 7 90 q12 -10 42 -19 q-3 -80 -16 -107 q-14 -26 -52 -26 l-104 0 q-44 0 -59 14 q-15 14 -15 54 l0 258 l47 0 l0 -258 q0 -15 5 -19 q6 -5 26 -5 l95 0 Z" /><glyph glyph-name="" unicode="&#x2f8f;&#x884c;&#xfa08;" d="M920 724 l-492 0 l0 46 l492 0 l0 -46 ZM321 816 q-96 -128 -249 -240 q-19 27 -30 38 q149 103 233 220 l46 -18 ZM362 606 q-48 -76 -115 -154 l0 -529 l-47 0 l0 477 q-65 -68 -133 -122 q-19 25 -35 39 q174 126 285 305 l45 -16 ZM950 450 l-159 0 l0 -453 q0 -49 -38 -60 q-28 -7 -184 -7 q-3 19 -18 45 q135 -3 166 0 q26 1 26 22 l0 453 l-359 0 l0 46 l566 0 l0 -46 Z" /><glyph glyph-name="" unicode="&#x88c5;" d="M632 639 l-252 0 l0 44 l252 0 l0 150 l48 0 l0 -150 l247 0 l0 -44 l-247 0 l0 -184 l228 0 l0 -44 l-496 0 l0 44 l220 0 l0 184 ZM203 637 q-42 52 -122 107 l32 28 q88 -57 122 -104 l-32 -31 ZM287 538 q-110 -54 -226 -108 l-18 42 q43 18 244 113 l0 248 l45 0 l0 -462 l-45 0 l0 167 ZM881 199 q-84 -58 -192 -106 q114 -85 263 -118 q-18 -18 -29 -40 q-306 79 -429 322 l-3 0 q-65 -59 -173 -114 l0 -150 l260 56 q-2 -23 0 -40 q-315 -73 -335 -85 q-5 19 -20 43 q47 14 47 58 l0 96 q-95 -42 -196 -68 q-13 23 -29 37 q237 53 384 167 l-371 0 l0 43 l436 0 q-20 43 -42 78 l45 14 q37 -59 52 -92 l394 0 l0 -43 l-401 0 q44 -79 116 -139 q99 46 185 108 l38 -27 Z" /><glyph glyph-name="" unicode="&#x2f92;&#x898b;&#xfa0a;" d="M238 282 l523 0 l0 130 l-523 0 l0 -130 ZM238 455 l523 0 l0 126 l-523 0 l0 -126 ZM238 624 l523 0 l0 127 l-523 0 l0 -127 ZM854 -18 q33 0 43 25 q10 25 13 120 q13 -12 45 -21 q-5 -105 -23 -137 q-19 -34 -75 -34 l-179 0 q-61 0 -82 16 q-22 16 -22 63 l0 224 l-189 0 q-19 -128 -83 -197 q-72 -77 -227 -113 q-7 20 -29 42 q145 31 212 98 q58 59 76 170 l-142 0 l0 557 l617 0 l0 -557 l-187 0 l0 -224 q0 -21 11 -26 q10 -6 47 -6 l174 0 Z" /><glyph glyph-name="" unicode="&#x89a7;" d="M617 688 q-37 -74 -86 -131 q-26 20 -39 26 q89 93 137 250 l44 -10 q-18 -55 -36 -94 l292 0 l0 -41 l-312 0 ZM695 644 q107 -91 153 -160 l-37 -25 q-51 78 -152 163 l36 22 ZM141 499 l157 0 l0 67 l-157 0 l0 -67 ZM141 757 l0 -58 l157 0 l0 58 l-157 0 ZM422 663 l-281 0 l0 -61 l281 0 l0 61 ZM504 463 l-408 0 l0 331 l397 0 l0 -37 l-153 0 l0 -58 l126 0 l0 -133 l-126 0 l0 -67 l164 0 l0 -36 ZM247 137 l505 0 l0 61 l-505 0 l0 -61 ZM247 233 l505 0 l0 60 l-505 0 l0 -60 ZM247 328 l505 0 l0 58 l-505 0 l0 -58 ZM854 -20 q29 0 38 17 q8 17 11 83 q11 -8 43 -17 q-5 -77 -21 -101 q-17 -24 -67 -24 l-182 0 q-61 0 -81 13 q-21 13 -21 54 l0 97 l-171 0 q-28 -77 -103 -117 q-75 -40 -224 -60 q-10 28 -23 38 q253 28 300 139 l-153 0 l0 320 l599 0 l0 -320 l-178 0 l0 -97 q0 -16 10 -20 q10 -5 47 -5 l176 0 Z" /><glyph glyph-name="" unicode="&#x8a3c;" d="M214 676 q-12 65 -55 145 l39 14 q45 -78 57 -141 l-41 -18 ZM402 625 l-357 0 l0 43 l357 0 l0 -43 ZM91 490 l0 42 l277 0 l0 -42 l-277 0 ZM370 355 l-282 0 l0 42 l282 0 l0 -42 ZM134 218 l0 -199 l193 0 l0 199 l-193 0 ZM371 -23 l-237 0 l0 -50 l-43 0 l0 333 l280 0 l0 -283 ZM956 9 l0 -46 l-557 0 l0 46 l81 0 l0 518 l46 0 l0 -518 l146 0 l0 711 l-237 0 l0 47 l505 0 l0 -47 l-221 0 l0 -297 l215 0 l0 -46 l-215 0 l0 -368 l237 0 Z" /><glyph glyph-name="" unicode="&#x8a66;" d="M877 656 q-30 61 -92 133 l35 20 q68 -74 93 -128 l-36 -25 ZM229 686 q-27 60 -77 130 l38 21 q55 -74 79 -127 l-40 -24 ZM138 231 l0 -198 l175 0 l0 198 l-175 0 ZM357 -10 l-219 0 l0 -50 l-44 0 l0 334 l263 0 l0 -284 ZM96 404 l260 0 l0 -42 l-260 0 l0 42 ZM356 492 l-260 0 l0 41 l260 0 l0 -41 ZM54 661 l324 0 l0 -43 l-324 0 l0 43 ZM557 99 q62 17 158 46 l5 -42 q-152 -48 -322 -99 l-16 47 l129 35 l0 293 l-118 0 l0 44 l284 0 l0 -44 l-120 0 l0 -280 ZM751 582 q13 -274 52 -443 q38 -167 86 -167 q26 0 32 171 q23 -19 39 -24 q-7 -112 -22 -152 q-16 -43 -54 -43 q-145 0 -178 658 l-301 0 l0 46 l298 0 q-4 128 -5 201 l48 0 q0 -105 3 -201 l207 0 l0 -46 l-205 0 Z" /><glyph glyph-name="" unicode="&#x8a73;" d="M887 813 q-63 -123 -97 -173 l-38 18 q58 94 88 176 l47 -21 ZM567 638 q-24 78 -87 171 l38 18 q66 -90 90 -166 l-41 -23 ZM239 686 q-29 66 -77 130 l38 21 q55 -73 79 -126 l-40 -25 ZM87 404 l281 0 l0 -42 l-281 0 l0 42 ZM368 492 l-281 0 l0 41 l281 0 l0 -41 ZM131 231 l0 -198 l200 0 l0 198 l-200 0 ZM375 -10 l-244 0 l0 -50 l-43 0 l0 334 l287 0 l0 -284 ZM48 661 l354 0 l0 -43 l-354 0 l0 43 ZM952 152 l-248 0 l0 -226 l-46 0 l0 226 l-234 0 l0 46 l234 0 l0 180 l-190 0 l0 46 l190 0 l0 167 l-214 0 l0 46 l489 0 l0 -46 l-229 0 l0 -167 l201 0 l0 -46 l-201 0 l0 -180 l248 0 l0 -46 Z" /><glyph glyph-name="" unicode="&#x8a79;" d="M360 103 l0 -97 l443 0 l0 97 l-443 0 ZM314 138 l535 0 l0 -205 l-46 0 l0 38 l-443 0 l0 -41 l-46 0 l0 208 ZM317 232 l524 0 l0 -37 l-524 0 l0 37 ZM841 288 l-524 0 l0 36 l524 0 l0 -36 ZM552 512 q41 -41 71 -95 l300 0 l0 -39 l-680 0 l0 39 l328 0 q-26 42 -58 79 l39 16 ZM502 579 q-90 -88 -212 -131 l-35 31 q123 37 202 113 l45 -13 ZM668 592 q138 -56 222 -112 l-29 -30 q-84 58 -223 118 l30 24 ZM305 733 q-20 -27 -64 -77 l291 0 q35 41 54 77 l-281 0 ZM935 656 l0 -41 l-710 0 l0 -208 q0 -320 -133 -480 q-11 13 -38 27 q126 150 126 454 l0 190 q-47 -41 -92 -69 q-10 14 -34 33 q171 102 259 272 l51 -9 l-32 -53 l280 0 l10 3 l30 -21 q-29 -53 -65 -98 l348 0 Z" /><glyph glyph-name="" unicode="&#x8a9e;" d="M244 686 q-25 60 -77 130 l38 21 q55 -74 79 -127 l-40 -24 ZM408 618 l-356 0 l0 43 l356 0 l0 -43 ZM92 492 l0 41 l282 0 l0 -41 l-282 0 ZM374 362 l-282 0 l0 42 l282 0 l0 -42 ZM136 231 l0 -198 l200 0 l0 198 l-200 0 ZM381 -10 l-245 0 l0 -50 l-43 0 l0 334 l288 0 l0 -284 ZM507 235 l0 -216 l335 0 l0 216 l-335 0 ZM461 279 l428 0 l0 -349 l-47 0 l0 45 l-335 0 l0 -49 l-46 0 l0 353 ZM627 581 q-30 -149 -36 -174 l219 0 l0 174 l-183 0 ZM954 407 l0 -44 l-552 0 l0 44 l141 0 q9 35 37 174 l-129 0 l0 42 l137 0 q5 24 11 63 l11 59 l-182 0 l0 43 l507 0 l0 -43 l-278 0 q-6 -38 -22 -122 l220 0 l0 -216 l99 0 Z" /><glyph glyph-name="" unicode="&#x8b1d;" d="M197 681 q-12 62 -50 132 l38 13 q44 -80 51 -130 l-39 -15 ZM326 619 l-264 0 l0 42 l264 0 l0 -42 ZM135 227 l0 -199 l129 0 l0 199 l-129 0 ZM304 -14 l-169 0 l0 -49 l-40 0 l0 332 l209 0 l0 -283 ZM98 401 l206 0 l0 -41 l-206 0 l0 41 ZM98 534 l206 0 l0 -42 l-206 0 l0 42 ZM422 307 l150 0 l0 81 l-150 0 l0 -81 ZM422 679 l0 -105 l150 0 l0 105 l-150 0 ZM572 534 l-150 0 l0 -107 l150 0 l0 107 ZM615 -3 q0 -42 -29 -54 q-25 -9 -125 -9 q-3 19 -15 45 q72 -3 108 0 q18 0 18 18 l0 243 q-81 -116 -225 -208 q-17 25 -30 37 q143 80 221 195 l-204 0 l0 43 l45 0 l0 414 l75 0 q19 50 32 113 l47 -12 l-18 -51 q-11 -32 -18 -50 l118 0 l0 -724 ZM954 558 l-65 0 l0 -555 q0 -47 -32 -58 q-27 -10 -130 -10 q-11 36 -18 48 q27 -1 116 -1 q19 1 19 21 l0 555 l-200 0 l0 46 l200 0 l0 221 l45 0 l0 -221 l65 0 l0 -46 ZM731 222 q-17 103 -78 231 l41 11 q64 -135 80 -228 l-43 -14 Z" /><glyph glyph-name="" unicode="&#x8bed;" d="M259 616 q-53 68 -148 154 l31 29 q107 -91 149 -148 l-32 -35 ZM380 151 l15 -39 q-183 -126 -197 -145 q-9 23 -25 44 q29 21 29 62 l0 397 l-150 0 l0 46 l196 0 l0 -451 l132 86 ZM459 222 l0 -210 l374 0 l0 210 l-374 0 ZM412 266 l469 0 l0 -337 l-48 0 l0 39 l-374 0 l0 -42 l-47 0 l0 340 ZM581 572 q-14 -63 -40 -164 l239 0 q9 69 19 164 l-218 0 ZM950 408 l0 -45 l-626 0 l0 45 l167 0 q23 83 41 164 l-137 0 l0 43 l147 0 q16 68 29 135 l-212 0 l0 44 l556 0 l0 -44 l-294 0 q-20 -92 -30 -135 l217 0 l7 4 l34 -5 q-8 -105 -24 -206 l125 0 Z" /><glyph glyph-name="" unicode="&#x2f95;&#x8c37;" d="M876 545 q-91 108 -273 238 l38 26 q185 -130 275 -232 l-40 -32 ZM396 785 q-106 -138 -264 -242 q-20 22 -39 35 q157 92 257 225 l46 -18 ZM760 318 q-158 103 -260 238 q-102 -136 -265 -238 l525 0 ZM731 13 l0 261 l-454 0 l0 -261 l454 0 ZM541 616 q-10 -16 -14 -24 q159 -221 432 -314 q-22 -22 -36 -45 q-67 26 -142 72 l0 -378 l-50 0 l0 42 l-454 0 l0 -44 l-48 0 l0 389 q-81 -48 -151 -74 q-8 21 -27 46 q134 44 259 143 q125 99 191 212 l40 -25 Z" /><glyph glyph-name="" unicode="&#x8c61;" d="M413 461 q55 52 91 129 l-294 0 l0 -129 l203 0 ZM319 721 q-64 -62 -101 -91 l282 0 q38 36 73 91 l-254 0 ZM795 590 l-243 0 q-32 -75 -82 -129 l325 0 l0 129 ZM841 368 q-63 -43 -148 -90 q81 -180 249 -251 q-23 -19 -31 -40 q-169 81 -257 271 q-24 -13 -67 -33 q41 -80 34 -153 q-7 -71 -57 -104 q-39 -27 -96 -27 q-19 0 -87 2 q-2 24 -13 45 q36 -4 92 -4 q47 0 72 17 q35 23 42 74 q6 53 -21 116 q-168 -134 -426 -208 q-14 24 -31 38 q275 66 439 206 q-20 32 -46 64 q-133 -99 -347 -159 q-10 20 -29 37 q222 54 349 149 q-33 34 -80 65 q-108 -76 -278 -123 q-11 22 -26 39 q178 42 286 121 l-200 0 l0 170 q-32 -23 -72 -46 q-14 22 -32 32 q192 106 296 260 l52 -10 l-50 -63 l244 0 l8 2 l33 -21 q-33 -61 -85 -114 l284 0 l0 -210 l-413 0 l-14 -13 q98 -64 154 -151 q138 69 233 141 l39 -29 Z" /><glyph glyph-name="" unicode="&#x8d08;" d="M543 707 q-18 58 -60 113 l39 16 q42 -52 62 -110 l-41 -19 ZM305 741 l-177 0 l0 -143 l177 0 l0 143 ZM305 557 l-177 0 l0 -141 l177 0 l0 141 ZM305 375 l-177 0 l0 -144 l177 0 l0 144 ZM347 188 l-259 0 l0 595 l259 0 l0 -595 ZM187 134 q-52 -115 -97 -184 q-12 13 -35 26 q50 71 93 171 l39 -13 ZM280 147 q58 -84 86 -142 l-36 -24 q-24 55 -84 147 l34 19 ZM499 261 l0 -106 l319 0 l0 106 l-319 0 ZM818 13 l0 103 l-319 0 l0 -103 l319 0 ZM456 303 l405 0 l0 -368 l-43 0 l0 38 l-319 0 l0 -42 l-43 0 l0 372 ZM524 615 q43 -71 70 -147 l-31 -14 q-22 72 -70 151 l31 10 ZM724 468 q53 90 74 146 l34 -15 q-47 -95 -80 -144 l-28 13 ZM860 663 l-183 0 l0 -256 l183 0 l0 256 ZM457 407 l182 0 l0 256 l-182 0 l0 -256 ZM903 704 l0 -337 l-488 0 l0 337 l293 0 q51 72 76 131 l45 -18 q-38 -63 -73 -113 l147 0 Z" /><glyph glyph-name="" unicode="&#x8d5e;" d="M232 603 q-18 -151 -159 -199 q-9 18 -27 32 q127 38 142 167 l-126 0 l0 39 l208 0 l0 78 l-108 0 q-21 -39 -37 -59 q-17 14 -39 21 q47 54 70 142 l44 -5 q-9 -30 -21 -60 l91 0 l0 74 l46 0 l0 -74 l140 0 l0 -39 l-140 0 l0 -78 l168 0 l0 -39 l-122 0 l0 -109 l132 32 q-1 -16 1 -35 q-174 -50 -191 -61 q-6 15 -20 37 q35 18 35 60 l0 76 l-87 0 ZM754 84 l0 269 l-503 0 l0 -271 l-48 0 l0 314 l600 0 l0 -312 l-49 0 ZM523 208 q0 -205 -391 -280 q-6 22 -24 42 q368 69 368 240 l0 79 l47 0 l0 -81 ZM546 116 q213 -67 349 -145 l-27 -43 q-134 79 -348 151 l26 37 ZM885 475 q15 0 19 10 q5 10 6 52 q14 -10 39 -16 q-3 -50 -15 -68 q-12 -17 -42 -17 l-86 0 q-39 0 -52 11 q-13 11 -13 46 l0 110 l-71 0 q-9 -73 -42 -114 q-34 -43 -108 -67 q-10 18 -27 34 q118 33 134 147 l-119 0 l0 39 l189 0 l0 75 l-109 0 q-24 -40 -42 -59 q-17 13 -36 20 q51 58 78 146 l43 -5 q-11 -34 -25 -64 l91 0 l0 77 l46 0 l0 -77 l153 0 l0 -38 l-153 0 l0 -75 l191 0 l0 -39 l-151 0 l0 -110 q0 -12 5 -15 q4 -3 21 -3 l76 0 Z" /><glyph glyph-name="" unicode="&#x8d77;" d="M836 734 l-303 0 l0 46 l349 0 l0 -330 l-292 0 l0 -247 q0 -22 11 -29 q11 -6 49 -6 l183 0 q34 0 44 26 q10 25 13 121 q16 -13 45 -21 q-6 -106 -24 -137 q-18 -34 -75 -34 l-188 0 q-62 0 -82 15 q-22 16 -22 64 l0 292 l292 0 l0 240 ZM314 34 q83 -34 244 -34 q359 0 404 1 q-13 -19 -21 -48 l-381 0 q-180 0 -269 39 q-98 43 -148 155 q-18 -140 -67 -225 q-13 10 -40 26 q71 114 78 437 l47 -3 q-4 -94 -8 -141 q37 -128 116 -182 l0 417 l-215 0 l0 45 l202 0 l0 146 l-177 0 l0 44 l177 0 l0 122 l45 0 l0 -122 l172 0 l0 -44 l-172 0 l0 -146 l198 0 l0 -45 l-185 0 l0 -172 l175 0 l0 -44 l-175 0 l0 -226 Z" /><glyph glyph-name="" unicode="&#x8def;&#xf937;" d="M854 283 q-86 54 -160 134 q-76 -78 -167 -134 l327 0 ZM838 11 l0 228 l-288 0 l0 -228 l288 0 ZM578 664 q45 -97 114 -180 q78 92 122 199 l-226 0 l-10 -19 ZM363 745 l-222 0 l0 -205 l222 0 l0 205 ZM874 715 q-46 -144 -151 -265 q107 -115 241 -171 q-14 -11 -31 -39 l-48 24 l0 -333 l-47 0 l0 35 l-288 0 l0 -38 l-45 0 l0 342 q-41 -23 -82 -41 q-12 24 -30 37 q152 60 271 187 q-66 81 -110 168 q-47 -78 -110 -143 q-18 18 -36 30 l0 -12 l-125 0 l0 -160 l135 0 l0 -44 l-135 0 l0 -207 l141 33 l5 -43 q-181 -47 -373 -93 l-10 47 l56 12 l0 348 l43 0 l0 -338 l94 23 l0 422 l-142 0 l0 292 l311 0 l0 -275 q126 116 191 321 l47 -12 q-13 -38 -37 -95 l225 0 l10 2 l30 -14 Z" /><glyph glyph-name="" unicode="&#x8df5;" d="M843 681 q-57 48 -156 88 l28 29 q95 -37 156 -84 l-28 -33 ZM138 541 l202 0 l0 202 l-202 0 l0 -202 ZM408 85 l-349 -102 l-13 46 l52 14 l0 346 l42 0 l0 -334 l79 21 l0 421 l-125 0 l0 290 l293 0 l0 -290 l-123 0 l0 -158 l121 0 l0 -43 l-121 0 l0 -207 l136 38 l8 -42 ZM941 328 q-76 -122 -208 -221 q56 -130 138 -130 q24 0 34 24 q10 24 14 92 q17 -17 37 -24 q-7 -80 -25 -108 q-18 -30 -65 -30 q-104 0 -171 149 q-114 -81 -259 -132 q-12 19 -31 38 q147 48 273 136 q-34 99 -54 243 l-189 -35 l-9 43 l192 37 q-9 71 -15 156 l-148 -22 l-8 43 l154 23 q-5 95 -7 223 l46 0 q0 -103 5 -216 l249 37 l7 -43 l-253 -39 q4 -74 14 -154 l261 50 l9 -44 l-264 -50 q16 -127 49 -223 q117 91 183 196 l41 -19 Z" /><glyph glyph-name="" unicode="&#x2f9d;&#x8eab;" d="M708 275 l12 10 l0 107 l-453 0 l0 -117 l441 0 ZM267 689 l0 -106 l453 0 l0 106 l-453 0 ZM267 432 l453 0 l0 111 l-453 0 l0 -111 ZM928 441 q-69 -95 -162 -175 l0 -256 q0 -57 -43 -69 q-37 -9 -203 -9 q-8 27 -20 50 q121 -4 191 -1 q29 1 29 29 l0 218 q-248 -196 -647 -310 q-10 22 -29 41 q362 93 607 272 l-567 0 l0 44 l136 0 l0 458 l203 0 q29 50 47 103 l54 -13 q-42 -80 -49 -90 l291 0 l0 -407 q68 65 121 137 l41 -22 Z" /><glyph glyph-name="" unicode="&#x8fb2;" d="M810 720 l-175 0 l0 -79 l175 0 l0 79 ZM810 604 l-175 0 l0 -82 l175 0 l0 82 ZM199 522 l166 0 l0 82 l-166 0 l0 -82 ZM199 641 l166 0 l0 79 l-166 0 l0 -79 ZM412 604 l0 -82 l176 0 l0 82 l-176 0 ZM412 720 l0 -79 l176 0 l0 79 l-176 0 ZM856 484 l-702 0 l0 274 l211 0 l0 74 l47 0 l0 -74 l176 0 l0 74 l47 0 l0 -74 l221 0 l0 -274 ZM340 174 l0 -181 l216 49 q-2 -22 0 -38 q-270 -67 -287 -80 q-4 17 -22 42 q46 19 46 66 l0 142 l-112 0 q-22 -156 -94 -251 q-18 18 -40 27 q96 122 96 348 l0 127 l778 0 l0 -41 l-732 0 l0 -87 q0 -43 -4 -83 l757 0 l0 -40 l-420 0 q37 -58 107 -104 q113 42 204 94 l35 -30 q-85 -45 -202 -85 q111 -60 283 -77 q-21 -23 -30 -45 q-333 42 -445 247 l-134 0 ZM250 280 l0 39 l578 0 l0 -39 l-578 0 Z" /><glyph glyph-name="" unicode="&#x901a;" d="M656 542 l0 -108 l207 0 l0 108 l-207 0 ZM863 282 l0 112 l-207 0 l0 -112 l207 0 ZM611 282 l0 112 l-200 0 l0 -112 l200 0 ZM411 542 l0 -108 l200 0 l0 108 l-200 0 ZM491 711 q73 -27 152 -62 q101 42 179 102 l-461 0 l0 42 l508 0 l10 2 l31 -23 q-86 -83 -220 -144 q67 -32 90 -46 l129 0 l0 -458 q0 -40 -29 -51 q-24 -8 -136 -8 q-4 19 -15 42 q28 -1 116 -1 q18 1 18 18 l0 118 l-207 0 l0 -172 l-45 0 l0 172 l-200 0 l0 -176 l-46 0 l0 516 l321 0 q-106 55 -226 100 l31 29 ZM244 594 q-56 75 -167 170 l35 26 q114 -95 168 -166 l-36 -30 ZM246 103 q13 -5 37 -23 q34 -25 52 -36 q81 -50 262 -50 q185 0 366 16 q-10 -22 -14 -49 q-162 -10 -352 -10 q-188 0 -278 57 q-96 59 -98 59 q-43 0 -141 -126 l-31 37 q96 112 151 128 l0 311 l-150 0 l0 46 l196 0 l0 -360 Z" /><glyph glyph-name="" unicode="&#x9023;" d="M582 332 l0 98 l-185 0 l0 -98 l185 0 ZM397 469 l185 0 l0 96 l-185 0 l0 -96 ZM629 565 l0 -96 l192 0 l0 96 l-192 0 ZM821 430 l-192 0 l0 -98 l192 0 l0 98 ZM582 162 l-300 0 l0 43 l300 0 l0 87 l-230 0 l0 313 l230 0 l0 85 l-283 0 l0 43 l283 0 l0 100 l47 0 l0 -100 l296 0 l0 -43 l-296 0 l0 -85 l239 0 l0 -313 l-239 0 l0 -87 l313 0 l0 -43 l-313 0 l0 -127 l-47 0 l0 127 ZM231 610 q-45 77 -140 187 l37 22 q97 -111 142 -181 l-39 -28 ZM237 101 q10 -6 34 -27 q27 -22 47 -36 q77 -51 268 -51 q202 0 380 18 q-12 -27 -16 -54 q-152 -11 -365 -11 q-201 0 -284 58 l-94 66 q-40 0 -136 -135 l-35 43 q99 121 155 136 l0 337 l-142 0 l0 46 l188 0 l0 -390 Z" /><glyph glyph-name="" unicode="&#x9053;" d="M498 698 q-23 59 -75 119 l39 18 q54 -59 77 -117 l-41 -20 ZM805 512 l-371 0 l0 -100 l371 0 l0 100 ZM805 373 l-371 0 l0 -101 l371 0 l0 101 ZM805 233 l-371 0 l0 -102 l371 0 l0 102 ZM561 552 q19 59 29 99 l-279 0 l0 42 l378 0 q47 61 84 139 l48 -15 q-52 -84 -82 -124 l203 0 l0 -42 l-299 0 q-26 -73 -37 -99 l246 0 l0 -461 l-464 0 l0 461 l173 0 ZM223 603 q-50 79 -145 167 l37 23 q91 -81 147 -162 l-39 -28 ZM253 96 q11 -5 34 -21 q29 -21 45 -31 q75 -44 255 -44 q195 0 367 16 q-12 -24 -14 -49 q-152 -10 -354 -10 q-185 0 -268 50 q-92 55 -91 55 q-45 0 -143 -114 l-30 37 q96 101 152 115 l0 332 l-151 0 l0 46 l198 0 l0 -382 Z" /><glyph glyph-name="" unicode="&#x9078;" d="M688 750 l0 -80 l178 0 l0 80 l-178 0 ZM730 504 q-50 0 -67 12 q-17 13 -17 51 l0 221 l263 0 l0 -156 l-221 0 l0 -65 q0 -15 8 -20 q9 -5 36 -5 l141 0 q20 0 26 11 q6 10 8 50 q16 -11 38 -15 q-3 -50 -17 -67 q-13 -17 -50 -17 l-148 0 ZM361 750 l0 -80 l174 0 l0 80 l-174 0 ZM399 504 q-48 0 -64 12 q-16 12 -16 50 l0 222 l259 0 l0 -156 l-217 0 l0 -66 q0 -15 7 -19 q8 -5 34 -5 l129 0 q20 0 25 10 q6 10 7 47 q12 -10 39 -16 q-4 -46 -17 -63 q-13 -16 -47 -16 l-139 0 ZM517 250 l192 0 l0 110 l-192 0 l0 -110 ZM944 209 l-657 0 l0 41 l185 0 l0 110 l-145 0 l0 41 l145 0 l0 84 l45 0 l0 -84 l192 0 l0 84 l45 0 l0 -84 l149 0 l0 -41 l-149 0 l0 -110 l190 0 l0 -41 ZM886 39 q-78 69 -215 133 l31 25 q150 -69 224 -131 l-40 -27 ZM561 182 q-86 -82 -209 -143 q-14 16 -36 32 q129 57 202 125 l43 -14 ZM232 602 q-51 80 -160 168 l36 26 q111 -86 162 -165 l-38 -29 ZM239 84 q8 -1 96 -51 q74 -40 252 -40 q210 0 372 16 q-12 -27 -14 -52 q-168 -10 -358 -10 q-181 0 -267 46 q-87 49 -91 49 q-45 0 -143 -103 l-34 41 q86 79 141 98 l0 328 l-130 0 l0 46 l176 0 l0 -368 Z" /><glyph glyph-name="" unicode="&#x2ed3;&#x957f;" d="M826 790 q-143 -175 -389 -297 q-15 19 -41 37 q244 108 383 278 l47 -18 ZM539 386 q122 -297 422 -388 q-21 -18 -34 -43 q-311 104 -438 431 l-176 0 l0 -379 l256 67 q0 -26 5 -43 q-302 -85 -325 -101 q-6 27 -20 46 q35 13 35 53 l0 357 l-204 0 l0 48 l204 0 l0 392 l49 0 l0 -392 l627 0 l0 -48 l-401 0 Z" /><glyph glyph-name="" unicode="&#x2fa8;&#x9580;" d="M148 739 l0 -109 l248 0 l0 109 l-248 0 ZM396 472 l0 118 l-248 0 l0 -118 l248 0 ZM442 428 l-294 0 l0 -500 l-48 0 l0 854 l342 0 l0 -354 ZM857 471 l0 119 l-261 0 l0 -119 l261 0 ZM596 739 l0 -109 l261 0 l0 109 l-261 0 ZM905 4 q0 -55 -39 -66 q-33 -9 -171 -9 q-5 24 -20 51 q99 -4 157 -1 q25 1 25 25 l0 424 l-307 0 l0 354 l355 0 l0 -778 Z" /><glyph glyph-name="" unicode="&#x9662;" d="M429 541 l-46 0 l0 163 l271 0 q-25 60 -64 119 l40 17 q46 -65 68 -119 l-36 -17 l280 0 l0 -163 l-46 0 l0 119 l-467 0 l0 -119 ZM463 486 l0 44 l397 0 l0 -44 l-397 0 ZM356 773 q-47 -127 -106 -258 q99 -108 99 -223 q0 -82 -37 -108 q-18 -14 -48 -17 q-30 -3 -69 -1 q-2 25 -15 44 q50 -2 67 -1 q21 2 34 10 q23 16 23 76 q0 106 -102 214 q56 129 94 237 l-165 0 l0 -819 l-44 0 l0 864 l230 0 l8 2 l31 -20 ZM885 -18 q19 0 25 23 q6 24 7 109 q17 -15 43 -19 q-4 -96 -17 -126 q-14 -31 -54 -31 l-102 0 q-44 0 -58 14 q-15 14 -15 56 l0 297 l-128 0 q-13 -154 -63 -236 q-59 -95 -192 -141 q-10 24 -29 37 q125 40 179 127 q46 72 58 213 l-151 0 l0 45 l562 0 l0 -45 l-190 0 l0 -297 q0 -16 6 -21 q5 -5 25 -5 l94 0 Z" /><glyph glyph-name="" unicode="&#x96c6;" d="M495 678 l-266 0 l0 -82 l266 0 l0 82 ZM495 557 l-266 0 l0 -81 l266 0 l0 81 ZM495 437 l-266 0 l0 -85 l266 0 l0 85 ZM182 620 q-49 -59 -108 -107 q-20 22 -36 29 q151 122 231 293 l51 -9 q-39 -71 -63 -106 l266 0 q-22 52 -54 102 l43 13 q45 -70 63 -115 l301 0 l0 -42 l-334 0 l0 -82 l296 0 l0 -39 l-296 0 l0 -81 l300 0 l0 -39 l-300 0 l0 -85 l371 0 l0 -42 l-684 0 l0 -33 l-47 0 l0 343 ZM575 180 q153 -130 387 -189 q-17 -17 -31 -41 q-253 74 -409 221 l0 -244 l-47 0 l0 245 q-152 -149 -402 -231 q-21 30 -33 40 q228 65 381 199 l-362 0 l0 43 l416 0 l0 76 l47 0 l0 -76 l421 0 l0 -43 l-368 0 Z" /><glyph glyph-name="" unicode="&#x96f2;" d="M132 452 l-45 0 l0 208 l386 0 l0 90 l-338 0 l0 41 l730 0 l0 -41 l-345 0 l0 -90 l394 0 l0 -208 l-46 0 l0 167 l-348 0 l0 -255 l-47 0 l0 255 l-341 0 l0 -167 ZM170 429 l242 0 l0 -39 l-242 0 l0 39 ZM411 544 l0 -38 l-220 0 l0 38 l220 0 ZM170 312 l654 0 l0 -41 l-654 0 l0 41 ZM836 390 l-253 0 l0 39 l253 0 l0 -39 ZM806 544 l0 -38 l-223 0 l0 38 l223 0 ZM396 140 q-69 -81 -144 -142 l498 23 q-51 49 -115 95 l38 22 q142 -100 215 -191 l-42 -26 q-13 19 -54 62 q-586 -32 -615 -42 q-7 26 -17 49 q17 2 54 30 q51 40 117 120 l-272 0 l0 42 l882 0 l0 -42 l-545 0 Z" /><glyph glyph-name="" unicode="&#x96fb;" d="M474 630 l-342 0 l0 -149 l-45 0 l0 189 l387 0 l0 75 l-335 0 l0 41 l723 0 l0 -41 l-341 0 l0 -75 l393 0 l0 -189 l-47 0 l0 149 l-346 0 l0 -241 l-47 0 l0 241 ZM582 461 l252 0 l0 -37 l-252 0 l0 37 ZM809 564 l0 -37 l-227 0 l0 37 l227 0 ZM173 461 l241 0 l0 -37 l-241 0 l0 37 ZM413 564 l0 -37 l-220 0 l0 37 l220 0 ZM473 107 l0 84 l-256 0 l0 -84 l256 0 ZM217 312 l0 -84 l256 0 l0 84 l-256 0 ZM790 312 l-271 0 l0 -84 l271 0 l0 84 ZM790 107 l0 84 l-271 0 l0 -84 l271 0 ZM839 -19 q41 0 54 23 q12 23 16 105 q15 -12 43 -18 q-6 -93 -26 -122 q-22 -31 -85 -31 l-244 0 q-74 0 -98 16 q-26 17 -26 67 l0 47 l-256 0 l0 -57 l-47 0 l0 340 l667 0 l0 -283 l-318 0 l0 -47 q0 -25 14 -32 q15 -8 63 -8 l243 0 Z" /><glyph glyph-name="" unicode="&#x2faf;&#x9762;" d="M839 522 l-175 0 l0 -496 l175 0 l0 496 ZM160 26 l168 0 l0 496 l-168 0 l0 -496 ZM619 522 l-246 0 l0 -135 l246 0 l0 135 ZM373 26 l246 0 l0 141 l-246 0 l0 -141 ZM619 345 l-246 0 l0 -136 l246 0 l0 136 ZM519 714 q-51 -163 -45 -146 l414 0 l0 -642 l-49 0 l0 55 l-679 0 l0 -55 l-48 0 l0 642 l313 0 q20 61 38 146 l-398 0 l0 47 l873 0 l0 -47 l-419 0 Z" /><glyph glyph-name="" unicode="&#x97d3;" d="M133 301 l243 0 l0 97 l-243 0 l0 -97 ZM133 438 l243 0 l0 96 l-243 0 l0 -96 ZM277 158 l177 0 l0 -45 l-177 0 l0 -185 l-46 0 l0 185 l-182 0 l0 45 l182 0 l0 101 l-142 0 l0 316 l141 0 l0 101 l-171 0 l0 44 l171 0 l0 115 l47 0 l0 -115 l167 0 l0 -44 l-167 0 l0 -101 l144 0 l0 -316 l-144 0 l0 -101 ZM665 706 l-13 -99 l172 0 l0 99 l-159 0 ZM942 566 l-479 0 l0 41 l143 0 q5 29 13 99 l-116 0 l0 41 l120 0 q6 55 8 84 l46 -4 l-7 -80 l198 0 l0 -140 l74 0 l0 -41 ZM572 350 l281 0 l0 121 l-281 0 l0 -121 ZM948 27 l-191 0 l0 -99 l-45 0 l0 99 l-194 0 q14 71 22 149 l44 -3 q-3 -27 -15 -105 l143 0 l0 131 l-230 0 l0 42 l230 0 l0 70 l-186 0 l0 199 l373 0 l0 -199 l-142 0 l0 -70 l182 0 l0 -42 l-182 0 l0 -131 l191 0 l0 -41 Z" /><glyph glyph-name="" unicode="&#x2fb3;&#x97f3;" d="M891 691 l-775 0 l0 45 l376 0 q-22 58 -45 91 l46 12 q30 -41 52 -103 l346 0 l0 -45 ZM328 501 q-16 83 -69 166 l44 12 q55 -81 72 -163 l-47 -15 ZM252 308 l0 -126 l504 0 l0 126 l-504 0 ZM756 9 l0 131 l-504 0 l0 -131 l504 0 ZM204 351 l601 0 l0 -422 l-49 0 l0 37 l-504 0 l0 -40 l-48 0 l0 425 ZM942 499 l0 -45 l-883 0 l0 45 l556 0 q52 88 87 183 l50 -15 q-43 -92 -86 -168 l276 0 Z" /><glyph glyph-name="" unicode="&#x97ff;" d="M741 392 l-42 0 l0 406 l213 0 l6 2 l29 -18 q-36 -63 -89 -138 q89 -65 91 -121 q0 -49 -36 -68 q-19 -10 -40 -12 q-42 -4 -80 -1 q-2 21 -16 38 q48 -4 81 -1 q16 0 28 6 q24 11 22 40 q-1 48 -97 113 q51 78 73 120 l-143 0 l0 -366 ZM410 735 l0 -63 l191 0 l0 63 l-191 0 ZM601 572 l0 66 l-191 0 l0 -66 l191 0 ZM575 508 q-22 20 -33 29 l-132 0 l0 -64 l165 35 ZM645 423 q-16 28 -43 56 q-231 -55 -249 -66 q-6 23 -18 40 q32 13 32 52 l0 266 l43 0 l0 -2 l74 0 q-11 30 -34 63 l39 11 q31 -36 43 -74 l111 0 l0 -232 l-49 0 q60 -52 82 -93 l-31 -21 ZM354 635 q-53 -177 -269 -263 q-10 19 -25 33 q146 52 214 152 q-177 -21 -194 -30 q-2 17 -12 42 q16 1 58 29 q38 31 70 61 q-100 -9 -114 -15 q-5 25 -13 41 q17 3 38 24 q50 40 95 123 l38 -19 q-52 -78 -103 -124 l95 6 q42 44 55 62 l37 -21 q-84 -94 -171 -158 l142 16 q13 25 20 49 l39 -8 ZM247 135 l0 -55 l509 0 l0 55 l-509 0 ZM756 -8 l0 56 l-509 0 l0 -56 l509 0 ZM202 170 l601 0 l0 -241 l-47 0 l0 28 l-509 0 l0 -30 l-45 0 l0 243 ZM331 337 q44 -40 57 -76 l-11 -5 l235 0 q39 53 56 81 l-337 0 ZM715 326 q-31 -44 -54 -70 l283 0 l0 -39 l-886 0 l0 39 l284 0 q-19 37 -52 68 l29 13 l-161 0 l0 38 l332 0 q-10 25 -30 55 l44 12 q23 -33 37 -67 l319 0 l0 -38 l-170 0 l25 -11 Z" /><glyph glyph-name="" unicode="&#x2fb5;&#x98a8;" d="M469 268 l0 179 l-142 0 l0 -179 l142 0 ZM513 447 l0 -179 l145 0 l0 179 l-145 0 ZM647 189 q102 -114 134 -219 l-40 -17 q-12 36 -37 83 l-486 -32 l-4 45 q29 1 255 15 l0 162 l-185 0 l0 262 l185 0 l0 107 q-96 -11 -201 -18 q-4 22 -15 39 q304 22 429 59 l38 -35 q-79 -23 -207 -39 l0 -113 l187 0 l0 -262 l-187 0 l0 -159 l167 11 q-38 59 -71 97 l38 14 ZM830 770 q1 -368 11 -533 q16 -261 61 -261 q17 0 21 162 q15 -17 34 -28 q-5 -105 -16 -142 q-12 -40 -44 -41 q-72 0 -95 233 q-12 129 -17 565 l-572 0 l0 -260 q0 -361 -131 -539 q-13 17 -38 28 q122 164 122 511 l0 305 l664 0 Z" /><glyph glyph-name="" unicode="&#x2fba;&#x99ac;" d="M46 -37 q85 70 117 232 l42 -11 q-39 -179 -120 -247 l-39 26 ZM348 173 q29 -104 32 -194 l-45 -7 q-2 92 -28 195 l41 6 ZM518 183 q49 -95 63 -171 l-41 -13 q-17 87 -62 176 l40 8 ZM221 291 l264 0 l0 120 l-264 0 l0 -120 ZM221 735 l0 -120 l264 0 l0 120 l-264 0 ZM485 572 l-264 0 l0 -119 l264 0 l0 119 ZM923 291 l-2 -24 q-20 -278 -57 -318 q-22 -21 -59 -21 q-45 -3 -131 3 q-2 26 -13 45 q55 -6 126 -6 q28 0 36 10 q32 29 49 267 l-698 0 l0 532 l692 0 l0 -44 l-334 0 l0 -120 l300 0 l0 -43 l-300 0 l0 -119 l300 0 l0 -42 l-300 0 l0 -120 l391 0 ZM735 53 q-27 63 -95 136 l36 17 q69 -70 96 -132 l-37 -21 Z" /><glyph glyph-name="" unicode="&#x9a13;" d="M721 827 q-10 -17 -13 -21 q80 -127 255 -204 q-18 -20 -25 -43 q-167 86 -253 210 q-92 -125 -237 -213 q-10 20 -28 38 q181 100 264 249 l37 -16 ZM38 6 q30 77 48 223 l33 -11 q-25 -162 -47 -225 l-34 13 ZM176 216 q15 -97 17 -180 l-33 -4 q0 71 -15 180 l31 4 ZM235 232 q32 -91 47 -162 l-32 -9 q-11 59 -45 164 l30 7 ZM332 108 q-31 74 -66 134 l27 11 q50 -83 68 -130 l-29 -15 ZM134 329 l106 0 l0 115 l-106 0 l0 -115 ZM134 741 l0 -108 l106 0 l0 108 l-106 0 ZM240 591 l-106 0 l0 -106 l106 0 l0 106 ZM424 306 q-13 -324 -37 -356 q-17 -20 -47 -21 q-33 -2 -77 1 q-2 27 -11 42 q33 -4 74 -4 q18 0 25 10 q19 27 30 308 l-288 0 l0 498 l327 0 l0 -43 l-138 0 l0 -108 l123 0 l0 -42 l-123 0 l0 -106 l124 0 l0 -41 l-124 0 l0 -115 l142 0 l0 -23 ZM660 255 q13 59 13 139 l0 18 l-146 0 l0 -157 l133 0 ZM716 412 l0 -19 q0 -79 -12 -138 l162 0 l0 157 l-150 0 ZM729 213 q77 -174 236 -237 q-20 -20 -30 -40 q-164 76 -244 265 q-56 -173 -238 -271 q-8 16 -29 35 q175 90 225 248 l-163 0 l0 241 l187 0 l0 95 l-136 0 l0 43 l321 0 l0 -43 l-142 0 l0 -95 l193 0 l0 -241 l-180 0 Z" /><glyph glyph-name="" unicode="&#x2ee6;&#x9e1f;" d="M726 133 l-672 0 l0 44 l672 0 l0 -44 ZM909 364 q-1 -18 -2 -24 q-26 -338 -72 -385 q-20 -22 -62 -24 q-45 -2 -126 3 q-2 25 -14 45 q54 -6 125 -6 q27 0 37 11 q39 36 63 334 l-658 0 l0 410 l211 0 q33 62 51 109 l52 -12 q-28 -54 -53 -97 l339 0 l-2 -23 q-23 -223 -59 -258 q-18 -18 -51 -19 q-27 -3 -87 2 q-2 22 -13 43 q51 -4 85 -4 q20 0 29 9 q27 25 47 204 l-503 0 l0 -318 l663 0 ZM542 484 q-73 49 -208 112 l27 29 q147 -66 209 -107 l-28 -34 Z" /><glyph glyph-name="" unicode="&#x9e26;" d="M365 396 l0 -394 q0 -48 -35 -61 q-26 -9 -151 -9 q-3 20 -17 48 q102 -3 135 -1 q22 1 22 23 l0 350 q-102 -215 -238 -341 q-16 21 -38 39 q144 119 248 346 l-229 -1 q28 107 59 292 l46 -5 q-23 -131 -47 -239 l199 0 l0 289 l-246 0 l0 46 l382 0 l0 -46 l-90 0 l0 -289 l108 0 l0 -47 l-108 0 ZM841 138 l-376 0 l0 44 l376 0 l0 -44 ZM944 336 q-1 -17 -2 -24 q-20 -318 -59 -360 q-20 -21 -56 -21 q-35 -3 -109 2 q-2 25 -14 43 q60 -5 109 -5 q24 0 32 10 q32 29 51 312 l-372 0 l0 449 l109 0 q29 66 38 99 l47 -14 l-20 -43 q-14 -28 -20 -42 l220 0 l0 -23 q-11 -262 -35 -290 q-15 -20 -48 -21 q-30 -2 -95 2 q-2 24 -13 41 q41 -4 91 -4 q21 0 29 9 q18 24 26 243 l-284 0 l0 -363 l375 0 ZM758 502 q-52 58 -130 120 l28 27 q91 -72 132 -117 l-30 -30 Z" /><glyph glyph-name="" unicode="&#xff08;" d="M914 -93 q-200 206 -200 473 q0 267 200 473 l39 -24 q-190 -195 -190 -449 q0 -254 190 -449 l-39 -24 Z" /><glyph glyph-name="" unicode="&#xff09;" d="M86 853 q200 -206 200 -473 q0 -267 -200 -473 l-39 24 q190 195 190 449 q0 254 -190 449 l39 24 Z" /></font>
</defs>
</svg>
